%TF.GenerationSoftware,KiCad,Pcbnew,(6.0.4)*%
%TF.CreationDate,2022-11-18T09:58:05-05:00*%
%TF.ProjectId,NFFPCB,4e464650-4342-42e6-9b69-6361645f7063,rev?*%
%TF.SameCoordinates,Original*%
%TF.FileFunction,Legend,Top*%
%TF.FilePolarity,Positive*%
%FSLAX46Y46*%
G04 Gerber Fmt 4.6, Leading zero omitted, Abs format (unit mm)*
G04 Created by KiCad (PCBNEW (6.0.4)) date 2022-11-18 09:58:05*
%MOMM*%
%LPD*%
G01*
G04 APERTURE LIST*
%ADD10C,0.150000*%
%ADD11C,0.300000*%
%ADD12C,0.120000*%
G04 APERTURE END LIST*
D10*
X110203000Y-47261904D02*
X110160142Y-47357142D01*
X110160142Y-47500000D01*
X110203000Y-47642857D01*
X110288714Y-47738095D01*
X110374428Y-47785714D01*
X110545857Y-47833333D01*
X110674428Y-47833333D01*
X110845857Y-47785714D01*
X110931571Y-47738095D01*
X111017285Y-47642857D01*
X111060142Y-47500000D01*
X111060142Y-47404761D01*
X111017285Y-47261904D01*
X110974428Y-47214285D01*
X110674428Y-47214285D01*
X110674428Y-47404761D01*
X111060142Y-46785714D02*
X110160142Y-46785714D01*
X111060142Y-46214285D01*
X110160142Y-46214285D01*
X111060142Y-45738095D02*
X110160142Y-45738095D01*
X110160142Y-45500000D01*
X110203000Y-45357142D01*
X110288714Y-45261904D01*
X110374428Y-45214285D01*
X110545857Y-45166666D01*
X110674428Y-45166666D01*
X110845857Y-45214285D01*
X110931571Y-45261904D01*
X111017285Y-45357142D01*
X111060142Y-45500000D01*
X111060142Y-45738095D01*
X113058142Y-47690476D02*
X113058142Y-47071428D01*
X113401000Y-47404761D01*
X113401000Y-47261904D01*
X113443857Y-47166666D01*
X113486714Y-47119047D01*
X113572428Y-47071428D01*
X113786714Y-47071428D01*
X113872428Y-47119047D01*
X113915285Y-47166666D01*
X113958142Y-47261904D01*
X113958142Y-47547619D01*
X113915285Y-47642857D01*
X113872428Y-47690476D01*
X113358142Y-46738095D02*
X113958142Y-46500000D01*
X113358142Y-46261904D01*
X113058142Y-45976190D02*
X113058142Y-45357142D01*
X113401000Y-45690476D01*
X113401000Y-45547619D01*
X113443857Y-45452380D01*
X113486714Y-45404761D01*
X113572428Y-45357142D01*
X113786714Y-45357142D01*
X113872428Y-45404761D01*
X113915285Y-45452380D01*
X113958142Y-45547619D01*
X113958142Y-45833333D01*
X113915285Y-45928571D01*
X113872428Y-45976190D01*
X116813285Y-47690476D02*
X116856142Y-47547619D01*
X116856142Y-47309523D01*
X116813285Y-47214285D01*
X116770428Y-47166666D01*
X116684714Y-47119047D01*
X116599000Y-47119047D01*
X116513285Y-47166666D01*
X116470428Y-47214285D01*
X116427571Y-47309523D01*
X116384714Y-47500000D01*
X116341857Y-47595238D01*
X116299000Y-47642857D01*
X116213285Y-47690476D01*
X116127571Y-47690476D01*
X116041857Y-47642857D01*
X115999000Y-47595238D01*
X115956142Y-47500000D01*
X115956142Y-47261904D01*
X115999000Y-47119047D01*
X116770428Y-46119047D02*
X116813285Y-46166666D01*
X116856142Y-46309523D01*
X116856142Y-46404761D01*
X116813285Y-46547619D01*
X116727571Y-46642857D01*
X116641857Y-46690476D01*
X116470428Y-46738095D01*
X116341857Y-46738095D01*
X116170428Y-46690476D01*
X116084714Y-46642857D01*
X115999000Y-46547619D01*
X115956142Y-46404761D01*
X115956142Y-46309523D01*
X115999000Y-46166666D01*
X116041857Y-46119047D01*
X116856142Y-45214285D02*
X116856142Y-45690476D01*
X115956142Y-45690476D01*
X119711285Y-47714285D02*
X119754142Y-47571428D01*
X119754142Y-47333333D01*
X119711285Y-47238095D01*
X119668428Y-47190476D01*
X119582714Y-47142857D01*
X119497000Y-47142857D01*
X119411285Y-47190476D01*
X119368428Y-47238095D01*
X119325571Y-47333333D01*
X119282714Y-47523809D01*
X119239857Y-47619047D01*
X119197000Y-47666666D01*
X119111285Y-47714285D01*
X119025571Y-47714285D01*
X118939857Y-47666666D01*
X118897000Y-47619047D01*
X118854142Y-47523809D01*
X118854142Y-47285714D01*
X118897000Y-47142857D01*
X119754142Y-46714285D02*
X118854142Y-46714285D01*
X118854142Y-46476190D01*
X118897000Y-46333333D01*
X118982714Y-46238095D01*
X119068428Y-46190476D01*
X119239857Y-46142857D01*
X119368428Y-46142857D01*
X119539857Y-46190476D01*
X119625571Y-46238095D01*
X119711285Y-46333333D01*
X119754142Y-46476190D01*
X119754142Y-46714285D01*
X119497000Y-45761904D02*
X119497000Y-45285714D01*
X119754142Y-45857142D02*
X118854142Y-45523809D01*
X119754142Y-45190476D01*
X57809523Y-48160142D02*
X58428571Y-48160142D01*
X58095238Y-48503000D01*
X58238095Y-48503000D01*
X58333333Y-48545857D01*
X58380952Y-48588714D01*
X58428571Y-48674428D01*
X58428571Y-48888714D01*
X58380952Y-48974428D01*
X58333333Y-49017285D01*
X58238095Y-49060142D01*
X57952380Y-49060142D01*
X57857142Y-49017285D01*
X57809523Y-48974428D01*
X58761904Y-48460142D02*
X59000000Y-49060142D01*
X59238095Y-48460142D01*
X59523809Y-48160142D02*
X60142857Y-48160142D01*
X59809523Y-48503000D01*
X59952380Y-48503000D01*
X60047619Y-48545857D01*
X60095238Y-48588714D01*
X60142857Y-48674428D01*
X60142857Y-48888714D01*
X60095238Y-48974428D01*
X60047619Y-49017285D01*
X59952380Y-49060142D01*
X59666666Y-49060142D01*
X59571428Y-49017285D01*
X59523809Y-48974428D01*
X58238095Y-51101000D02*
X58142857Y-51058142D01*
X58000000Y-51058142D01*
X57857142Y-51101000D01*
X57761904Y-51186714D01*
X57714285Y-51272428D01*
X57666666Y-51443857D01*
X57666666Y-51572428D01*
X57714285Y-51743857D01*
X57761904Y-51829571D01*
X57857142Y-51915285D01*
X58000000Y-51958142D01*
X58095238Y-51958142D01*
X58238095Y-51915285D01*
X58285714Y-51872428D01*
X58285714Y-51572428D01*
X58095238Y-51572428D01*
X58714285Y-51958142D02*
X58714285Y-51058142D01*
X59285714Y-51958142D01*
X59285714Y-51058142D01*
X59761904Y-51958142D02*
X59761904Y-51058142D01*
X60000000Y-51058142D01*
X60142857Y-51101000D01*
X60238095Y-51186714D01*
X60285714Y-51272428D01*
X60333333Y-51443857D01*
X60333333Y-51572428D01*
X60285714Y-51743857D01*
X60238095Y-51829571D01*
X60142857Y-51915285D01*
X60000000Y-51958142D01*
X59761904Y-51958142D01*
X57785714Y-54813285D02*
X57928571Y-54856142D01*
X58166666Y-54856142D01*
X58261904Y-54813285D01*
X58309523Y-54770428D01*
X58357142Y-54684714D01*
X58357142Y-54599000D01*
X58309523Y-54513285D01*
X58261904Y-54470428D01*
X58166666Y-54427571D01*
X57976190Y-54384714D01*
X57880952Y-54341857D01*
X57833333Y-54299000D01*
X57785714Y-54213285D01*
X57785714Y-54127571D01*
X57833333Y-54041857D01*
X57880952Y-53999000D01*
X57976190Y-53956142D01*
X58214285Y-53956142D01*
X58357142Y-53999000D01*
X58785714Y-54856142D02*
X58785714Y-53956142D01*
X59023809Y-53956142D01*
X59166666Y-53999000D01*
X59261904Y-54084714D01*
X59309523Y-54170428D01*
X59357142Y-54341857D01*
X59357142Y-54470428D01*
X59309523Y-54641857D01*
X59261904Y-54727571D01*
X59166666Y-54813285D01*
X59023809Y-54856142D01*
X58785714Y-54856142D01*
X59738095Y-54599000D02*
X60214285Y-54599000D01*
X59642857Y-54856142D02*
X59976190Y-53956142D01*
X60309523Y-54856142D01*
X57809523Y-57711285D02*
X57952380Y-57754142D01*
X58190476Y-57754142D01*
X58285714Y-57711285D01*
X58333333Y-57668428D01*
X58380952Y-57582714D01*
X58380952Y-57497000D01*
X58333333Y-57411285D01*
X58285714Y-57368428D01*
X58190476Y-57325571D01*
X58000000Y-57282714D01*
X57904761Y-57239857D01*
X57857142Y-57197000D01*
X57809523Y-57111285D01*
X57809523Y-57025571D01*
X57857142Y-56939857D01*
X57904761Y-56897000D01*
X58000000Y-56854142D01*
X58238095Y-56854142D01*
X58380952Y-56897000D01*
X59380952Y-57668428D02*
X59333333Y-57711285D01*
X59190476Y-57754142D01*
X59095238Y-57754142D01*
X58952380Y-57711285D01*
X58857142Y-57625571D01*
X58809523Y-57539857D01*
X58761904Y-57368428D01*
X58761904Y-57239857D01*
X58809523Y-57068428D01*
X58857142Y-56982714D01*
X58952380Y-56897000D01*
X59095238Y-56854142D01*
X59190476Y-56854142D01*
X59333333Y-56897000D01*
X59380952Y-56939857D01*
X60285714Y-57754142D02*
X59809523Y-57754142D01*
X59809523Y-56854142D01*
X58166666Y-42318571D02*
X58309523Y-42366190D01*
X58357142Y-42413809D01*
X58404761Y-42509047D01*
X58404761Y-42651904D01*
X58357142Y-42747142D01*
X58309523Y-42794761D01*
X58214285Y-42842380D01*
X57833333Y-42842380D01*
X57833333Y-41842380D01*
X58166666Y-41842380D01*
X58261904Y-41890000D01*
X58309523Y-41937619D01*
X58357142Y-42032857D01*
X58357142Y-42128095D01*
X58309523Y-42223333D01*
X58261904Y-42270952D01*
X58166666Y-42318571D01*
X57833333Y-42318571D01*
X58690476Y-41842380D02*
X59261904Y-41842380D01*
X58976190Y-42842380D02*
X58976190Y-41842380D01*
X59595238Y-42842380D02*
X59595238Y-41842380D01*
X60166666Y-42842380D01*
X60166666Y-41842380D01*
X58238095Y-45110000D02*
X58142857Y-45062380D01*
X58000000Y-45062380D01*
X57857142Y-45110000D01*
X57761904Y-45205238D01*
X57714285Y-45300476D01*
X57666666Y-45490952D01*
X57666666Y-45633809D01*
X57714285Y-45824285D01*
X57761904Y-45919523D01*
X57857142Y-46014761D01*
X58000000Y-46062380D01*
X58095238Y-46062380D01*
X58238095Y-46014761D01*
X58285714Y-45967142D01*
X58285714Y-45633809D01*
X58095238Y-45633809D01*
X58714285Y-46062380D02*
X58714285Y-45062380D01*
X59285714Y-46062380D01*
X59285714Y-45062380D01*
X59761904Y-46062380D02*
X59761904Y-45062380D01*
X60000000Y-45062380D01*
X60142857Y-45110000D01*
X60238095Y-45205238D01*
X60285714Y-45300476D01*
X60333333Y-45490952D01*
X60333333Y-45633809D01*
X60285714Y-45824285D01*
X60238095Y-45919523D01*
X60142857Y-46014761D01*
X60000000Y-46062380D01*
X59761904Y-46062380D01*
X57809523Y-60160142D02*
X58428571Y-60160142D01*
X58095238Y-60503000D01*
X58238095Y-60503000D01*
X58333333Y-60545857D01*
X58380952Y-60588714D01*
X58428571Y-60674428D01*
X58428571Y-60888714D01*
X58380952Y-60974428D01*
X58333333Y-61017285D01*
X58238095Y-61060142D01*
X57952380Y-61060142D01*
X57857142Y-61017285D01*
X57809523Y-60974428D01*
X58761904Y-60460142D02*
X59000000Y-61060142D01*
X59238095Y-60460142D01*
X59523809Y-60160142D02*
X60142857Y-60160142D01*
X59809523Y-60503000D01*
X59952380Y-60503000D01*
X60047619Y-60545857D01*
X60095238Y-60588714D01*
X60142857Y-60674428D01*
X60142857Y-60888714D01*
X60095238Y-60974428D01*
X60047619Y-61017285D01*
X59952380Y-61060142D01*
X59666666Y-61060142D01*
X59571428Y-61017285D01*
X59523809Y-60974428D01*
X58238095Y-63101000D02*
X58142857Y-63058142D01*
X58000000Y-63058142D01*
X57857142Y-63101000D01*
X57761904Y-63186714D01*
X57714285Y-63272428D01*
X57666666Y-63443857D01*
X57666666Y-63572428D01*
X57714285Y-63743857D01*
X57761904Y-63829571D01*
X57857142Y-63915285D01*
X58000000Y-63958142D01*
X58095238Y-63958142D01*
X58238095Y-63915285D01*
X58285714Y-63872428D01*
X58285714Y-63572428D01*
X58095238Y-63572428D01*
X58714285Y-63958142D02*
X58714285Y-63058142D01*
X59285714Y-63958142D01*
X59285714Y-63058142D01*
X59761904Y-63958142D02*
X59761904Y-63058142D01*
X60000000Y-63058142D01*
X60142857Y-63101000D01*
X60238095Y-63186714D01*
X60285714Y-63272428D01*
X60333333Y-63443857D01*
X60333333Y-63572428D01*
X60285714Y-63743857D01*
X60238095Y-63829571D01*
X60142857Y-63915285D01*
X60000000Y-63958142D01*
X59761904Y-63958142D01*
X58833333Y-66856142D02*
X58500000Y-66427571D01*
X58261904Y-66856142D02*
X58261904Y-65956142D01*
X58642857Y-65956142D01*
X58738095Y-65999000D01*
X58785714Y-66041857D01*
X58833333Y-66127571D01*
X58833333Y-66256142D01*
X58785714Y-66341857D01*
X58738095Y-66384714D01*
X58642857Y-66427571D01*
X58261904Y-66427571D01*
X59166666Y-65956142D02*
X59833333Y-66856142D01*
X59833333Y-65956142D02*
X59166666Y-66856142D01*
X58238095Y-68854142D02*
X58809523Y-68854142D01*
X58523809Y-69754142D02*
X58523809Y-68854142D01*
X59047619Y-68854142D02*
X59714285Y-69754142D01*
X59714285Y-68854142D02*
X59047619Y-69754142D01*
D11*
X122000000Y-42471071D02*
X122000000Y-40971071D01*
X122857142Y-42471071D01*
X122857142Y-40971071D01*
X124071428Y-41685357D02*
X123571428Y-41685357D01*
X123571428Y-42471071D02*
X123571428Y-40971071D01*
X124285714Y-40971071D01*
X125357142Y-41685357D02*
X124857142Y-41685357D01*
X124857142Y-42471071D02*
X124857142Y-40971071D01*
X125571428Y-40971071D01*
X128142857Y-42471071D02*
X127642857Y-41756785D01*
X127285714Y-42471071D02*
X127285714Y-40971071D01*
X127857142Y-40971071D01*
X128000000Y-41042500D01*
X128071428Y-41113928D01*
X128142857Y-41256785D01*
X128142857Y-41471071D01*
X128071428Y-41613928D01*
X128000000Y-41685357D01*
X127857142Y-41756785D01*
X127285714Y-41756785D01*
X128785714Y-41685357D02*
X129285714Y-41685357D01*
X129500000Y-42471071D02*
X128785714Y-42471071D01*
X128785714Y-40971071D01*
X129500000Y-40971071D01*
X129928571Y-40971071D02*
X130428571Y-42471071D01*
X130928571Y-40971071D01*
X131357142Y-42042500D02*
X132071428Y-42042500D01*
X131214285Y-42471071D02*
X131714285Y-40971071D01*
X132214285Y-42471071D01*
X123035714Y-44100357D02*
X123535714Y-44100357D01*
X123750000Y-44886071D02*
X123035714Y-44886071D01*
X123035714Y-43386071D01*
X123750000Y-43386071D01*
X124678571Y-44171785D02*
X124678571Y-44886071D01*
X124178571Y-43386071D02*
X124678571Y-44171785D01*
X125178571Y-43386071D01*
X125678571Y-44100357D02*
X126178571Y-44100357D01*
X126392857Y-44886071D02*
X125678571Y-44886071D01*
X125678571Y-43386071D01*
X126392857Y-43386071D01*
X127892857Y-44743214D02*
X127821428Y-44814642D01*
X127607142Y-44886071D01*
X127464285Y-44886071D01*
X127250000Y-44814642D01*
X127107142Y-44671785D01*
X127035714Y-44528928D01*
X126964285Y-44243214D01*
X126964285Y-44028928D01*
X127035714Y-43743214D01*
X127107142Y-43600357D01*
X127250000Y-43457500D01*
X127464285Y-43386071D01*
X127607142Y-43386071D01*
X127821428Y-43457500D01*
X127892857Y-43528928D01*
X128821428Y-43386071D02*
X129107142Y-43386071D01*
X129250000Y-43457500D01*
X129392857Y-43600357D01*
X129464285Y-43886071D01*
X129464285Y-44386071D01*
X129392857Y-44671785D01*
X129250000Y-44814642D01*
X129107142Y-44886071D01*
X128821428Y-44886071D01*
X128678571Y-44814642D01*
X128535714Y-44671785D01*
X128464285Y-44386071D01*
X128464285Y-43886071D01*
X128535714Y-43600357D01*
X128678571Y-43457500D01*
X128821428Y-43386071D01*
X130107142Y-44886071D02*
X130107142Y-43386071D01*
X130964285Y-44886071D01*
X130964285Y-43386071D01*
D10*
%TO.C,TPVUSB1*%
X57309523Y-70952380D02*
X57880952Y-70952380D01*
X57595238Y-71952380D02*
X57595238Y-70952380D01*
X58214285Y-71952380D02*
X58214285Y-70952380D01*
X58595238Y-70952380D01*
X58690476Y-71000000D01*
X58738095Y-71047619D01*
X58785714Y-71142857D01*
X58785714Y-71285714D01*
X58738095Y-71380952D01*
X58690476Y-71428571D01*
X58595238Y-71476190D01*
X58214285Y-71476190D01*
X59071428Y-70952380D02*
X59404761Y-71952380D01*
X59738095Y-70952380D01*
X60071428Y-70952380D02*
X60071428Y-71761904D01*
X60119047Y-71857142D01*
X60166666Y-71904761D01*
X60261904Y-71952380D01*
X60452380Y-71952380D01*
X60547619Y-71904761D01*
X60595238Y-71857142D01*
X60642857Y-71761904D01*
X60642857Y-70952380D01*
X61071428Y-71904761D02*
X61214285Y-71952380D01*
X61452380Y-71952380D01*
X61547619Y-71904761D01*
X61595238Y-71857142D01*
X61642857Y-71761904D01*
X61642857Y-71666666D01*
X61595238Y-71571428D01*
X61547619Y-71523809D01*
X61452380Y-71476190D01*
X61261904Y-71428571D01*
X61166666Y-71380952D01*
X61119047Y-71333333D01*
X61071428Y-71238095D01*
X61071428Y-71142857D01*
X61119047Y-71047619D01*
X61166666Y-71000000D01*
X61261904Y-70952380D01*
X61500000Y-70952380D01*
X61642857Y-71000000D01*
X62404761Y-71428571D02*
X62547619Y-71476190D01*
X62595238Y-71523809D01*
X62642857Y-71619047D01*
X62642857Y-71761904D01*
X62595238Y-71857142D01*
X62547619Y-71904761D01*
X62452380Y-71952380D01*
X62071428Y-71952380D01*
X62071428Y-70952380D01*
X62404761Y-70952380D01*
X62500000Y-71000000D01*
X62547619Y-71047619D01*
X62595238Y-71142857D01*
X62595238Y-71238095D01*
X62547619Y-71333333D01*
X62500000Y-71380952D01*
X62404761Y-71428571D01*
X62071428Y-71428571D01*
X63595238Y-71952380D02*
X63023809Y-71952380D01*
X63309523Y-71952380D02*
X63309523Y-70952380D01*
X63214285Y-71095238D01*
X63119047Y-71190476D01*
X63023809Y-71238095D01*
%TO.C,TPVSYS1*%
X70928571Y-75952380D02*
X71500000Y-75952380D01*
X71214285Y-76952380D02*
X71214285Y-75952380D01*
X71833333Y-76952380D02*
X71833333Y-75952380D01*
X72214285Y-75952380D01*
X72309523Y-76000000D01*
X72357142Y-76047619D01*
X72404761Y-76142857D01*
X72404761Y-76285714D01*
X72357142Y-76380952D01*
X72309523Y-76428571D01*
X72214285Y-76476190D01*
X71833333Y-76476190D01*
X72690476Y-75952380D02*
X73023809Y-76952380D01*
X73357142Y-75952380D01*
X73642857Y-76904761D02*
X73785714Y-76952380D01*
X74023809Y-76952380D01*
X74119047Y-76904761D01*
X74166666Y-76857142D01*
X74214285Y-76761904D01*
X74214285Y-76666666D01*
X74166666Y-76571428D01*
X74119047Y-76523809D01*
X74023809Y-76476190D01*
X73833333Y-76428571D01*
X73738095Y-76380952D01*
X73690476Y-76333333D01*
X73642857Y-76238095D01*
X73642857Y-76142857D01*
X73690476Y-76047619D01*
X73738095Y-76000000D01*
X73833333Y-75952380D01*
X74071428Y-75952380D01*
X74214285Y-76000000D01*
X74833333Y-76476190D02*
X74833333Y-76952380D01*
X74500000Y-75952380D02*
X74833333Y-76476190D01*
X75166666Y-75952380D01*
X75452380Y-76904761D02*
X75595238Y-76952380D01*
X75833333Y-76952380D01*
X75928571Y-76904761D01*
X75976190Y-76857142D01*
X76023809Y-76761904D01*
X76023809Y-76666666D01*
X75976190Y-76571428D01*
X75928571Y-76523809D01*
X75833333Y-76476190D01*
X75642857Y-76428571D01*
X75547619Y-76380952D01*
X75500000Y-76333333D01*
X75452380Y-76238095D01*
X75452380Y-76142857D01*
X75500000Y-76047619D01*
X75547619Y-76000000D01*
X75642857Y-75952380D01*
X75880952Y-75952380D01*
X76023809Y-76000000D01*
X76976190Y-76952380D02*
X76404761Y-76952380D01*
X76690476Y-76952380D02*
X76690476Y-75952380D01*
X76595238Y-76095238D01*
X76500000Y-76190476D01*
X76404761Y-76238095D01*
%TO.C,TPISET1*%
X56690476Y-84452380D02*
X57261904Y-84452380D01*
X56976190Y-85452380D02*
X56976190Y-84452380D01*
X57595238Y-85452380D02*
X57595238Y-84452380D01*
X57976190Y-84452380D01*
X58071428Y-84500000D01*
X58119047Y-84547619D01*
X58166666Y-84642857D01*
X58166666Y-84785714D01*
X58119047Y-84880952D01*
X58071428Y-84928571D01*
X57976190Y-84976190D01*
X57595238Y-84976190D01*
X58595238Y-85452380D02*
X58595238Y-84452380D01*
X59023809Y-85404761D02*
X59166666Y-85452380D01*
X59404761Y-85452380D01*
X59500000Y-85404761D01*
X59547619Y-85357142D01*
X59595238Y-85261904D01*
X59595238Y-85166666D01*
X59547619Y-85071428D01*
X59500000Y-85023809D01*
X59404761Y-84976190D01*
X59214285Y-84928571D01*
X59119047Y-84880952D01*
X59071428Y-84833333D01*
X59023809Y-84738095D01*
X59023809Y-84642857D01*
X59071428Y-84547619D01*
X59119047Y-84500000D01*
X59214285Y-84452380D01*
X59452380Y-84452380D01*
X59595238Y-84500000D01*
X60023809Y-84928571D02*
X60357142Y-84928571D01*
X60500000Y-85452380D02*
X60023809Y-85452380D01*
X60023809Y-84452380D01*
X60500000Y-84452380D01*
X60785714Y-84452380D02*
X61357142Y-84452380D01*
X61071428Y-85452380D02*
X61071428Y-84452380D01*
X62214285Y-85452380D02*
X61642857Y-85452380D01*
X61928571Y-85452380D02*
X61928571Y-84452380D01*
X61833333Y-84595238D01*
X61738095Y-84690476D01*
X61642857Y-84738095D01*
%TO.C,TPILIM1*%
X60285714Y-67452380D02*
X60857142Y-67452380D01*
X60571428Y-68452380D02*
X60571428Y-67452380D01*
X61190476Y-68452380D02*
X61190476Y-67452380D01*
X61571428Y-67452380D01*
X61666666Y-67500000D01*
X61714285Y-67547619D01*
X61761904Y-67642857D01*
X61761904Y-67785714D01*
X61714285Y-67880952D01*
X61666666Y-67928571D01*
X61571428Y-67976190D01*
X61190476Y-67976190D01*
X62190476Y-68452380D02*
X62190476Y-67452380D01*
X63142857Y-68452380D02*
X62666666Y-68452380D01*
X62666666Y-67452380D01*
X63476190Y-68452380D02*
X63476190Y-67452380D01*
X63952380Y-68452380D02*
X63952380Y-67452380D01*
X64285714Y-68166666D01*
X64619047Y-67452380D01*
X64619047Y-68452380D01*
X65619047Y-68452380D02*
X65047619Y-68452380D01*
X65333333Y-68452380D02*
X65333333Y-67452380D01*
X65238095Y-67595238D01*
X65142857Y-67690476D01*
X65047619Y-67738095D01*
%TO.C,TPBATTRAW1*%
X121952380Y-87952380D02*
X121952380Y-87380952D01*
X122952380Y-87666666D02*
X121952380Y-87666666D01*
X122952380Y-87047619D02*
X121952380Y-87047619D01*
X121952380Y-86666666D01*
X122000000Y-86571428D01*
X122047619Y-86523809D01*
X122142857Y-86476190D01*
X122285714Y-86476190D01*
X122380952Y-86523809D01*
X122428571Y-86571428D01*
X122476190Y-86666666D01*
X122476190Y-87047619D01*
X122428571Y-85714285D02*
X122476190Y-85571428D01*
X122523809Y-85523809D01*
X122619047Y-85476190D01*
X122761904Y-85476190D01*
X122857142Y-85523809D01*
X122904761Y-85571428D01*
X122952380Y-85666666D01*
X122952380Y-86047619D01*
X121952380Y-86047619D01*
X121952380Y-85714285D01*
X122000000Y-85619047D01*
X122047619Y-85571428D01*
X122142857Y-85523809D01*
X122238095Y-85523809D01*
X122333333Y-85571428D01*
X122380952Y-85619047D01*
X122428571Y-85714285D01*
X122428571Y-86047619D01*
X122666666Y-85095238D02*
X122666666Y-84619047D01*
X122952380Y-85190476D02*
X121952380Y-84857142D01*
X122952380Y-84523809D01*
X121952380Y-84333333D02*
X121952380Y-83761904D01*
X122952380Y-84047619D02*
X121952380Y-84047619D01*
X121952380Y-83571428D02*
X121952380Y-83000000D01*
X122952380Y-83285714D02*
X121952380Y-83285714D01*
X122952380Y-82095238D02*
X122476190Y-82428571D01*
X122952380Y-82666666D02*
X121952380Y-82666666D01*
X121952380Y-82285714D01*
X122000000Y-82190476D01*
X122047619Y-82142857D01*
X122142857Y-82095238D01*
X122285714Y-82095238D01*
X122380952Y-82142857D01*
X122428571Y-82190476D01*
X122476190Y-82285714D01*
X122476190Y-82666666D01*
X122666666Y-81714285D02*
X122666666Y-81238095D01*
X122952380Y-81809523D02*
X121952380Y-81476190D01*
X122952380Y-81142857D01*
X121952380Y-80904761D02*
X122952380Y-80666666D01*
X122238095Y-80476190D01*
X122952380Y-80285714D01*
X121952380Y-80047619D01*
X122952380Y-79142857D02*
X122952380Y-79714285D01*
X122952380Y-79428571D02*
X121952380Y-79428571D01*
X122095238Y-79523809D01*
X122190476Y-79619047D01*
X122238095Y-79714285D01*
%TO.C,TP!PGOOD1*%
X74952380Y-64952380D02*
X75523809Y-64952380D01*
X75238095Y-65952380D02*
X75238095Y-64952380D01*
X75857142Y-65952380D02*
X75857142Y-64952380D01*
X76238095Y-64952380D01*
X76333333Y-65000000D01*
X76380952Y-65047619D01*
X76428571Y-65142857D01*
X76428571Y-65285714D01*
X76380952Y-65380952D01*
X76333333Y-65428571D01*
X76238095Y-65476190D01*
X75857142Y-65476190D01*
X76857142Y-65857142D02*
X76904761Y-65904761D01*
X76857142Y-65952380D01*
X76809523Y-65904761D01*
X76857142Y-65857142D01*
X76857142Y-65952380D01*
X76857142Y-65571428D02*
X76809523Y-65000000D01*
X76857142Y-64952380D01*
X76904761Y-65000000D01*
X76857142Y-65571428D01*
X76857142Y-64952380D01*
X77333333Y-65952380D02*
X77333333Y-64952380D01*
X77714285Y-64952380D01*
X77809523Y-65000000D01*
X77857142Y-65047619D01*
X77904761Y-65142857D01*
X77904761Y-65285714D01*
X77857142Y-65380952D01*
X77809523Y-65428571D01*
X77714285Y-65476190D01*
X77333333Y-65476190D01*
X78857142Y-65000000D02*
X78761904Y-64952380D01*
X78619047Y-64952380D01*
X78476190Y-65000000D01*
X78380952Y-65095238D01*
X78333333Y-65190476D01*
X78285714Y-65380952D01*
X78285714Y-65523809D01*
X78333333Y-65714285D01*
X78380952Y-65809523D01*
X78476190Y-65904761D01*
X78619047Y-65952380D01*
X78714285Y-65952380D01*
X78857142Y-65904761D01*
X78904761Y-65857142D01*
X78904761Y-65523809D01*
X78714285Y-65523809D01*
X79523809Y-64952380D02*
X79714285Y-64952380D01*
X79809523Y-65000000D01*
X79904761Y-65095238D01*
X79952380Y-65285714D01*
X79952380Y-65619047D01*
X79904761Y-65809523D01*
X79809523Y-65904761D01*
X79714285Y-65952380D01*
X79523809Y-65952380D01*
X79428571Y-65904761D01*
X79333333Y-65809523D01*
X79285714Y-65619047D01*
X79285714Y-65285714D01*
X79333333Y-65095238D01*
X79428571Y-65000000D01*
X79523809Y-64952380D01*
X80571428Y-64952380D02*
X80761904Y-64952380D01*
X80857142Y-65000000D01*
X80952380Y-65095238D01*
X81000000Y-65285714D01*
X81000000Y-65619047D01*
X80952380Y-65809523D01*
X80857142Y-65904761D01*
X80761904Y-65952380D01*
X80571428Y-65952380D01*
X80476190Y-65904761D01*
X80380952Y-65809523D01*
X80333333Y-65619047D01*
X80333333Y-65285714D01*
X80380952Y-65095238D01*
X80476190Y-65000000D01*
X80571428Y-64952380D01*
X81428571Y-65952380D02*
X81428571Y-64952380D01*
X81666666Y-64952380D01*
X81809523Y-65000000D01*
X81904761Y-65095238D01*
X81952380Y-65190476D01*
X82000000Y-65380952D01*
X82000000Y-65523809D01*
X81952380Y-65714285D01*
X81904761Y-65809523D01*
X81809523Y-65904761D01*
X81666666Y-65952380D01*
X81428571Y-65952380D01*
X82952380Y-65952380D02*
X82380952Y-65952380D01*
X82666666Y-65952380D02*
X82666666Y-64952380D01*
X82571428Y-65095238D01*
X82476190Y-65190476D01*
X82380952Y-65238095D01*
%TO.C,TP!CHG1*%
X63976190Y-63952380D02*
X64547619Y-63952380D01*
X64261904Y-64952380D02*
X64261904Y-63952380D01*
X64880952Y-64952380D02*
X64880952Y-63952380D01*
X65261904Y-63952380D01*
X65357142Y-64000000D01*
X65404761Y-64047619D01*
X65452380Y-64142857D01*
X65452380Y-64285714D01*
X65404761Y-64380952D01*
X65357142Y-64428571D01*
X65261904Y-64476190D01*
X64880952Y-64476190D01*
X65880952Y-64857142D02*
X65928571Y-64904761D01*
X65880952Y-64952380D01*
X65833333Y-64904761D01*
X65880952Y-64857142D01*
X65880952Y-64952380D01*
X65880952Y-64571428D02*
X65833333Y-64000000D01*
X65880952Y-63952380D01*
X65928571Y-64000000D01*
X65880952Y-64571428D01*
X65880952Y-63952380D01*
X66928571Y-64857142D02*
X66880952Y-64904761D01*
X66738095Y-64952380D01*
X66642857Y-64952380D01*
X66500000Y-64904761D01*
X66404761Y-64809523D01*
X66357142Y-64714285D01*
X66309523Y-64523809D01*
X66309523Y-64380952D01*
X66357142Y-64190476D01*
X66404761Y-64095238D01*
X66500000Y-64000000D01*
X66642857Y-63952380D01*
X66738095Y-63952380D01*
X66880952Y-64000000D01*
X66928571Y-64047619D01*
X67357142Y-64952380D02*
X67357142Y-63952380D01*
X67357142Y-64428571D02*
X67928571Y-64428571D01*
X67928571Y-64952380D02*
X67928571Y-63952380D01*
X68928571Y-64000000D02*
X68833333Y-63952380D01*
X68690476Y-63952380D01*
X68547619Y-64000000D01*
X68452380Y-64095238D01*
X68404761Y-64190476D01*
X68357142Y-64380952D01*
X68357142Y-64523809D01*
X68404761Y-64714285D01*
X68452380Y-64809523D01*
X68547619Y-64904761D01*
X68690476Y-64952380D01*
X68785714Y-64952380D01*
X68928571Y-64904761D01*
X68976190Y-64857142D01*
X68976190Y-64523809D01*
X68785714Y-64523809D01*
X69928571Y-64952380D02*
X69357142Y-64952380D01*
X69642857Y-64952380D02*
X69642857Y-63952380D01*
X69547619Y-64095238D01*
X69452380Y-64190476D01*
X69357142Y-64238095D01*
%TO.C,MOD1*%
X88276666Y-65752380D02*
X88276666Y-64752380D01*
X88610000Y-65466666D01*
X88943333Y-64752380D01*
X88943333Y-65752380D01*
X89610000Y-64752380D02*
X89800476Y-64752380D01*
X89895714Y-64800000D01*
X89990952Y-64895238D01*
X90038571Y-65085714D01*
X90038571Y-65419047D01*
X89990952Y-65609523D01*
X89895714Y-65704761D01*
X89800476Y-65752380D01*
X89610000Y-65752380D01*
X89514761Y-65704761D01*
X89419523Y-65609523D01*
X89371904Y-65419047D01*
X89371904Y-65085714D01*
X89419523Y-64895238D01*
X89514761Y-64800000D01*
X89610000Y-64752380D01*
X90467142Y-65752380D02*
X90467142Y-64752380D01*
X90705238Y-64752380D01*
X90848095Y-64800000D01*
X90943333Y-64895238D01*
X90990952Y-64990476D01*
X91038571Y-65180952D01*
X91038571Y-65323809D01*
X90990952Y-65514285D01*
X90943333Y-65609523D01*
X90848095Y-65704761D01*
X90705238Y-65752380D01*
X90467142Y-65752380D01*
X91990952Y-65752380D02*
X91419523Y-65752380D01*
X91705238Y-65752380D02*
X91705238Y-64752380D01*
X91610000Y-64895238D01*
X91514761Y-64990476D01*
X91419523Y-65038095D01*
X112208095Y-82580000D02*
X112112857Y-82532380D01*
X111970000Y-82532380D01*
X111827142Y-82580000D01*
X111731904Y-82675238D01*
X111684285Y-82770476D01*
X111636666Y-82960952D01*
X111636666Y-83103809D01*
X111684285Y-83294285D01*
X111731904Y-83389523D01*
X111827142Y-83484761D01*
X111970000Y-83532380D01*
X112065238Y-83532380D01*
X112208095Y-83484761D01*
X112255714Y-83437142D01*
X112255714Y-83103809D01*
X112065238Y-83103809D01*
X112684285Y-83532380D02*
X112684285Y-82532380D01*
X113255714Y-83532380D01*
X113255714Y-82532380D01*
X113731904Y-83532380D02*
X113731904Y-82532380D01*
X113970000Y-82532380D01*
X114112857Y-82580000D01*
X114208095Y-82675238D01*
X114255714Y-82770476D01*
X114303333Y-82960952D01*
X114303333Y-83103809D01*
X114255714Y-83294285D01*
X114208095Y-83389523D01*
X114112857Y-83484761D01*
X113970000Y-83532380D01*
X113731904Y-83532380D01*
X83934761Y-72372380D02*
X84268095Y-73372380D01*
X84601428Y-72372380D01*
X84934761Y-73372380D02*
X84934761Y-72372380D01*
X85410952Y-73372380D02*
X85410952Y-72372380D01*
X85982380Y-73372380D01*
X85982380Y-72372380D01*
X84268095Y-82580000D02*
X84172857Y-82532380D01*
X84030000Y-82532380D01*
X83887142Y-82580000D01*
X83791904Y-82675238D01*
X83744285Y-82770476D01*
X83696666Y-82960952D01*
X83696666Y-83103809D01*
X83744285Y-83294285D01*
X83791904Y-83389523D01*
X83887142Y-83484761D01*
X84030000Y-83532380D01*
X84125238Y-83532380D01*
X84268095Y-83484761D01*
X84315714Y-83437142D01*
X84315714Y-83103809D01*
X84125238Y-83103809D01*
X84744285Y-83532380D02*
X84744285Y-82532380D01*
X85315714Y-83532380D01*
X85315714Y-82532380D01*
X85791904Y-83532380D02*
X85791904Y-82532380D01*
X86030000Y-82532380D01*
X86172857Y-82580000D01*
X86268095Y-82675238D01*
X86315714Y-82770476D01*
X86363333Y-82960952D01*
X86363333Y-83103809D01*
X86315714Y-83294285D01*
X86268095Y-83389523D01*
X86172857Y-83484761D01*
X86030000Y-83532380D01*
X85791904Y-83532380D01*
X109938095Y-72372380D02*
X110271428Y-73372380D01*
X110604761Y-72372380D01*
X111128571Y-72372380D02*
X111319047Y-72372380D01*
X111414285Y-72420000D01*
X111509523Y-72515238D01*
X111557142Y-72705714D01*
X111557142Y-73039047D01*
X111509523Y-73229523D01*
X111414285Y-73324761D01*
X111319047Y-73372380D01*
X111128571Y-73372380D01*
X111033333Y-73324761D01*
X110938095Y-73229523D01*
X110890476Y-73039047D01*
X110890476Y-72705714D01*
X110938095Y-72515238D01*
X111033333Y-72420000D01*
X111128571Y-72372380D01*
X111985714Y-72372380D02*
X111985714Y-73181904D01*
X112033333Y-73277142D01*
X112080952Y-73324761D01*
X112176190Y-73372380D01*
X112366666Y-73372380D01*
X112461904Y-73324761D01*
X112509523Y-73277142D01*
X112557142Y-73181904D01*
X112557142Y-72372380D01*
X112890476Y-72372380D02*
X113461904Y-72372380D01*
X113176190Y-73372380D02*
X113176190Y-72372380D01*
%TO.C,U1*%
X108242380Y-43761904D02*
X109051904Y-43761904D01*
X109147142Y-43714285D01*
X109194761Y-43666666D01*
X109242380Y-43571428D01*
X109242380Y-43380952D01*
X109194761Y-43285714D01*
X109147142Y-43238095D01*
X109051904Y-43190476D01*
X108242380Y-43190476D01*
X109242380Y-42190476D02*
X109242380Y-42761904D01*
X109242380Y-42476190D02*
X108242380Y-42476190D01*
X108385238Y-42571428D01*
X108480476Y-42666666D01*
X108528095Y-42761904D01*
%TO.C,R8*%
X72833333Y-71302380D02*
X72500000Y-70826190D01*
X72261904Y-71302380D02*
X72261904Y-70302380D01*
X72642857Y-70302380D01*
X72738095Y-70350000D01*
X72785714Y-70397619D01*
X72833333Y-70492857D01*
X72833333Y-70635714D01*
X72785714Y-70730952D01*
X72738095Y-70778571D01*
X72642857Y-70826190D01*
X72261904Y-70826190D01*
X73404761Y-70730952D02*
X73309523Y-70683333D01*
X73261904Y-70635714D01*
X73214285Y-70540476D01*
X73214285Y-70492857D01*
X73261904Y-70397619D01*
X73309523Y-70350000D01*
X73404761Y-70302380D01*
X73595238Y-70302380D01*
X73690476Y-70350000D01*
X73738095Y-70397619D01*
X73785714Y-70492857D01*
X73785714Y-70540476D01*
X73738095Y-70635714D01*
X73690476Y-70683333D01*
X73595238Y-70730952D01*
X73404761Y-70730952D01*
X73309523Y-70778571D01*
X73261904Y-70826190D01*
X73214285Y-70921428D01*
X73214285Y-71111904D01*
X73261904Y-71207142D01*
X73309523Y-71254761D01*
X73404761Y-71302380D01*
X73595238Y-71302380D01*
X73690476Y-71254761D01*
X73738095Y-71207142D01*
X73785714Y-71111904D01*
X73785714Y-70921428D01*
X73738095Y-70826190D01*
X73690476Y-70778571D01*
X73595238Y-70730952D01*
%TO.C,U4*%
X63988095Y-74702380D02*
X63988095Y-75511904D01*
X64035714Y-75607142D01*
X64083333Y-75654761D01*
X64178571Y-75702380D01*
X64369047Y-75702380D01*
X64464285Y-75654761D01*
X64511904Y-75607142D01*
X64559523Y-75511904D01*
X64559523Y-74702380D01*
X65464285Y-75035714D02*
X65464285Y-75702380D01*
X65226190Y-74654761D02*
X64988095Y-75369047D01*
X65607142Y-75369047D01*
%TO.C,C1*%
X143933333Y-52228142D02*
X143885714Y-52275761D01*
X143742857Y-52323380D01*
X143647619Y-52323380D01*
X143504761Y-52275761D01*
X143409523Y-52180523D01*
X143361904Y-52085285D01*
X143314285Y-51894809D01*
X143314285Y-51751952D01*
X143361904Y-51561476D01*
X143409523Y-51466238D01*
X143504761Y-51371000D01*
X143647619Y-51323380D01*
X143742857Y-51323380D01*
X143885714Y-51371000D01*
X143933333Y-51418619D01*
X144885714Y-52323380D02*
X144314285Y-52323380D01*
X144600000Y-52323380D02*
X144600000Y-51323380D01*
X144504761Y-51466238D01*
X144409523Y-51561476D01*
X144314285Y-51609095D01*
%TO.C,C4*%
X126083333Y-52357142D02*
X126035714Y-52404761D01*
X125892857Y-52452380D01*
X125797619Y-52452380D01*
X125654761Y-52404761D01*
X125559523Y-52309523D01*
X125511904Y-52214285D01*
X125464285Y-52023809D01*
X125464285Y-51880952D01*
X125511904Y-51690476D01*
X125559523Y-51595238D01*
X125654761Y-51500000D01*
X125797619Y-51452380D01*
X125892857Y-51452380D01*
X126035714Y-51500000D01*
X126083333Y-51547619D01*
X126940476Y-51785714D02*
X126940476Y-52452380D01*
X126702380Y-51404761D02*
X126464285Y-52119047D01*
X127083333Y-52119047D01*
%TO.C,Q1*%
X139154761Y-40547619D02*
X139059523Y-40500000D01*
X138964285Y-40404761D01*
X138821428Y-40261904D01*
X138726190Y-40214285D01*
X138630952Y-40214285D01*
X138678571Y-40452380D02*
X138583333Y-40404761D01*
X138488095Y-40309523D01*
X138440476Y-40119047D01*
X138440476Y-39785714D01*
X138488095Y-39595238D01*
X138583333Y-39500000D01*
X138678571Y-39452380D01*
X138869047Y-39452380D01*
X138964285Y-39500000D01*
X139059523Y-39595238D01*
X139107142Y-39785714D01*
X139107142Y-40119047D01*
X139059523Y-40309523D01*
X138964285Y-40404761D01*
X138869047Y-40452380D01*
X138678571Y-40452380D01*
X140059523Y-40452380D02*
X139488095Y-40452380D01*
X139773809Y-40452380D02*
X139773809Y-39452380D01*
X139678571Y-39595238D01*
X139583333Y-39690476D01*
X139488095Y-39738095D01*
%TO.C,R7*%
X69333333Y-67802380D02*
X69000000Y-67326190D01*
X68761904Y-67802380D02*
X68761904Y-66802380D01*
X69142857Y-66802380D01*
X69238095Y-66850000D01*
X69285714Y-66897619D01*
X69333333Y-66992857D01*
X69333333Y-67135714D01*
X69285714Y-67230952D01*
X69238095Y-67278571D01*
X69142857Y-67326190D01*
X68761904Y-67326190D01*
X69666666Y-66802380D02*
X70333333Y-66802380D01*
X69904761Y-67802380D01*
%TO.C,J1*%
X54416666Y-83202380D02*
X54416666Y-83916666D01*
X54369047Y-84059523D01*
X54273809Y-84154761D01*
X54130952Y-84202380D01*
X54035714Y-84202380D01*
X55416666Y-84202380D02*
X54845238Y-84202380D01*
X55130952Y-84202380D02*
X55130952Y-83202380D01*
X55035714Y-83345238D01*
X54940476Y-83440476D01*
X54845238Y-83488095D01*
%TO.C,R10*%
X143107142Y-40452380D02*
X142773809Y-39976190D01*
X142535714Y-40452380D02*
X142535714Y-39452380D01*
X142916666Y-39452380D01*
X143011904Y-39500000D01*
X143059523Y-39547619D01*
X143107142Y-39642857D01*
X143107142Y-39785714D01*
X143059523Y-39880952D01*
X143011904Y-39928571D01*
X142916666Y-39976190D01*
X142535714Y-39976190D01*
X144059523Y-40452380D02*
X143488095Y-40452380D01*
X143773809Y-40452380D02*
X143773809Y-39452380D01*
X143678571Y-39595238D01*
X143583333Y-39690476D01*
X143488095Y-39738095D01*
X144678571Y-39452380D02*
X144773809Y-39452380D01*
X144869047Y-39500000D01*
X144916666Y-39547619D01*
X144964285Y-39642857D01*
X145011904Y-39833333D01*
X145011904Y-40071428D01*
X144964285Y-40261904D01*
X144916666Y-40357142D01*
X144869047Y-40404761D01*
X144773809Y-40452380D01*
X144678571Y-40452380D01*
X144583333Y-40404761D01*
X144535714Y-40357142D01*
X144488095Y-40261904D01*
X144440476Y-40071428D01*
X144440476Y-39833333D01*
X144488095Y-39642857D01*
X144535714Y-39547619D01*
X144583333Y-39500000D01*
X144678571Y-39452380D01*
%TO.C,C5*%
X126083333Y-54857142D02*
X126035714Y-54904761D01*
X125892857Y-54952380D01*
X125797619Y-54952380D01*
X125654761Y-54904761D01*
X125559523Y-54809523D01*
X125511904Y-54714285D01*
X125464285Y-54523809D01*
X125464285Y-54380952D01*
X125511904Y-54190476D01*
X125559523Y-54095238D01*
X125654761Y-54000000D01*
X125797619Y-53952380D01*
X125892857Y-53952380D01*
X126035714Y-54000000D01*
X126083333Y-54047619D01*
X126988095Y-53952380D02*
X126511904Y-53952380D01*
X126464285Y-54428571D01*
X126511904Y-54380952D01*
X126607142Y-54333333D01*
X126845238Y-54333333D01*
X126940476Y-54380952D01*
X126988095Y-54428571D01*
X127035714Y-54523809D01*
X127035714Y-54761904D01*
X126988095Y-54857142D01*
X126940476Y-54904761D01*
X126845238Y-54952380D01*
X126607142Y-54952380D01*
X126511904Y-54904761D01*
X126464285Y-54857142D01*
%TO.C,R1*%
X63333333Y-77302380D02*
X63000000Y-76826190D01*
X62761904Y-77302380D02*
X62761904Y-76302380D01*
X63142857Y-76302380D01*
X63238095Y-76350000D01*
X63285714Y-76397619D01*
X63333333Y-76492857D01*
X63333333Y-76635714D01*
X63285714Y-76730952D01*
X63238095Y-76778571D01*
X63142857Y-76826190D01*
X62761904Y-76826190D01*
X64285714Y-77302380D02*
X63714285Y-77302380D01*
X64000000Y-77302380D02*
X64000000Y-76302380D01*
X63904761Y-76445238D01*
X63809523Y-76540476D01*
X63714285Y-76588095D01*
%TO.C,R3*%
X64452380Y-87166666D02*
X63976190Y-87500000D01*
X64452380Y-87738095D02*
X63452380Y-87738095D01*
X63452380Y-87357142D01*
X63500000Y-87261904D01*
X63547619Y-87214285D01*
X63642857Y-87166666D01*
X63785714Y-87166666D01*
X63880952Y-87214285D01*
X63928571Y-87261904D01*
X63976190Y-87357142D01*
X63976190Y-87738095D01*
X63452380Y-86833333D02*
X63452380Y-86214285D01*
X63833333Y-86547619D01*
X63833333Y-86404761D01*
X63880952Y-86309523D01*
X63928571Y-86261904D01*
X64023809Y-86214285D01*
X64261904Y-86214285D01*
X64357142Y-86261904D01*
X64404761Y-86309523D01*
X64452380Y-86404761D01*
X64452380Y-86690476D01*
X64404761Y-86785714D01*
X64357142Y-86833333D01*
%TO.C,C2*%
X135583333Y-46607142D02*
X135535714Y-46654761D01*
X135392857Y-46702380D01*
X135297619Y-46702380D01*
X135154761Y-46654761D01*
X135059523Y-46559523D01*
X135011904Y-46464285D01*
X134964285Y-46273809D01*
X134964285Y-46130952D01*
X135011904Y-45940476D01*
X135059523Y-45845238D01*
X135154761Y-45750000D01*
X135297619Y-45702380D01*
X135392857Y-45702380D01*
X135535714Y-45750000D01*
X135583333Y-45797619D01*
X135964285Y-45797619D02*
X136011904Y-45750000D01*
X136107142Y-45702380D01*
X136345238Y-45702380D01*
X136440476Y-45750000D01*
X136488095Y-45797619D01*
X136535714Y-45892857D01*
X136535714Y-45988095D01*
X136488095Y-46130952D01*
X135916666Y-46702380D01*
X136535714Y-46702380D01*
%TO.C,U2*%
X61738095Y-40952380D02*
X61738095Y-41761904D01*
X61785714Y-41857142D01*
X61833333Y-41904761D01*
X61928571Y-41952380D01*
X62119047Y-41952380D01*
X62214285Y-41904761D01*
X62261904Y-41857142D01*
X62309523Y-41761904D01*
X62309523Y-40952380D01*
X62738095Y-41047619D02*
X62785714Y-41000000D01*
X62880952Y-40952380D01*
X63119047Y-40952380D01*
X63214285Y-41000000D01*
X63261904Y-41047619D01*
X63309523Y-41142857D01*
X63309523Y-41238095D01*
X63261904Y-41380952D01*
X62690476Y-41952380D01*
X63309523Y-41952380D01*
%TO.C,J2*%
X70666666Y-85202380D02*
X70666666Y-85916666D01*
X70619047Y-86059523D01*
X70523809Y-86154761D01*
X70380952Y-86202380D01*
X70285714Y-86202380D01*
X71095238Y-85297619D02*
X71142857Y-85250000D01*
X71238095Y-85202380D01*
X71476190Y-85202380D01*
X71571428Y-85250000D01*
X71619047Y-85297619D01*
X71666666Y-85392857D01*
X71666666Y-85488095D01*
X71619047Y-85630952D01*
X71047619Y-86202380D01*
X71666666Y-86202380D01*
%TO.C,R11*%
X131857142Y-46702380D02*
X131523809Y-46226190D01*
X131285714Y-46702380D02*
X131285714Y-45702380D01*
X131666666Y-45702380D01*
X131761904Y-45750000D01*
X131809523Y-45797619D01*
X131857142Y-45892857D01*
X131857142Y-46035714D01*
X131809523Y-46130952D01*
X131761904Y-46178571D01*
X131666666Y-46226190D01*
X131285714Y-46226190D01*
X132809523Y-46702380D02*
X132238095Y-46702380D01*
X132523809Y-46702380D02*
X132523809Y-45702380D01*
X132428571Y-45845238D01*
X132333333Y-45940476D01*
X132238095Y-45988095D01*
X133761904Y-46702380D02*
X133190476Y-46702380D01*
X133476190Y-46702380D02*
X133476190Y-45702380D01*
X133380952Y-45845238D01*
X133285714Y-45940476D01*
X133190476Y-45988095D01*
%TO.C,U6*%
X139111904Y-60052619D02*
X139111904Y-59243095D01*
X139064285Y-59147857D01*
X139016666Y-59100238D01*
X138921428Y-59052619D01*
X138730952Y-59052619D01*
X138635714Y-59100238D01*
X138588095Y-59147857D01*
X138540476Y-59243095D01*
X138540476Y-60052619D01*
X137635714Y-60052619D02*
X137826190Y-60052619D01*
X137921428Y-60005000D01*
X137969047Y-59957380D01*
X138064285Y-59814523D01*
X138111904Y-59624047D01*
X138111904Y-59243095D01*
X138064285Y-59147857D01*
X138016666Y-59100238D01*
X137921428Y-59052619D01*
X137730952Y-59052619D01*
X137635714Y-59100238D01*
X137588095Y-59147857D01*
X137540476Y-59243095D01*
X137540476Y-59481190D01*
X137588095Y-59576428D01*
X137635714Y-59624047D01*
X137730952Y-59671666D01*
X137921428Y-59671666D01*
X138016666Y-59624047D01*
X138064285Y-59576428D01*
X138111904Y-59481190D01*
%TO.C,R5*%
X67452380Y-87166666D02*
X66976190Y-87500000D01*
X67452380Y-87738095D02*
X66452380Y-87738095D01*
X66452380Y-87357142D01*
X66500000Y-87261904D01*
X66547619Y-87214285D01*
X66642857Y-87166666D01*
X66785714Y-87166666D01*
X66880952Y-87214285D01*
X66928571Y-87261904D01*
X66976190Y-87357142D01*
X66976190Y-87738095D01*
X66452380Y-86261904D02*
X66452380Y-86738095D01*
X66928571Y-86785714D01*
X66880952Y-86738095D01*
X66833333Y-86642857D01*
X66833333Y-86404761D01*
X66880952Y-86309523D01*
X66928571Y-86261904D01*
X67023809Y-86214285D01*
X67261904Y-86214285D01*
X67357142Y-86261904D01*
X67404761Y-86309523D01*
X67452380Y-86404761D01*
X67452380Y-86642857D01*
X67404761Y-86738095D01*
X67357142Y-86785714D01*
%TO.C,R4*%
X114833333Y-57302380D02*
X114500000Y-56826190D01*
X114261904Y-57302380D02*
X114261904Y-56302380D01*
X114642857Y-56302380D01*
X114738095Y-56350000D01*
X114785714Y-56397619D01*
X114833333Y-56492857D01*
X114833333Y-56635714D01*
X114785714Y-56730952D01*
X114738095Y-56778571D01*
X114642857Y-56826190D01*
X114261904Y-56826190D01*
X115690476Y-56635714D02*
X115690476Y-57302380D01*
X115452380Y-56254761D02*
X115214285Y-56969047D01*
X115833333Y-56969047D01*
%TO.C,R9*%
X136083333Y-40452380D02*
X135750000Y-39976190D01*
X135511904Y-40452380D02*
X135511904Y-39452380D01*
X135892857Y-39452380D01*
X135988095Y-39500000D01*
X136035714Y-39547619D01*
X136083333Y-39642857D01*
X136083333Y-39785714D01*
X136035714Y-39880952D01*
X135988095Y-39928571D01*
X135892857Y-39976190D01*
X135511904Y-39976190D01*
X136559523Y-40452380D02*
X136750000Y-40452380D01*
X136845238Y-40404761D01*
X136892857Y-40357142D01*
X136988095Y-40214285D01*
X137035714Y-40023809D01*
X137035714Y-39642857D01*
X136988095Y-39547619D01*
X136940476Y-39500000D01*
X136845238Y-39452380D01*
X136654761Y-39452380D01*
X136559523Y-39500000D01*
X136511904Y-39547619D01*
X136464285Y-39642857D01*
X136464285Y-39880952D01*
X136511904Y-39976190D01*
X136559523Y-40023809D01*
X136654761Y-40071428D01*
X136845238Y-40071428D01*
X136940476Y-40023809D01*
X136988095Y-39976190D01*
X137035714Y-39880952D01*
%TO.C,C3*%
X139933333Y-52228142D02*
X139885714Y-52275761D01*
X139742857Y-52323380D01*
X139647619Y-52323380D01*
X139504761Y-52275761D01*
X139409523Y-52180523D01*
X139361904Y-52085285D01*
X139314285Y-51894809D01*
X139314285Y-51751952D01*
X139361904Y-51561476D01*
X139409523Y-51466238D01*
X139504761Y-51371000D01*
X139647619Y-51323380D01*
X139742857Y-51323380D01*
X139885714Y-51371000D01*
X139933333Y-51418619D01*
X140266666Y-51323380D02*
X140885714Y-51323380D01*
X140552380Y-51704333D01*
X140695238Y-51704333D01*
X140790476Y-51751952D01*
X140838095Y-51799571D01*
X140885714Y-51894809D01*
X140885714Y-52132904D01*
X140838095Y-52228142D01*
X140790476Y-52275761D01*
X140695238Y-52323380D01*
X140409523Y-52323380D01*
X140314285Y-52275761D01*
X140266666Y-52228142D01*
%TO.C,R6*%
X114833333Y-63202380D02*
X114500000Y-62726190D01*
X114261904Y-63202380D02*
X114261904Y-62202380D01*
X114642857Y-62202380D01*
X114738095Y-62250000D01*
X114785714Y-62297619D01*
X114833333Y-62392857D01*
X114833333Y-62535714D01*
X114785714Y-62630952D01*
X114738095Y-62678571D01*
X114642857Y-62726190D01*
X114261904Y-62726190D01*
X115690476Y-62202380D02*
X115500000Y-62202380D01*
X115404761Y-62250000D01*
X115357142Y-62297619D01*
X115261904Y-62440476D01*
X115214285Y-62630952D01*
X115214285Y-63011904D01*
X115261904Y-63107142D01*
X115309523Y-63154761D01*
X115404761Y-63202380D01*
X115595238Y-63202380D01*
X115690476Y-63154761D01*
X115738095Y-63107142D01*
X115785714Y-63011904D01*
X115785714Y-62773809D01*
X115738095Y-62678571D01*
X115690476Y-62630952D01*
X115595238Y-62583333D01*
X115404761Y-62583333D01*
X115309523Y-62630952D01*
X115261904Y-62678571D01*
X115214285Y-62773809D01*
%TO.C,Q2*%
X143154761Y-46047619D02*
X143059523Y-46000000D01*
X142964285Y-45904761D01*
X142821428Y-45761904D01*
X142726190Y-45714285D01*
X142630952Y-45714285D01*
X142678571Y-45952380D02*
X142583333Y-45904761D01*
X142488095Y-45809523D01*
X142440476Y-45619047D01*
X142440476Y-45285714D01*
X142488095Y-45095238D01*
X142583333Y-45000000D01*
X142678571Y-44952380D01*
X142869047Y-44952380D01*
X142964285Y-45000000D01*
X143059523Y-45095238D01*
X143107142Y-45285714D01*
X143107142Y-45619047D01*
X143059523Y-45809523D01*
X142964285Y-45904761D01*
X142869047Y-45952380D01*
X142678571Y-45952380D01*
X143488095Y-45047619D02*
X143535714Y-45000000D01*
X143630952Y-44952380D01*
X143869047Y-44952380D01*
X143964285Y-45000000D01*
X144011904Y-45047619D01*
X144059523Y-45142857D01*
X144059523Y-45238095D01*
X144011904Y-45380952D01*
X143440476Y-45952380D01*
X144059523Y-45952380D01*
%TO.C,U3*%
X82738095Y-41202380D02*
X82738095Y-42011904D01*
X82785714Y-42107142D01*
X82833333Y-42154761D01*
X82928571Y-42202380D01*
X83119047Y-42202380D01*
X83214285Y-42154761D01*
X83261904Y-42107142D01*
X83309523Y-42011904D01*
X83309523Y-41202380D01*
X83690476Y-41202380D02*
X84309523Y-41202380D01*
X83976190Y-41583333D01*
X84119047Y-41583333D01*
X84214285Y-41630952D01*
X84261904Y-41678571D01*
X84309523Y-41773809D01*
X84309523Y-42011904D01*
X84261904Y-42107142D01*
X84214285Y-42154761D01*
X84119047Y-42202380D01*
X83833333Y-42202380D01*
X83738095Y-42154761D01*
X83690476Y-42107142D01*
%TO.C,R2*%
X64833333Y-72452380D02*
X64500000Y-71976190D01*
X64261904Y-72452380D02*
X64261904Y-71452380D01*
X64642857Y-71452380D01*
X64738095Y-71500000D01*
X64785714Y-71547619D01*
X64833333Y-71642857D01*
X64833333Y-71785714D01*
X64785714Y-71880952D01*
X64738095Y-71928571D01*
X64642857Y-71976190D01*
X64261904Y-71976190D01*
X65214285Y-71547619D02*
X65261904Y-71500000D01*
X65357142Y-71452380D01*
X65595238Y-71452380D01*
X65690476Y-71500000D01*
X65738095Y-71547619D01*
X65785714Y-71642857D01*
X65785714Y-71738095D01*
X65738095Y-71880952D01*
X65166666Y-72452380D01*
X65785714Y-72452380D01*
%TO.C,U5*%
X108322380Y-50761904D02*
X109131904Y-50761904D01*
X109227142Y-50714285D01*
X109274761Y-50666666D01*
X109322380Y-50571428D01*
X109322380Y-50380952D01*
X109274761Y-50285714D01*
X109227142Y-50238095D01*
X109131904Y-50190476D01*
X108322380Y-50190476D01*
X108322380Y-49238095D02*
X108322380Y-49714285D01*
X108798571Y-49761904D01*
X108750952Y-49714285D01*
X108703333Y-49619047D01*
X108703333Y-49380952D01*
X108750952Y-49285714D01*
X108798571Y-49238095D01*
X108893809Y-49190476D01*
X109131904Y-49190476D01*
X109227142Y-49238095D01*
X109274761Y-49285714D01*
X109322380Y-49380952D01*
X109322380Y-49619047D01*
X109274761Y-49714285D01*
X109227142Y-49761904D01*
%TO.C,TPVUSB1*%
X61900000Y-74000000D02*
G75*
G03*
X61900000Y-74000000I-1400000J0D01*
G01*
%TO.C,TPVSYS1*%
X76900000Y-79000000D02*
G75*
G03*
X76900000Y-79000000I-1400000J0D01*
G01*
%TO.C,TPISET1*%
X60900000Y-87500000D02*
G75*
G03*
X60900000Y-87500000I-1400000J0D01*
G01*
%TO.C,TPILIM1*%
X64400000Y-70500000D02*
G75*
G03*
X64400000Y-70500000I-1400000J0D01*
G01*
%TO.C,TPBATTRAW1*%
X127900000Y-84500000D02*
G75*
G03*
X127900000Y-84500000I-1400000J0D01*
G01*
%TO.C,TP!PGOOD1*%
X76900000Y-69000000D02*
G75*
G03*
X76900000Y-69000000I-1400000J0D01*
G01*
%TO.C,TP!CHG1*%
X73400000Y-64500000D02*
G75*
G03*
X73400000Y-64500000I-1400000J0D01*
G01*
%TO.C,MOD1*%
X77410000Y-89430000D02*
X77410000Y-66570000D01*
X120590000Y-66570000D02*
X120590000Y-89430000D01*
X77410000Y-89430000D02*
X120590000Y-89430000D01*
X77410000Y-66570000D02*
X120590000Y-66570000D01*
D12*
%TO.C,U1*%
X112390000Y-44330000D02*
X120070000Y-44330000D01*
X111120000Y-44330000D02*
X109790000Y-44330000D01*
X112390000Y-41670000D02*
X120070000Y-41670000D01*
X109790000Y-44330000D02*
X109790000Y-43000000D01*
X112390000Y-44330000D02*
X112390000Y-41670000D01*
X120070000Y-44330000D02*
X120070000Y-41670000D01*
%TO.C,R8*%
X72772936Y-73235000D02*
X73227064Y-73235000D01*
X72772936Y-71765000D02*
X73227064Y-71765000D01*
%TO.C,U4*%
X66390000Y-79135000D02*
X66390000Y-79610000D01*
X66390000Y-76865000D02*
X66390000Y-76390000D01*
X66390000Y-76390000D02*
X66865000Y-76390000D01*
X69610000Y-79135000D02*
X69610000Y-79610000D01*
X69610000Y-76865000D02*
X69610000Y-76390000D01*
X69610000Y-79610000D02*
X69135000Y-79610000D01*
X69610000Y-76390000D02*
X69135000Y-76390000D01*
%TO.C,C1*%
X144361252Y-50926000D02*
X143838748Y-50926000D01*
X144361252Y-49456000D02*
X143838748Y-49456000D01*
%TO.C,C4*%
X130361252Y-52660000D02*
X129838748Y-52660000D01*
X130361252Y-51190000D02*
X129838748Y-51190000D01*
%TO.C,J5*%
X57330000Y-47850000D02*
X54670000Y-47850000D01*
X57330000Y-56800000D02*
X57330000Y-58130000D01*
X57330000Y-55530000D02*
X54670000Y-55530000D01*
X54670000Y-55530000D02*
X54670000Y-47850000D01*
X57330000Y-58130000D02*
X56000000Y-58130000D01*
X57330000Y-55530000D02*
X57330000Y-47850000D01*
%TO.C,Q1*%
X140000000Y-42825000D02*
X138700000Y-42825000D01*
X138350000Y-41025000D02*
X140000000Y-41025000D01*
%TO.C,J4*%
X57330000Y-59850000D02*
X54670000Y-59850000D01*
X54670000Y-67530000D02*
X54670000Y-59850000D01*
X57330000Y-67530000D02*
X54670000Y-67530000D01*
X57330000Y-68800000D02*
X57330000Y-70130000D01*
X57330000Y-70130000D02*
X56000000Y-70130000D01*
X57330000Y-67530000D02*
X57330000Y-59850000D01*
%TO.C,J3*%
X57330000Y-43730000D02*
X57330000Y-46330000D01*
X54670000Y-41130000D02*
X56000000Y-41130000D01*
X54670000Y-43730000D02*
X54670000Y-46330000D01*
X54670000Y-43730000D02*
X57330000Y-43730000D01*
X54670000Y-46330000D02*
X57330000Y-46330000D01*
X54670000Y-42460000D02*
X54670000Y-41130000D01*
%TO.C,R7*%
X69272936Y-69735000D02*
X69727064Y-69735000D01*
X69272936Y-68265000D02*
X69727064Y-68265000D01*
%TO.C,J1*%
X55430000Y-74490000D02*
X57410000Y-74490000D01*
X58090000Y-76940000D02*
X58090000Y-76490000D01*
X53060000Y-74490000D02*
X53460000Y-74490000D01*
X57410000Y-82010000D02*
X57410000Y-81590000D01*
X53460000Y-82010000D02*
X53060000Y-82010000D01*
X57410000Y-74490000D02*
X57410000Y-74910000D01*
X57640000Y-76490000D02*
X58090000Y-76490000D01*
X55430000Y-82010000D02*
X57410000Y-82010000D01*
%TO.C,R10*%
X144085000Y-42902064D02*
X144085000Y-42447936D01*
X142615000Y-42902064D02*
X142615000Y-42447936D01*
%TO.C,C5*%
X130361252Y-53690000D02*
X129838748Y-53690000D01*
X130361252Y-55160000D02*
X129838748Y-55160000D01*
%TO.C,R1*%
X63272936Y-79235000D02*
X63727064Y-79235000D01*
X63272936Y-77765000D02*
X63727064Y-77765000D01*
%TO.C,R3*%
X63265000Y-83227064D02*
X63265000Y-82772936D01*
X64735000Y-83227064D02*
X64735000Y-82772936D01*
%TO.C,C2*%
X136585000Y-50436252D02*
X136585000Y-49913748D01*
X135115000Y-50436252D02*
X135115000Y-49913748D01*
D10*
%TO.C,U2*%
X61110000Y-40522500D02*
X78890000Y-40522500D01*
X78890000Y-40522500D02*
X78890000Y-61477500D01*
X78890000Y-61477500D02*
X61110000Y-61477500D01*
X61110000Y-61477500D02*
X61110000Y-40522500D01*
D12*
%TO.C,J2*%
X74870000Y-84330000D02*
X74870000Y-81670000D01*
X72270000Y-84330000D02*
X72270000Y-81670000D01*
X71000000Y-84330000D02*
X69670000Y-84330000D01*
X72270000Y-81670000D02*
X74870000Y-81670000D01*
X72270000Y-84330000D02*
X74870000Y-84330000D01*
X69670000Y-84330000D02*
X69670000Y-83000000D01*
%TO.C,R11*%
X132615000Y-50402064D02*
X132615000Y-49947936D01*
X134085000Y-50402064D02*
X134085000Y-49947936D01*
D10*
%TO.C,U6*%
X144446000Y-53409000D02*
X132254000Y-53409000D01*
X132254000Y-53409000D02*
X132254000Y-57473000D01*
X132254000Y-57473000D02*
X144446000Y-57473000D01*
X144446000Y-57473000D02*
X144446000Y-53409000D01*
D12*
%TO.C,R5*%
X67735000Y-83227064D02*
X67735000Y-82772936D01*
X66265000Y-83227064D02*
X66265000Y-82772936D01*
%TO.C,R4*%
X114772936Y-59235000D02*
X115227064Y-59235000D01*
X114772936Y-57765000D02*
X115227064Y-57765000D01*
%TO.C,R9*%
X135615000Y-42652064D02*
X135615000Y-42197936D01*
X137085000Y-42652064D02*
X137085000Y-42197936D01*
%TO.C,C3*%
X140361252Y-49456000D02*
X139838748Y-49456000D01*
X140361252Y-50926000D02*
X139838748Y-50926000D01*
%TO.C,R6*%
X114772936Y-60265000D02*
X115227064Y-60265000D01*
X114772936Y-61735000D02*
X115227064Y-61735000D01*
%TO.C,Q2*%
X140100000Y-48235000D02*
X140750000Y-48235000D01*
X140100000Y-45115000D02*
X140750000Y-45115000D01*
X140100000Y-45115000D02*
X138425000Y-45115000D01*
X140100000Y-48235000D02*
X139450000Y-48235000D01*
D10*
%TO.C,U3*%
X82300000Y-40570000D02*
X107700000Y-40570000D01*
X107700000Y-40570000D02*
X107700000Y-63430000D01*
X107700000Y-63430000D02*
X82300000Y-63430000D01*
X82300000Y-63430000D02*
X82300000Y-40570000D01*
D12*
%TO.C,R2*%
X66265000Y-72772936D02*
X66265000Y-73227064D01*
X67735000Y-72772936D02*
X67735000Y-73227064D01*
%TO.C,U5*%
X111200000Y-51330000D02*
X109870000Y-51330000D01*
X109870000Y-51330000D02*
X109870000Y-50000000D01*
X112470000Y-48670000D02*
X120150000Y-48670000D01*
X112470000Y-51330000D02*
X112470000Y-48670000D01*
X120150000Y-51330000D02*
X120150000Y-48670000D01*
X112470000Y-51330000D02*
X120150000Y-51330000D01*
%TD*%
G36*
X150959191Y-62018907D02*
G01*
X150995155Y-62068407D01*
X151000000Y-62099000D01*
X151000000Y-89901000D01*
X150981093Y-89959191D01*
X150931593Y-89995155D01*
X150901000Y-90000000D01*
X124099000Y-90000000D01*
X124040809Y-89981093D01*
X124004845Y-89931593D01*
X124000000Y-89901000D01*
X124000000Y-62099000D01*
X124018907Y-62040809D01*
X124068407Y-62004845D01*
X124099000Y-62000000D01*
X150901000Y-62000000D01*
X150959191Y-62018907D01*
G37*
M02*
