%TF.GenerationSoftware,KiCad,Pcbnew,(6.0.4)*%
%TF.CreationDate,2022-11-18T09:58:05-05:00*%
%TF.ProjectId,NFFPCB,4e464650-4342-42e6-9b69-6361645f7063,rev?*%
%TF.SameCoordinates,Original*%
%TF.FileFunction,Copper,L1,Top*%
%TF.FilePolarity,Positive*%
%FSLAX46Y46*%
G04 Gerber Fmt 4.6, Leading zero omitted, Abs format (unit mm)*
G04 Created by KiCad (PCBNEW (6.0.4)) date 2022-11-18 09:58:05*
%MOMM*%
%LPD*%
G01*
G04 APERTURE LIST*
G04 Aperture macros list*
%AMRoundRect*
0 Rectangle with rounded corners*
0 $1 Rounding radius*
0 $2 $3 $4 $5 $6 $7 $8 $9 X,Y pos of 4 corners*
0 Add a 4 corners polygon primitive as box body*
4,1,4,$2,$3,$4,$5,$6,$7,$8,$9,$2,$3,0*
0 Add four circle primitives for the rounded corners*
1,1,$1+$1,$2,$3*
1,1,$1+$1,$4,$5*
1,1,$1+$1,$6,$7*
1,1,$1+$1,$8,$9*
0 Add four rect primitives between the rounded corners*
20,1,$1+$1,$2,$3,$4,$5,0*
20,1,$1+$1,$4,$5,$6,$7,0*
20,1,$1+$1,$6,$7,$8,$9,0*
20,1,$1+$1,$8,$9,$2,$3,0*%
G04 Aperture macros list end*
%TA.AperFunction,ComponentPad*%
%ADD10C,2.000000*%
%TD*%
%TA.AperFunction,ComponentPad*%
%ADD11C,1.651000*%
%TD*%
%TA.AperFunction,ComponentPad*%
%ADD12R,1.700000X1.700000*%
%TD*%
%TA.AperFunction,ComponentPad*%
%ADD13O,1.700000X1.700000*%
%TD*%
%TA.AperFunction,SMDPad,CuDef*%
%ADD14RoundRect,0.250000X-0.350000X-0.450000X0.350000X-0.450000X0.350000X0.450000X-0.350000X0.450000X0*%
%TD*%
%TA.AperFunction,SMDPad,CuDef*%
%ADD15RoundRect,0.062500X0.062500X-0.375000X0.062500X0.375000X-0.062500X0.375000X-0.062500X-0.375000X0*%
%TD*%
%TA.AperFunction,SMDPad,CuDef*%
%ADD16RoundRect,0.062500X0.375000X-0.062500X0.375000X0.062500X-0.375000X0.062500X-0.375000X-0.062500X0*%
%TD*%
%TA.AperFunction,SMDPad,CuDef*%
%ADD17R,1.600000X1.600000*%
%TD*%
%TA.AperFunction,SMDPad,CuDef*%
%ADD18RoundRect,0.250000X0.337500X0.475000X-0.337500X0.475000X-0.337500X-0.475000X0.337500X-0.475000X0*%
%TD*%
%TA.AperFunction,SMDPad,CuDef*%
%ADD19R,0.510000X0.400000*%
%TD*%
%TA.AperFunction,SMDPad,CuDef*%
%ADD20R,1.350000X0.400000*%
%TD*%
%TA.AperFunction,ComponentPad*%
%ADD21O,0.950000X1.250000*%
%TD*%
%TA.AperFunction,ComponentPad*%
%ADD22O,1.550000X0.890000*%
%TD*%
%TA.AperFunction,SMDPad,CuDef*%
%ADD23R,1.550000X1.500000*%
%TD*%
%TA.AperFunction,SMDPad,CuDef*%
%ADD24R,1.550000X1.200000*%
%TD*%
%TA.AperFunction,SMDPad,CuDef*%
%ADD25RoundRect,0.250000X0.450000X-0.350000X0.450000X0.350000X-0.450000X0.350000X-0.450000X-0.350000X0*%
%TD*%
%TA.AperFunction,SMDPad,CuDef*%
%ADD26RoundRect,0.250000X0.475000X-0.337500X0.475000X0.337500X-0.475000X0.337500X-0.475000X-0.337500X0*%
%TD*%
%TA.AperFunction,SMDPad,CuDef*%
%ADD27RoundRect,0.087500X-0.087500X-0.912500X0.087500X-0.912500X0.087500X0.912500X-0.087500X0.912500X0*%
%TD*%
%TA.AperFunction,SMDPad,CuDef*%
%ADD28RoundRect,0.150000X-0.587500X-0.150000X0.587500X-0.150000X0.587500X0.150000X-0.587500X0.150000X0*%
%TD*%
%TA.AperFunction,SMDPad,CuDef*%
%ADD29RoundRect,0.250000X-0.450000X0.350000X-0.450000X-0.350000X0.450000X-0.350000X0.450000X0.350000X0*%
%TD*%
%TA.AperFunction,ViaPad*%
%ADD30C,0.800000*%
%TD*%
%TA.AperFunction,Conductor*%
%ADD31C,0.200000*%
%TD*%
%TA.AperFunction,Conductor*%
%ADD32C,1.000000*%
%TD*%
%TA.AperFunction,Conductor*%
%ADD33C,0.250000*%
%TD*%
%TA.AperFunction,Conductor*%
%ADD34C,0.500000*%
%TD*%
G04 APERTURE END LIST*
D10*
%TO.P,TPVUSB1,1,1*%
%TO.N,/+VUSB*%
X60500000Y-74000000D03*
%TD*%
%TO.P,TPVSYS1,1,1*%
%TO.N,/VSYS*%
X75500000Y-79000000D03*
%TD*%
%TO.P,TPISET1,1,1*%
%TO.N,Net-(R3-Pad2)*%
X59500000Y-87500000D03*
%TD*%
%TO.P,TPILIM1,1,1*%
%TO.N,Net-(R2-Pad2)*%
X63000000Y-70500000D03*
%TD*%
%TO.P,TPBATTRAW1,1,1*%
%TO.N,/VBATT_RAW*%
X126500000Y-84500000D03*
%TD*%
%TO.P,TP!PGOOD1,1,1*%
%TO.N,/!PGOOD*%
X75500000Y-69000000D03*
%TD*%
%TO.P,TP!CHG1,1,1*%
%TO.N,/!CHG*%
X72000000Y-64500000D03*
%TD*%
D11*
%TO.P,MOD1,*%
%TO.N,*%
X115764000Y-79270000D03*
X82236000Y-76730000D03*
X115764000Y-76730000D03*
X82236000Y-79270000D03*
%TO.P,MOD1,1,VIN*%
%TO.N,/VSYS*%
X82236000Y-74190000D03*
X82236000Y-71650000D03*
%TO.P,MOD1,2,GND*%
%TO.N,GND*%
X82236000Y-81810000D03*
X82236000Y-84350000D03*
%TO.P,MOD1,3,VOUT*%
%TO.N,+3V3*%
X115764000Y-71650000D03*
X115764000Y-74190000D03*
%TO.P,MOD1,4,GND*%
%TO.N,GND*%
X115764000Y-81810000D03*
X115764000Y-84350000D03*
%TD*%
D12*
%TO.P,U1,1,GND*%
%TO.N,GND*%
X111120000Y-43000000D03*
D13*
%TO.P,U1,2,VCC*%
%TO.N,+3V3*%
X113660000Y-43000000D03*
%TO.P,U1,3,SCL*%
%TO.N,/SCL*%
X116200000Y-43000000D03*
%TO.P,U1,4,SDA*%
%TO.N,/SDA*%
X118740000Y-43000000D03*
%TD*%
D14*
%TO.P,R8,1*%
%TO.N,+3V3*%
X72000000Y-72500000D03*
%TO.P,R8,2*%
%TO.N,/!PGOOD*%
X74000000Y-72500000D03*
%TD*%
D15*
%TO.P,U4,1,TS*%
%TO.N,Net-(R5-Pad2)*%
X67250000Y-79437500D03*
%TO.P,U4,2,BAT*%
%TO.N,/VBATT_RAW*%
X67750000Y-79437500D03*
%TO.P,U4,3,BAT*%
X68250000Y-79437500D03*
%TO.P,U4,4,~{CE}*%
%TO.N,GND*%
X68750000Y-79437500D03*
D16*
%TO.P,U4,5,EN2*%
X69437500Y-78750000D03*
%TO.P,U4,6,EN1*%
%TO.N,/+VUSB*%
X69437500Y-78250000D03*
%TO.P,U4,7,~{PGOOD}*%
%TO.N,/!PGOOD*%
X69437500Y-77750000D03*
%TO.P,U4,8,VSS*%
%TO.N,GND*%
X69437500Y-77250000D03*
D15*
%TO.P,U4,9,~{CHG}*%
%TO.N,/!CHG*%
X68750000Y-76562500D03*
%TO.P,U4,10,OUT*%
%TO.N,/VSYS*%
X68250000Y-76562500D03*
%TO.P,U4,11,OUT*%
X67750000Y-76562500D03*
%TO.P,U4,12,ILIM*%
%TO.N,Net-(R2-Pad2)*%
X67250000Y-76562500D03*
D16*
%TO.P,U4,13,IN*%
%TO.N,/+VUSB*%
X66562500Y-77250000D03*
%TO.P,U4,14,TMR*%
%TO.N,Net-(R1-Pad2)*%
X66562500Y-77750000D03*
%TO.P,U4,15,TD*%
%TO.N,GND*%
X66562500Y-78250000D03*
%TO.P,U4,16,ISET*%
%TO.N,Net-(R3-Pad2)*%
X66562500Y-78750000D03*
D17*
%TO.P,U4,17,VSS*%
%TO.N,GND*%
X68000000Y-78000000D03*
%TD*%
D18*
%TO.P,C1,1*%
%TO.N,/C2P*%
X145137500Y-50191000D03*
%TO.P,C1,2*%
%TO.N,/C2N*%
X143062500Y-50191000D03*
%TD*%
%TO.P,C4,1*%
%TO.N,Net-(C4-Pad1)*%
X131137500Y-51925000D03*
%TO.P,C4,2*%
%TO.N,GND*%
X129062500Y-51925000D03*
%TD*%
D12*
%TO.P,J5,1,Pin_1*%
%TO.N,/SCL*%
X56000000Y-56800000D03*
D13*
%TO.P,J5,2,Pin_2*%
%TO.N,/SDA*%
X56000000Y-54260000D03*
%TO.P,J5,3,Pin_3*%
%TO.N,GND*%
X56000000Y-51720000D03*
%TO.P,J5,4,Pin_4*%
%TO.N,+3V3*%
X56000000Y-49180000D03*
%TD*%
D19*
%TO.P,Q1,1,G*%
%TO.N,/OLED_EN*%
X138705000Y-41425000D03*
%TO.P,Q1,2,S*%
%TO.N,GND*%
X138705000Y-42425000D03*
%TO.P,Q1,3,D*%
%TO.N,Net-(Q1-Pad3)*%
X139995000Y-41925000D03*
%TD*%
D12*
%TO.P,J4,1,Pin_1*%
%TO.N,/TX_FROM_MICRO*%
X56000000Y-68800000D03*
D13*
%TO.P,J4,2,Pin_2*%
%TO.N,/RX_TO_MICRO*%
X56000000Y-66260000D03*
%TO.P,J4,3,Pin_3*%
%TO.N,GND*%
X56000000Y-63720000D03*
%TO.P,J4,4,Pin_4*%
%TO.N,+3V3*%
X56000000Y-61180000D03*
%TD*%
D12*
%TO.P,J3,1,Pin_1*%
%TO.N,/BUTTON*%
X56000000Y-42460000D03*
D13*
%TO.P,J3,2,Pin_2*%
%TO.N,GND*%
X56000000Y-45000000D03*
%TD*%
D14*
%TO.P,R7,1*%
%TO.N,+3V3*%
X68500000Y-69000000D03*
%TO.P,R7,2*%
%TO.N,/!CHG*%
X70500000Y-69000000D03*
%TD*%
D20*
%TO.P,J1,1,VBUS*%
%TO.N,/+VUSB*%
X57150000Y-76950000D03*
%TO.P,J1,2,D-*%
%TO.N,unconnected-(J1-Pad2)*%
X57150000Y-77600000D03*
%TO.P,J1,3,D+*%
%TO.N,unconnected-(J1-Pad3)*%
X57150000Y-78250000D03*
%TO.P,J1,4,ID*%
%TO.N,unconnected-(J1-Pad4)*%
X57150000Y-78900000D03*
%TO.P,J1,5,GND*%
%TO.N,GND*%
X57150000Y-79550000D03*
D21*
%TO.P,J1,6,Shield*%
%TO.N,unconnected-(J1-Pad6)*%
X57150000Y-75750000D03*
D22*
X54450000Y-81750000D03*
D23*
X54450000Y-77250000D03*
D21*
X57150000Y-80750000D03*
D24*
X54450000Y-81150000D03*
D22*
X54450000Y-74750000D03*
D24*
X54450000Y-75350000D03*
D23*
X54450000Y-79250000D03*
%TD*%
D25*
%TO.P,R10,1*%
%TO.N,/VBATT_RAW*%
X143350000Y-43675000D03*
%TO.P,R10,2*%
%TO.N,Net-(Q1-Pad3)*%
X143350000Y-41675000D03*
%TD*%
D18*
%TO.P,C5,1*%
%TO.N,Net-(C5-Pad1)*%
X131137500Y-54425000D03*
%TO.P,C5,2*%
%TO.N,GND*%
X129062500Y-54425000D03*
%TD*%
D14*
%TO.P,R1,1*%
%TO.N,GND*%
X62500000Y-78500000D03*
%TO.P,R1,2*%
%TO.N,Net-(R1-Pad2)*%
X64500000Y-78500000D03*
%TD*%
D25*
%TO.P,R3,1*%
%TO.N,GND*%
X64000000Y-84000000D03*
%TO.P,R3,2*%
%TO.N,Net-(R3-Pad2)*%
X64000000Y-82000000D03*
%TD*%
D26*
%TO.P,C2,1*%
%TO.N,Net-(C2-Pad1)*%
X135850000Y-51212500D03*
%TO.P,C2,2*%
%TO.N,GND*%
X135850000Y-49137500D03*
%TD*%
D12*
%TO.P,U2,1,A0*%
%TO.N,/BUTTON*%
X62380000Y-43189500D03*
D13*
%TO.P,U2,2,A1*%
%TO.N,unconnected-(U2-Pad2)*%
X62380000Y-45729500D03*
%TO.P,U2,3,A2*%
%TO.N,/OLED_EN*%
X62380000Y-48269500D03*
%TO.P,U2,4,A3*%
%TO.N,/BNO_RST*%
X62380000Y-50809500D03*
%TO.P,U2,5,SDA*%
%TO.N,/SDA*%
X62380000Y-53349500D03*
%TO.P,U2,6,SCL*%
%TO.N,/SCL*%
X62380000Y-55889500D03*
%TO.P,U2,7,TX*%
%TO.N,/TX_FROM_MICRO*%
X62380000Y-58429500D03*
%TO.P,U2,8,RX*%
%TO.N,/RX_TO_MICRO*%
X77620000Y-58429500D03*
%TO.P,U2,9,SCK*%
%TO.N,/!CHG*%
X77620000Y-55889500D03*
%TO.P,U2,10,MISO*%
%TO.N,/!PGOOD*%
X77620000Y-53349500D03*
%TO.P,U2,11,MOSI*%
%TO.N,unconnected-(U2-Pad11)*%
X77620000Y-50809500D03*
%TO.P,U2,12,3v3*%
%TO.N,+3V3*%
X77620000Y-48269500D03*
%TO.P,U2,13,GND*%
%TO.N,GND*%
X77620000Y-45729500D03*
D12*
%TO.P,U2,14,5V*%
%TO.N,unconnected-(U2-Pad14)*%
X77620000Y-43189500D03*
%TD*%
%TO.P,J2,1,Pin_1*%
%TO.N,/VBATT_RAW*%
X71000000Y-83000000D03*
D13*
%TO.P,J2,2,Pin_2*%
%TO.N,GND*%
X73540000Y-83000000D03*
%TD*%
D25*
%TO.P,R11,1*%
%TO.N,Net-(R11-Pad1)*%
X133350000Y-51175000D03*
%TO.P,R11,2*%
%TO.N,GND*%
X133350000Y-49175000D03*
%TD*%
D27*
%TO.P,U6,1,C2P*%
%TO.N,/C2P*%
X142900000Y-54425000D03*
%TO.P,U6,2,C2N*%
%TO.N,/C2N*%
X142200000Y-54425000D03*
%TO.P,U6,3,C1P*%
%TO.N,/C1P*%
X141500000Y-54425000D03*
%TO.P,U6,4,C1N*%
%TO.N,/C1N*%
X140800000Y-54425000D03*
%TO.P,U6,5,VBAT*%
%TO.N,/VBAT_OLED*%
X140100000Y-54425000D03*
%TO.P,U6,6,VBREF*%
%TO.N,unconnected-(U6-Pad6)*%
X139400000Y-54425000D03*
%TO.P,U6,7,VSS*%
%TO.N,GND*%
X138700000Y-54425000D03*
%TO.P,U6,8,VDD*%
%TO.N,Net-(C2-Pad1)*%
X138000000Y-54425000D03*
%TO.P,U6,9,RES#*%
%TO.N,unconnected-(U6-Pad9)*%
X137300000Y-54425000D03*
%TO.P,U6,10,SCL*%
%TO.N,/SCL*%
X136600000Y-54430128D03*
%TO.P,U6,11,SDA*%
%TO.N,/SDA*%
X135900000Y-54425000D03*
%TO.P,U6,12,IREF*%
%TO.N,Net-(R11-Pad1)*%
X135200000Y-54425000D03*
%TO.P,U6,13,VCOMH*%
%TO.N,Net-(C4-Pad1)*%
X134500000Y-54430128D03*
%TO.P,U6,14,VCC*%
%TO.N,Net-(C5-Pad1)*%
X133800000Y-54425000D03*
%TD*%
D25*
%TO.P,R5,1*%
%TO.N,GND*%
X67000000Y-84000000D03*
%TO.P,R5,2*%
%TO.N,Net-(R5-Pad2)*%
X67000000Y-82000000D03*
%TD*%
D14*
%TO.P,R4,1*%
%TO.N,+3V3*%
X114000000Y-58500000D03*
%TO.P,R4,2*%
%TO.N,/SCL*%
X116000000Y-58500000D03*
%TD*%
D25*
%TO.P,R9,1*%
%TO.N,GND*%
X136350000Y-43425000D03*
%TO.P,R9,2*%
%TO.N,/OLED_EN*%
X136350000Y-41425000D03*
%TD*%
D18*
%TO.P,C3,1*%
%TO.N,/C1P*%
X141137500Y-50191000D03*
%TO.P,C3,2*%
%TO.N,/C1N*%
X139062500Y-50191000D03*
%TD*%
D14*
%TO.P,R6,1*%
%TO.N,+3V3*%
X114000000Y-61000000D03*
%TO.P,R6,2*%
%TO.N,/SDA*%
X116000000Y-61000000D03*
%TD*%
D28*
%TO.P,Q2,1,G*%
%TO.N,Net-(Q1-Pad3)*%
X139162500Y-45725000D03*
%TO.P,Q2,2,S*%
%TO.N,/VBAT_OLED*%
X139162500Y-47625000D03*
%TO.P,Q2,3,D*%
%TO.N,/VBATT_RAW*%
X141037500Y-46675000D03*
%TD*%
D13*
%TO.P,U3,1,PS1*%
%TO.N,unconnected-(U3-Pad1)*%
X98810000Y-43110000D03*
%TO.P,U3,2,PS0*%
%TO.N,unconnected-(U3-Pad2)*%
X96270000Y-43110000D03*
%TO.P,U3,3,ADR*%
%TO.N,unconnected-(U3-Pad3)*%
X93730000Y-43110000D03*
%TO.P,U3,4,INT*%
%TO.N,unconnected-(U3-Pad4)*%
X91190000Y-43110000D03*
D12*
%TO.P,U3,5,VIN*%
%TO.N,unconnected-(U3-Pad5)*%
X88650000Y-60890000D03*
D13*
%TO.P,U3,6,3V*%
%TO.N,+3V3*%
X91190000Y-60890000D03*
%TO.P,U3,7,GND*%
%TO.N,GND*%
X93730000Y-60890000D03*
%TO.P,U3,8,SCL*%
%TO.N,/SCL*%
X96270000Y-60890000D03*
%TO.P,U3,9,SDA*%
%TO.N,/SDA*%
X98810000Y-60890000D03*
%TO.P,U3,10,RST*%
%TO.N,/BNO_RST*%
X101350000Y-60890000D03*
%TD*%
D29*
%TO.P,R2,1*%
%TO.N,GND*%
X67000000Y-72000000D03*
%TO.P,R2,2*%
%TO.N,Net-(R2-Pad2)*%
X67000000Y-74000000D03*
%TD*%
D12*
%TO.P,U5,1,GND*%
%TO.N,GND*%
X111200000Y-50000000D03*
D13*
%TO.P,U5,2,VCC*%
%TO.N,+3V3*%
X113740000Y-50000000D03*
%TO.P,U5,3,SCL*%
%TO.N,/SCL*%
X116280000Y-50000000D03*
%TO.P,U5,4,SDA*%
%TO.N,/SDA*%
X118820000Y-50000000D03*
%TD*%
D30*
%TO.N,GND*%
X59250000Y-82750000D03*
X138750000Y-56500000D03*
X67000000Y-70750000D03*
X136500000Y-44750000D03*
X127750000Y-54500000D03*
X135750000Y-47500000D03*
X61250000Y-78500000D03*
X60500000Y-79750000D03*
X64000000Y-85500000D03*
X70500000Y-79500000D03*
X59250000Y-81250000D03*
X133250000Y-47500000D03*
X70500000Y-76750000D03*
X138750000Y-43500000D03*
X60500000Y-81250000D03*
X60500000Y-82750000D03*
X59250000Y-79750000D03*
X129062500Y-50250000D03*
X67000000Y-85500000D03*
%TO.N,/+VUSB*%
X65000000Y-77000000D03*
X71000000Y-78500000D03*
%TO.N,/RX_TO_MICRO*%
X63000000Y-62500000D03*
X61500000Y-62500000D03*
%TO.N,+3V3*%
X70500000Y-72500000D03*
X112500000Y-58500000D03*
X67000000Y-69000000D03*
X112500000Y-61000000D03*
%TO.N,/SCL*%
X118000000Y-58500000D03*
X83000000Y-55500000D03*
X79435989Y-57064011D03*
X120000000Y-58500000D03*
%TO.N,/SDA*%
X99250000Y-57000000D03*
X82750000Y-53750000D03*
X80000000Y-55250000D03*
X98000000Y-55750000D03*
%TO.N,/!CHG*%
X69500000Y-75500000D03*
X69500000Y-72000000D03*
%TO.N,/!PGOOD*%
X71749999Y-77750001D03*
X75500000Y-73000000D03*
%TD*%
D31*
%TO.N,/VBATT_RAW*%
X126500000Y-84500000D02*
X128500000Y-86500000D01*
D32*
X126250000Y-88750000D02*
X128500000Y-86500000D01*
X128500000Y-86500000D02*
X147350000Y-67650000D01*
D31*
%TO.N,/!CHG*%
X76000000Y-64500000D02*
X76500000Y-65000000D01*
X72000000Y-64500000D02*
X76000000Y-64500000D01*
D33*
X76500000Y-65000000D02*
X72000000Y-69500000D01*
X80250000Y-61250000D02*
X76500000Y-65000000D01*
D31*
%TO.N,/!PGOOD*%
X75500000Y-69000000D02*
X77500000Y-71000000D01*
D33*
X77500000Y-71000000D02*
X75500000Y-73000000D01*
X81250000Y-67250000D02*
X77500000Y-71000000D01*
D31*
%TO.N,Net-(R2-Pad2)*%
X64000000Y-74000000D02*
X67000000Y-74000000D01*
X63000000Y-70500000D02*
X63000000Y-73000000D01*
X63000000Y-73000000D02*
X64000000Y-74000000D01*
%TO.N,/VSYS*%
X75500000Y-79000000D02*
X75500000Y-75000000D01*
%TO.N,/+VUSB*%
X60500000Y-74000000D02*
X60500000Y-77000000D01*
%TO.N,Net-(R3-Pad2)*%
X61500000Y-85500000D02*
X59500000Y-87500000D01*
X61500000Y-84500000D02*
X61500000Y-85500000D01*
X64000000Y-82000000D02*
X61500000Y-84500000D01*
%TO.N,/C2P*%
X142900000Y-54425000D02*
X142900000Y-52428500D01*
X142900000Y-52428500D02*
X145137500Y-50191000D01*
%TO.N,/C2N*%
X142200000Y-52075000D02*
X143100000Y-51175000D01*
X142200000Y-54425000D02*
X142200000Y-52075000D01*
X143100000Y-50228500D02*
X143062500Y-50191000D01*
X143100000Y-51175000D02*
X143100000Y-50228500D01*
%TO.N,Net-(C2-Pad1)*%
X138000000Y-52575000D02*
X136637500Y-51212500D01*
X138000000Y-54425000D02*
X138000000Y-52575000D01*
X136637500Y-51212500D02*
X135850000Y-51212500D01*
%TO.N,GND*%
X66562500Y-78250000D02*
X67750000Y-78250000D01*
X69437500Y-77250000D02*
X69387980Y-77299520D01*
X138700000Y-56450000D02*
X138750000Y-56500000D01*
X67750000Y-78250000D02*
X68000000Y-78000000D01*
X135850000Y-49137500D02*
X135850000Y-47600000D01*
X135850000Y-47600000D02*
X135750000Y-47500000D01*
X67000000Y-72000000D02*
X67000000Y-70750000D01*
X138705000Y-43295000D02*
X138705000Y-43455000D01*
X69387980Y-77299520D02*
X68700480Y-77299520D01*
X136350000Y-43425000D02*
X136350000Y-44600000D01*
X68750000Y-79437500D02*
X68750000Y-78750000D01*
X68700480Y-77299520D02*
X68000000Y-78000000D01*
X129062500Y-51925000D02*
X129062500Y-50250000D01*
X69437500Y-77250000D02*
X70000000Y-77250000D01*
X68750000Y-78750000D02*
X68000000Y-78000000D01*
X64000000Y-84000000D02*
X64000000Y-85250000D01*
X138705000Y-42425000D02*
X138705000Y-43295000D01*
X133350000Y-47600000D02*
X133250000Y-47500000D01*
X133350000Y-49175000D02*
X133350000Y-47600000D01*
X136350000Y-44600000D02*
X136500000Y-44750000D01*
X67000000Y-84000000D02*
X67000000Y-85500000D01*
X138705000Y-43455000D02*
X138750000Y-43500000D01*
X62500000Y-78500000D02*
X61250000Y-78500000D01*
X127825000Y-54425000D02*
X127750000Y-54500000D01*
X127925000Y-54425000D02*
X127825000Y-54425000D01*
X138700000Y-54425000D02*
X138700000Y-56450000D01*
X69437500Y-78750000D02*
X68750000Y-78750000D01*
X129062500Y-54425000D02*
X127925000Y-54425000D01*
X69437500Y-78750000D02*
X69750000Y-78750000D01*
X70000000Y-77250000D02*
X70500000Y-76750000D01*
X64000000Y-85250000D02*
X64000000Y-85500000D01*
X69750000Y-78750000D02*
X70500000Y-79500000D01*
%TO.N,/C1P*%
X141500000Y-54425000D02*
X141500000Y-50553500D01*
X141500000Y-50553500D02*
X141137500Y-50191000D01*
%TO.N,/C1N*%
X140800000Y-54425000D02*
X140800000Y-51928500D01*
X140800000Y-51928500D02*
X139062500Y-50191000D01*
%TO.N,Net-(C4-Pad1)*%
X131137500Y-51925000D02*
X131887500Y-52675000D01*
X131887500Y-52675000D02*
X134100000Y-52675000D01*
X134500000Y-53075000D02*
X134500000Y-54430128D01*
X134100000Y-52675000D02*
X134500000Y-53075000D01*
%TO.N,Net-(C5-Pad1)*%
X131137500Y-54425000D02*
X133800000Y-54425000D01*
%TO.N,/+VUSB*%
X70750000Y-78250000D02*
X71000000Y-78500000D01*
X69437500Y-78250000D02*
X70750000Y-78250000D01*
D32*
%TO.N,/VBATT_RAW*%
X147350000Y-48675000D02*
X145350000Y-46675000D01*
X145350000Y-46675000D02*
X143100000Y-46675000D01*
X147350000Y-67650000D02*
X147350000Y-48675000D01*
X72750000Y-88750000D02*
X126250000Y-88750000D01*
D34*
X143350000Y-43675000D02*
X143350000Y-46425000D01*
D32*
X71000000Y-83000000D02*
X71000000Y-87000000D01*
X71000000Y-87000000D02*
X72750000Y-88750000D01*
D34*
X143350000Y-46425000D02*
X143100000Y-46675000D01*
D32*
X143100000Y-46675000D02*
X141037500Y-46675000D01*
D33*
%TO.N,/BUTTON*%
X59460000Y-42460000D02*
X60189500Y-43189500D01*
X56000000Y-42460000D02*
X59460000Y-42460000D01*
X60189500Y-43189500D02*
X62380000Y-43189500D01*
%TO.N,/TX_FROM_MICRO*%
X62275499Y-66224501D02*
X62275499Y-58534001D01*
X56000000Y-68800000D02*
X59700000Y-68800000D01*
X59700000Y-68800000D02*
X62275499Y-66224501D01*
X62275499Y-58534001D02*
X62380000Y-58429500D01*
%TO.N,/RX_TO_MICRO*%
X61500000Y-64000000D02*
X61500000Y-62500000D01*
X73549500Y-62500000D02*
X63000000Y-62500000D01*
X59240000Y-66260000D02*
X61500000Y-64000000D01*
X56000000Y-66260000D02*
X59240000Y-66260000D01*
X77620000Y-58429500D02*
X73549500Y-62500000D01*
D31*
%TO.N,+3V3*%
X114000000Y-58500000D02*
X112500000Y-58500000D01*
X72000000Y-72500000D02*
X70500000Y-72500000D01*
X114000000Y-61000000D02*
X112500000Y-61000000D01*
X68500000Y-69000000D02*
X67000000Y-69000000D01*
%TO.N,/SCL*%
X123325000Y-56675000D02*
X121500000Y-58500000D01*
X136600000Y-55925000D02*
X135850000Y-56675000D01*
D33*
X116280000Y-58220000D02*
X116000000Y-58500000D01*
X62380000Y-55889500D02*
X63554511Y-57064011D01*
D31*
X135850000Y-56675000D02*
X123325000Y-56675000D01*
D33*
X116280000Y-43080000D02*
X116200000Y-43000000D01*
X60110500Y-55889500D02*
X62380000Y-55889500D01*
X100220000Y-54780000D02*
X96270000Y-58730000D01*
X83000000Y-55500000D02*
X93000000Y-55500000D01*
X116280000Y-50000000D02*
X116280000Y-54780000D01*
X63554511Y-57064011D02*
X79435989Y-57064011D01*
X116000000Y-58500000D02*
X118000000Y-58500000D01*
X96270000Y-58770000D02*
X96270000Y-60890000D01*
X116280000Y-54780000D02*
X116280000Y-58220000D01*
X116280000Y-54780000D02*
X100220000Y-54780000D01*
D31*
X136600000Y-54430128D02*
X136600000Y-55925000D01*
D33*
X93000000Y-55500000D02*
X96270000Y-58770000D01*
X56000000Y-56800000D02*
X59200000Y-56800000D01*
D31*
X121500000Y-58500000D02*
X120000000Y-58500000D01*
D33*
X96270000Y-58730000D02*
X96270000Y-58770000D01*
X59200000Y-56800000D02*
X60110500Y-55889500D01*
X116280000Y-50000000D02*
X116280000Y-43080000D01*
%TO.N,/SDA*%
X56000000Y-54260000D02*
X58740000Y-54260000D01*
X118820000Y-50000000D02*
X118820000Y-57180000D01*
X58740000Y-54260000D02*
X59650500Y-53349500D01*
D31*
X118890000Y-57250000D02*
X121500000Y-57250000D01*
X135900000Y-55811164D02*
X135900000Y-54425000D01*
D33*
X79464989Y-54714989D02*
X80000000Y-55250000D01*
X99250000Y-58250000D02*
X98810000Y-58690000D01*
D31*
X135461164Y-56250000D02*
X135900000Y-55811164D01*
D33*
X99250000Y-57000000D02*
X99250000Y-58250000D01*
X105750000Y-58250000D02*
X99250000Y-58250000D01*
X62380000Y-53349500D02*
X63745489Y-54714989D01*
X110250000Y-62750000D02*
X105750000Y-58250000D01*
X116000000Y-62500000D02*
X115750000Y-62750000D01*
X59650500Y-53349500D02*
X62380000Y-53349500D01*
X96000000Y-53750000D02*
X98000000Y-55750000D01*
X118740000Y-43000000D02*
X118740000Y-49920000D01*
D31*
X118820000Y-57180000D02*
X118890000Y-57250000D01*
D33*
X118820000Y-57180000D02*
X118820000Y-60180000D01*
D31*
X122500000Y-56250000D02*
X135461164Y-56250000D01*
D33*
X118740000Y-49920000D02*
X118820000Y-50000000D01*
X118820000Y-60180000D02*
X118000000Y-61000000D01*
X63745489Y-54714989D02*
X79464989Y-54714989D01*
X82750000Y-53750000D02*
X96000000Y-53750000D01*
X116000000Y-61000000D02*
X116000000Y-62500000D01*
X98810000Y-58690000D02*
X98810000Y-60890000D01*
X115750000Y-62750000D02*
X110250000Y-62750000D01*
D31*
X121500000Y-57250000D02*
X122500000Y-56250000D01*
D33*
X118000000Y-61000000D02*
X116000000Y-61000000D01*
D31*
%TO.N,/OLED_EN*%
X67230500Y-48269500D02*
X74500000Y-41000000D01*
X138705000Y-41425000D02*
X136350000Y-41425000D01*
X136350000Y-41425000D02*
X129425000Y-41425000D01*
X129000000Y-41000000D02*
X129425000Y-41425000D01*
X62380000Y-48269500D02*
X67230500Y-48269500D01*
X74500000Y-41000000D02*
X129000000Y-41000000D01*
%TO.N,Net-(Q1-Pad3)*%
X140850000Y-41925000D02*
X141850000Y-41925000D01*
X140850000Y-43175000D02*
X140850000Y-41925000D01*
X141850000Y-41925000D02*
X142100000Y-41675000D01*
X139995000Y-41925000D02*
X140850000Y-41925000D01*
X139162500Y-45725000D02*
X139162500Y-44862500D01*
X139162500Y-44862500D02*
X140850000Y-43175000D01*
X142100000Y-41675000D02*
X143350000Y-41675000D01*
D34*
%TO.N,/VBAT_OLED*%
X137600000Y-50530270D02*
X140100000Y-53030270D01*
X137600000Y-48175000D02*
X137600000Y-50530270D01*
X139162500Y-47625000D02*
X138150000Y-47625000D01*
X140100000Y-53030270D02*
X140100000Y-54425000D01*
X138150000Y-47625000D02*
X137600000Y-48175000D01*
D31*
%TO.N,Net-(R1-Pad2)*%
X66562500Y-77750000D02*
X65250000Y-77750000D01*
X65250000Y-77750000D02*
X64500000Y-78500000D01*
%TO.N,Net-(R2-Pad2)*%
X67250000Y-76562500D02*
X67250000Y-75750000D01*
X67000000Y-75500000D02*
X67000000Y-74000000D01*
X67250000Y-75750000D02*
X67000000Y-75500000D01*
%TO.N,Net-(R3-Pad2)*%
X66562500Y-78750000D02*
X66562500Y-79437500D01*
X66562500Y-79437500D02*
X64000000Y-82000000D01*
%TO.N,Net-(R5-Pad2)*%
X67250000Y-79437500D02*
X67250000Y-80750000D01*
X67000000Y-81000000D02*
X67000000Y-82000000D01*
X67250000Y-80750000D02*
X67000000Y-81000000D01*
D33*
%TO.N,/!CHG*%
X77620000Y-55889500D02*
X79639500Y-55889500D01*
D31*
X68750000Y-76250000D02*
X69500000Y-75500000D01*
D33*
X72000000Y-69500000D02*
X69500000Y-72000000D01*
X80250000Y-56500000D02*
X80250000Y-61250000D01*
X79639500Y-55889500D02*
X80250000Y-56500000D01*
X70500000Y-69000000D02*
X71500000Y-69000000D01*
X71500000Y-69000000D02*
X72000000Y-69500000D01*
D31*
X68750000Y-76562500D02*
X68750000Y-76250000D01*
D33*
%TO.N,/!PGOOD*%
X77620000Y-53349500D02*
X79349500Y-53349500D01*
X79349500Y-53349500D02*
X81250000Y-55250000D01*
D31*
X69437500Y-77750000D02*
X71749999Y-77750001D01*
D33*
X75500000Y-73000000D02*
X75000000Y-72500000D01*
X75000000Y-72500000D02*
X74000000Y-72500000D01*
X81250000Y-55250000D02*
X81250000Y-67250000D01*
D31*
%TO.N,Net-(R11-Pad1)*%
X135200000Y-53025000D02*
X133350000Y-51175000D01*
X135200000Y-54425000D02*
X135200000Y-53025000D01*
%TO.N,/BNO_RST*%
X101350000Y-62400000D02*
X100250000Y-63500000D01*
X63570500Y-52000000D02*
X62380000Y-50809500D01*
X82250000Y-55250000D02*
X79000000Y-52000000D01*
X100250000Y-63500000D02*
X82250000Y-63500000D01*
X82250000Y-63500000D02*
X82250000Y-55250000D01*
X101350000Y-60890000D02*
X101350000Y-62400000D01*
X79000000Y-52000000D02*
X63570500Y-52000000D01*
%TD*%
%TA.AperFunction,Conductor*%
%TO.N,unconnected-(J1-Pad6)*%
G36*
X58459191Y-73768907D02*
G01*
X58495155Y-73818407D01*
X58500000Y-73849000D01*
X58500000Y-76195500D01*
X58481093Y-76253691D01*
X58431593Y-76289655D01*
X58401000Y-76294500D01*
X58035602Y-76294500D01*
X58018034Y-76295709D01*
X58009142Y-76296321D01*
X58009134Y-76296322D01*
X58007446Y-76296438D01*
X57980573Y-76300155D01*
X57946891Y-76312958D01*
X57899791Y-76330861D01*
X57899789Y-76330862D01*
X57894559Y-76332850D01*
X57889906Y-76335959D01*
X57889904Y-76335960D01*
X57882438Y-76340949D01*
X57843685Y-76366843D01*
X57828935Y-76378742D01*
X57793243Y-76392368D01*
X57795128Y-76402252D01*
X57779836Y-76443918D01*
X57765056Y-76466584D01*
X57763130Y-76471806D01*
X57763129Y-76471807D01*
X57760192Y-76479767D01*
X57722312Y-76527816D01*
X57667312Y-76544500D01*
X57644643Y-76544500D01*
X57586452Y-76525593D01*
X57550488Y-76476093D01*
X57550488Y-76414907D01*
X57572475Y-76377729D01*
X57624741Y-76322072D01*
X57672212Y-76295975D01*
X57671196Y-76275891D01*
X57680022Y-76253995D01*
X57742101Y-76141074D01*
X57746649Y-76129586D01*
X57774994Y-76019188D01*
X57774211Y-76006732D01*
X57764806Y-76004000D01*
X56538771Y-76004000D01*
X56526086Y-76008122D01*
X56524949Y-76009687D01*
X56524461Y-76014845D01*
X56529280Y-76052995D01*
X56532353Y-76064961D01*
X56586832Y-76202558D01*
X56592782Y-76213381D01*
X56679767Y-76333106D01*
X56688228Y-76342115D01*
X56727035Y-76374220D01*
X56759820Y-76425880D01*
X56755978Y-76486945D01*
X56716976Y-76534089D01*
X56663930Y-76549500D01*
X56455252Y-76549500D01*
X56429005Y-76554721D01*
X56406334Y-76559230D01*
X56406332Y-76559231D01*
X56396769Y-76561133D01*
X56330448Y-76605448D01*
X56286133Y-76671769D01*
X56274500Y-76730252D01*
X56274500Y-77169748D01*
X56286133Y-77228231D01*
X56291548Y-77236334D01*
X56291871Y-77237115D01*
X56296671Y-77298112D01*
X56291871Y-77312885D01*
X56291548Y-77313666D01*
X56286133Y-77321769D01*
X56284232Y-77331327D01*
X56284231Y-77331329D01*
X56279751Y-77353852D01*
X56274500Y-77380252D01*
X56274500Y-77819748D01*
X56286133Y-77878231D01*
X56291548Y-77886334D01*
X56291871Y-77887115D01*
X56296671Y-77948112D01*
X56291871Y-77962885D01*
X56291548Y-77963666D01*
X56286133Y-77971769D01*
X56274500Y-78030252D01*
X56274500Y-78469748D01*
X56286133Y-78528231D01*
X56291548Y-78536334D01*
X56291871Y-78537115D01*
X56296671Y-78598112D01*
X56291871Y-78612885D01*
X56291548Y-78613666D01*
X56286133Y-78621769D01*
X56274500Y-78680252D01*
X56274500Y-79119748D01*
X56286133Y-79178231D01*
X56291548Y-79186334D01*
X56291871Y-79187115D01*
X56296671Y-79248112D01*
X56291871Y-79262885D01*
X56291548Y-79263666D01*
X56286133Y-79271769D01*
X56274500Y-79330252D01*
X56274500Y-79769748D01*
X56286133Y-79828231D01*
X56330448Y-79894552D01*
X56396769Y-79938867D01*
X56406332Y-79940769D01*
X56406334Y-79940770D01*
X56429005Y-79945279D01*
X56455252Y-79950500D01*
X56660052Y-79950500D01*
X56718243Y-79969407D01*
X56754207Y-80018907D01*
X56754207Y-80080093D01*
X56732220Y-80117270D01*
X56636457Y-80219247D01*
X56629189Y-80229251D01*
X56557899Y-80358926D01*
X56553351Y-80370414D01*
X56525006Y-80480812D01*
X56525789Y-80493268D01*
X56535194Y-80496000D01*
X57761229Y-80496000D01*
X57773914Y-80491878D01*
X57775051Y-80490313D01*
X57775539Y-80485155D01*
X57770720Y-80447005D01*
X57767647Y-80435039D01*
X57713168Y-80297442D01*
X57707218Y-80286618D01*
X57685856Y-80257217D01*
X57666948Y-80199026D01*
X57671984Y-80183528D01*
X57632646Y-80174550D01*
X57616694Y-80161711D01*
X57616573Y-80161857D01*
X57579008Y-80130780D01*
X57546224Y-80079119D01*
X57550066Y-80018055D01*
X57589068Y-79970911D01*
X57642114Y-79955500D01*
X57668435Y-79955500D01*
X57726626Y-79974407D01*
X57759468Y-80015590D01*
X57774455Y-80050653D01*
X57779335Y-80104870D01*
X57796540Y-80104870D01*
X57829392Y-80123026D01*
X57830274Y-80123762D01*
X57835399Y-80129628D01*
X57913909Y-80176536D01*
X57919192Y-80178252D01*
X57919193Y-80178253D01*
X57957705Y-80190766D01*
X57972100Y-80195443D01*
X57975944Y-80196052D01*
X57975949Y-80196053D01*
X58031754Y-80204891D01*
X58031759Y-80204891D01*
X58035602Y-80205500D01*
X58195500Y-80205500D01*
X58253691Y-80224407D01*
X58289655Y-80273907D01*
X58294500Y-80304500D01*
X58294500Y-82651000D01*
X58275593Y-82709191D01*
X58226093Y-82745155D01*
X58195500Y-82750000D01*
X53599000Y-82750000D01*
X53540809Y-82731093D01*
X53504845Y-82681593D01*
X53500000Y-82651000D01*
X53500000Y-82227467D01*
X53518907Y-82169276D01*
X53568407Y-82133312D01*
X53629593Y-82133312D01*
X53677541Y-82167198D01*
X53684557Y-82176341D01*
X53693658Y-82185442D01*
X53809744Y-82274519D01*
X53820883Y-82280949D01*
X53956066Y-82336944D01*
X53968499Y-82340275D01*
X54077130Y-82354577D01*
X54083584Y-82355000D01*
X54180320Y-82355000D01*
X54193005Y-82350878D01*
X54196000Y-82346757D01*
X54196000Y-82339320D01*
X54704000Y-82339320D01*
X54708122Y-82352005D01*
X54712243Y-82355000D01*
X54816416Y-82355000D01*
X54822870Y-82354577D01*
X54931501Y-82340275D01*
X54943934Y-82336944D01*
X55079117Y-82280949D01*
X55090256Y-82274519D01*
X55206342Y-82185442D01*
X55215442Y-82176342D01*
X55304519Y-82060257D01*
X55310950Y-82049118D01*
X55323637Y-82018487D01*
X55324531Y-82007129D01*
X55316977Y-82004000D01*
X54719680Y-82004000D01*
X54706995Y-82008122D01*
X54704000Y-82012243D01*
X54704000Y-82339320D01*
X54196000Y-82339320D01*
X54196000Y-81480320D01*
X54704000Y-81480320D01*
X54708122Y-81493005D01*
X54712243Y-81496000D01*
X55369320Y-81496000D01*
X55382005Y-81491878D01*
X55385000Y-81487757D01*
X55385000Y-81419680D01*
X55380878Y-81406995D01*
X55376757Y-81404000D01*
X54719680Y-81404000D01*
X54706995Y-81408122D01*
X54704000Y-81412243D01*
X54704000Y-81480320D01*
X54196000Y-81480320D01*
X54196000Y-81014845D01*
X56524461Y-81014845D01*
X56529280Y-81052995D01*
X56532353Y-81064961D01*
X56586832Y-81202558D01*
X56592782Y-81213381D01*
X56679767Y-81333106D01*
X56688223Y-81342111D01*
X56802248Y-81436441D01*
X56812681Y-81443062D01*
X56881813Y-81475592D01*
X56893114Y-81477020D01*
X56896000Y-81470888D01*
X56896000Y-81469469D01*
X57404000Y-81469469D01*
X57407521Y-81480304D01*
X57418195Y-81480304D01*
X57427780Y-81475794D01*
X57552724Y-81396501D01*
X57562243Y-81388627D01*
X57663543Y-81280753D01*
X57670811Y-81270749D01*
X57742101Y-81141074D01*
X57746649Y-81129586D01*
X57774994Y-81019188D01*
X57774211Y-81006732D01*
X57764806Y-81004000D01*
X57419680Y-81004000D01*
X57406995Y-81008122D01*
X57404000Y-81012243D01*
X57404000Y-81469469D01*
X56896000Y-81469469D01*
X56896000Y-81019680D01*
X56891878Y-81006995D01*
X56887757Y-81004000D01*
X56538771Y-81004000D01*
X56526086Y-81008122D01*
X56524949Y-81009687D01*
X56524461Y-81014845D01*
X54196000Y-81014845D01*
X54196000Y-80880320D01*
X54704000Y-80880320D01*
X54708122Y-80893005D01*
X54712243Y-80896000D01*
X55369319Y-80896000D01*
X55382004Y-80891878D01*
X55384999Y-80887757D01*
X55384999Y-80539100D01*
X55384051Y-80529473D01*
X55377619Y-80497136D01*
X55370299Y-80479463D01*
X55345773Y-80442756D01*
X55332244Y-80429227D01*
X55295536Y-80404700D01*
X55277867Y-80397381D01*
X55245524Y-80390948D01*
X55235903Y-80390000D01*
X54719680Y-80390000D01*
X54706995Y-80394122D01*
X54704000Y-80398243D01*
X54704000Y-80880320D01*
X54196000Y-80880320D01*
X54196000Y-80405681D01*
X54191878Y-80392996D01*
X54187757Y-80390001D01*
X53664100Y-80390001D01*
X53654471Y-80390949D01*
X53618311Y-80398141D01*
X53557550Y-80390948D01*
X53512622Y-80349414D01*
X53500000Y-80301043D01*
X53500000Y-80248957D01*
X53518907Y-80190766D01*
X53568407Y-80154802D01*
X53618315Y-80151859D01*
X53654478Y-80159053D01*
X53664097Y-80160000D01*
X54180320Y-80160000D01*
X54193005Y-80155878D01*
X54196000Y-80151757D01*
X54196000Y-80144319D01*
X54704000Y-80144319D01*
X54708122Y-80157004D01*
X54712243Y-80159999D01*
X55235900Y-80159999D01*
X55245527Y-80159051D01*
X55277864Y-80152619D01*
X55295537Y-80145299D01*
X55332244Y-80120773D01*
X55345773Y-80107244D01*
X55370300Y-80070536D01*
X55377619Y-80052867D01*
X55384052Y-80020524D01*
X55385000Y-80010903D01*
X55385000Y-79519680D01*
X55380878Y-79506995D01*
X55376757Y-79504000D01*
X54719680Y-79504000D01*
X54706995Y-79508122D01*
X54704000Y-79512243D01*
X54704000Y-80144319D01*
X54196000Y-80144319D01*
X54196000Y-79095000D01*
X54214907Y-79036809D01*
X54264407Y-79000845D01*
X54295000Y-78996000D01*
X55369319Y-78996000D01*
X55382004Y-78991878D01*
X55384999Y-78987757D01*
X55384999Y-78489100D01*
X55384051Y-78479473D01*
X55377619Y-78447136D01*
X55370299Y-78429463D01*
X55345773Y-78392756D01*
X55332244Y-78379227D01*
X55295536Y-78354700D01*
X55277866Y-78347381D01*
X55276445Y-78347098D01*
X55274346Y-78345923D01*
X55268857Y-78343649D01*
X55269126Y-78342999D01*
X55223061Y-78317203D01*
X55197443Y-78261638D01*
X55209379Y-78201628D01*
X55254308Y-78160095D01*
X55276442Y-78152903D01*
X55277861Y-78152621D01*
X55295537Y-78145299D01*
X55332244Y-78120773D01*
X55345773Y-78107244D01*
X55370300Y-78070536D01*
X55377619Y-78052867D01*
X55384052Y-78020524D01*
X55385000Y-78010903D01*
X55385000Y-77519680D01*
X55380878Y-77506995D01*
X55376757Y-77504000D01*
X54295000Y-77504000D01*
X54236809Y-77485093D01*
X54200845Y-77435593D01*
X54196000Y-77405000D01*
X54196000Y-76980320D01*
X54704000Y-76980320D01*
X54708122Y-76993005D01*
X54712243Y-76996000D01*
X55369319Y-76996000D01*
X55382004Y-76991878D01*
X55384999Y-76987757D01*
X55384999Y-76489100D01*
X55384051Y-76479473D01*
X55377619Y-76447136D01*
X55370299Y-76429463D01*
X55345773Y-76392756D01*
X55332244Y-76379227D01*
X55295536Y-76354700D01*
X55277867Y-76347381D01*
X55245524Y-76340948D01*
X55235903Y-76340000D01*
X54719680Y-76340000D01*
X54706995Y-76344122D01*
X54704000Y-76348243D01*
X54704000Y-76980320D01*
X54196000Y-76980320D01*
X54196000Y-76355681D01*
X54191878Y-76342996D01*
X54187757Y-76340001D01*
X53664100Y-76340001D01*
X53654471Y-76340949D01*
X53618311Y-76348141D01*
X53557550Y-76340948D01*
X53512622Y-76299414D01*
X53500000Y-76251043D01*
X53500000Y-76198957D01*
X53518907Y-76140766D01*
X53568407Y-76104802D01*
X53618315Y-76101859D01*
X53654478Y-76109053D01*
X53664097Y-76110000D01*
X54180320Y-76110000D01*
X54193005Y-76105878D01*
X54196000Y-76101757D01*
X54196000Y-76094319D01*
X54704000Y-76094319D01*
X54708122Y-76107004D01*
X54712243Y-76109999D01*
X55235900Y-76109999D01*
X55245527Y-76109051D01*
X55277864Y-76102619D01*
X55295537Y-76095299D01*
X55332244Y-76070773D01*
X55345773Y-76057244D01*
X55370300Y-76020536D01*
X55377619Y-76002867D01*
X55384052Y-75970524D01*
X55385000Y-75960903D01*
X55385000Y-75619680D01*
X55380878Y-75606995D01*
X55376757Y-75604000D01*
X54719680Y-75604000D01*
X54706995Y-75608122D01*
X54704000Y-75612243D01*
X54704000Y-76094319D01*
X54196000Y-76094319D01*
X54196000Y-75480812D01*
X56525006Y-75480812D01*
X56525789Y-75493268D01*
X56535194Y-75496000D01*
X56880320Y-75496000D01*
X56893005Y-75491878D01*
X56896000Y-75487757D01*
X56896000Y-75480320D01*
X57404000Y-75480320D01*
X57408122Y-75493005D01*
X57412243Y-75496000D01*
X57761229Y-75496000D01*
X57773914Y-75491878D01*
X57775051Y-75490313D01*
X57775539Y-75485155D01*
X57770720Y-75447005D01*
X57767647Y-75435039D01*
X57713168Y-75297442D01*
X57707218Y-75286619D01*
X57620233Y-75166894D01*
X57611777Y-75157889D01*
X57497752Y-75063559D01*
X57487319Y-75056938D01*
X57418187Y-75024408D01*
X57406886Y-75022980D01*
X57404000Y-75029112D01*
X57404000Y-75480320D01*
X56896000Y-75480320D01*
X56896000Y-75030531D01*
X56892479Y-75019696D01*
X56881805Y-75019696D01*
X56872220Y-75024206D01*
X56747276Y-75103499D01*
X56737757Y-75111373D01*
X56636457Y-75219247D01*
X56629189Y-75229251D01*
X56557899Y-75358926D01*
X56553351Y-75370414D01*
X56525006Y-75480812D01*
X54196000Y-75480812D01*
X54196000Y-75080320D01*
X54704000Y-75080320D01*
X54708122Y-75093005D01*
X54712243Y-75096000D01*
X55369319Y-75096000D01*
X55382004Y-75091878D01*
X55384999Y-75087757D01*
X55384999Y-75019680D01*
X55380877Y-75006995D01*
X55376756Y-75004000D01*
X54719680Y-75004000D01*
X54706995Y-75008122D01*
X54704000Y-75012243D01*
X54704000Y-75080320D01*
X54196000Y-75080320D01*
X54196000Y-74480320D01*
X54704000Y-74480320D01*
X54708122Y-74493005D01*
X54712243Y-74496000D01*
X55313957Y-74496000D01*
X55324792Y-74492479D01*
X55324792Y-74484303D01*
X55310951Y-74450888D01*
X55304516Y-74439741D01*
X55215442Y-74323658D01*
X55206342Y-74314558D01*
X55090256Y-74225481D01*
X55079117Y-74219051D01*
X54943934Y-74163056D01*
X54931501Y-74159725D01*
X54822870Y-74145423D01*
X54816416Y-74145000D01*
X54719680Y-74145000D01*
X54706995Y-74149122D01*
X54704000Y-74153243D01*
X54704000Y-74480320D01*
X54196000Y-74480320D01*
X54196000Y-74160680D01*
X54191878Y-74147995D01*
X54187757Y-74145000D01*
X54083584Y-74145000D01*
X54077130Y-74145423D01*
X53968499Y-74159725D01*
X53956066Y-74163056D01*
X53820883Y-74219051D01*
X53809744Y-74225481D01*
X53693658Y-74314558D01*
X53684557Y-74323659D01*
X53677541Y-74332802D01*
X53627116Y-74367457D01*
X53565952Y-74365854D01*
X53517411Y-74328606D01*
X53500000Y-74272533D01*
X53500000Y-73849000D01*
X53518907Y-73790809D01*
X53568407Y-73754845D01*
X53599000Y-73750000D01*
X58401000Y-73750000D01*
X58459191Y-73768907D01*
G37*
%TD.AperFunction*%
%TD*%
%TA.AperFunction,Conductor*%
%TO.N,/+VUSB*%
G36*
X66517183Y-76518907D02*
G01*
X66528996Y-76528996D01*
X66795996Y-76795996D01*
X66823773Y-76850513D01*
X66814202Y-76910945D01*
X66770937Y-76954210D01*
X66725992Y-76965000D01*
X66703180Y-76965000D01*
X66690495Y-76969122D01*
X66687500Y-76973243D01*
X66687500Y-77276000D01*
X66668593Y-77334191D01*
X66619093Y-77370155D01*
X66588500Y-77375000D01*
X65988753Y-77375000D01*
X65976068Y-77379122D01*
X65959591Y-77401800D01*
X65955090Y-77413301D01*
X65903561Y-77446291D01*
X65878559Y-77449500D01*
X65303508Y-77449500D01*
X65299383Y-77449197D01*
X65294658Y-77447575D01*
X65245239Y-77449430D01*
X65241526Y-77449500D01*
X65222052Y-77449500D01*
X65217622Y-77450325D01*
X65212429Y-77450661D01*
X65196398Y-77451263D01*
X65191925Y-77451431D01*
X65182792Y-77451774D01*
X65174398Y-77455380D01*
X65174395Y-77455381D01*
X65172217Y-77456317D01*
X65151266Y-77462683D01*
X65139947Y-77464791D01*
X65132164Y-77469588D01*
X65132165Y-77469588D01*
X65117272Y-77478768D01*
X65104411Y-77485449D01*
X65089253Y-77491961D01*
X65050176Y-77500000D01*
X58124500Y-77500000D01*
X58066309Y-77481093D01*
X58030345Y-77431593D01*
X58025500Y-77401000D01*
X58025500Y-77380252D01*
X58013867Y-77321769D01*
X57990485Y-77286776D01*
X57973877Y-77227891D01*
X57977269Y-77212738D01*
X57975717Y-77212429D01*
X57984052Y-77170524D01*
X57984639Y-77164569D01*
X57980878Y-77152995D01*
X57976757Y-77150000D01*
X57049000Y-77150000D01*
X56990809Y-77131093D01*
X56975393Y-77109875D01*
X65976163Y-77109875D01*
X65977700Y-77122866D01*
X65977731Y-77122900D01*
X65985778Y-77125000D01*
X66421820Y-77125000D01*
X66434505Y-77120878D01*
X66437500Y-77116757D01*
X66437500Y-76980680D01*
X66433378Y-76967995D01*
X66429257Y-76965000D01*
X66170444Y-76965000D01*
X66160823Y-76965947D01*
X66110244Y-76976009D01*
X66092580Y-76983326D01*
X66035198Y-77021666D01*
X66021666Y-77035198D01*
X65983328Y-77092577D01*
X65976163Y-77109875D01*
X56975393Y-77109875D01*
X56954845Y-77081593D01*
X56950000Y-77051000D01*
X56950000Y-76849000D01*
X56968907Y-76790809D01*
X57018407Y-76754845D01*
X57049000Y-76750000D01*
X57969319Y-76750000D01*
X57982004Y-76745878D01*
X57984999Y-76741757D01*
X57984999Y-76739100D01*
X57984051Y-76729473D01*
X57977619Y-76697136D01*
X57970299Y-76679462D01*
X57953287Y-76654002D01*
X57936678Y-76595114D01*
X57957855Y-76537710D01*
X58008729Y-76503717D01*
X58035602Y-76500000D01*
X66458992Y-76500000D01*
X66517183Y-76518907D01*
G37*
%TD.AperFunction*%
%TD*%
%TA.AperFunction,Conductor*%
%TO.N,/VBATT_RAW*%
G36*
X68334191Y-79331407D02*
G01*
X68370155Y-79380907D01*
X68375000Y-79411500D01*
X68375000Y-80011247D01*
X68379122Y-80023932D01*
X68379158Y-80023959D01*
X68387460Y-80024448D01*
X68389751Y-80023993D01*
X68416429Y-80012942D01*
X68417166Y-80014722D01*
X68464240Y-80001443D01*
X68521645Y-80022617D01*
X68530363Y-80030363D01*
X69500000Y-81000000D01*
X71901000Y-81000000D01*
X71959191Y-81018907D01*
X71995155Y-81068407D01*
X72000000Y-81099000D01*
X72000000Y-81896070D01*
X71981093Y-81954261D01*
X71931593Y-81990225D01*
X71881684Y-81993167D01*
X71870530Y-81990948D01*
X71860903Y-81990000D01*
X71269680Y-81990000D01*
X71256995Y-81994122D01*
X71254000Y-81998243D01*
X71254000Y-83994319D01*
X71258122Y-84007004D01*
X71262243Y-84009999D01*
X71860900Y-84009999D01*
X71870527Y-84009051D01*
X71881688Y-84006831D01*
X71942449Y-84014024D01*
X71987378Y-84055557D01*
X72000000Y-84103929D01*
X72000000Y-84901000D01*
X71981093Y-84959191D01*
X71931593Y-84995155D01*
X71901000Y-85000000D01*
X67599000Y-85000000D01*
X67540809Y-84981093D01*
X67504845Y-84931593D01*
X67500000Y-84901000D01*
X67500000Y-84880101D01*
X67518907Y-84821910D01*
X67566198Y-84786693D01*
X67596591Y-84776020D01*
X67663184Y-84752634D01*
X67772150Y-84672150D01*
X67852634Y-84563184D01*
X67897519Y-84435369D01*
X67900500Y-84403834D01*
X67900500Y-83860900D01*
X69990001Y-83860900D01*
X69990949Y-83870527D01*
X69997381Y-83902864D01*
X70004701Y-83920537D01*
X70029227Y-83957244D01*
X70042756Y-83970773D01*
X70079464Y-83995300D01*
X70097133Y-84002619D01*
X70129476Y-84009052D01*
X70139097Y-84010000D01*
X70730320Y-84010000D01*
X70743005Y-84005878D01*
X70746000Y-84001757D01*
X70746000Y-83269680D01*
X70741878Y-83256995D01*
X70737757Y-83254000D01*
X70005681Y-83254000D01*
X69992996Y-83258122D01*
X69990001Y-83262243D01*
X69990001Y-83860900D01*
X67900500Y-83860900D01*
X67900500Y-83596166D01*
X67897519Y-83564631D01*
X67852634Y-83436816D01*
X67772150Y-83327850D01*
X67683326Y-83262243D01*
X67669136Y-83251762D01*
X67669135Y-83251761D01*
X67663184Y-83247366D01*
X67596591Y-83223980D01*
X67566198Y-83213307D01*
X67517559Y-83176187D01*
X67500000Y-83119899D01*
X67500000Y-82880101D01*
X67518907Y-82821910D01*
X67566198Y-82786693D01*
X67596590Y-82776020D01*
X67663184Y-82752634D01*
X67677747Y-82741878D01*
X67693395Y-82730320D01*
X69990000Y-82730320D01*
X69994122Y-82743005D01*
X69998243Y-82746000D01*
X70730320Y-82746000D01*
X70743005Y-82741878D01*
X70746000Y-82737757D01*
X70746000Y-82005681D01*
X70741878Y-81992996D01*
X70737757Y-81990001D01*
X70139100Y-81990001D01*
X70129473Y-81990949D01*
X70097136Y-81997381D01*
X70079463Y-82004701D01*
X70042756Y-82029227D01*
X70029227Y-82042756D01*
X70004700Y-82079464D01*
X69997381Y-82097133D01*
X69990948Y-82129476D01*
X69990000Y-82139097D01*
X69990000Y-82730320D01*
X67693395Y-82730320D01*
X67766193Y-82676550D01*
X67772150Y-82672150D01*
X67852634Y-82563184D01*
X67897519Y-82435369D01*
X67900500Y-82403834D01*
X67900500Y-81596166D01*
X67897519Y-81564631D01*
X67852634Y-81436816D01*
X67772150Y-81327850D01*
X67663184Y-81247366D01*
X67596591Y-81223980D01*
X67566198Y-81213307D01*
X67517559Y-81176187D01*
X67500000Y-81119899D01*
X67500000Y-80952180D01*
X67510949Y-80914368D01*
X67508402Y-80913352D01*
X67512667Y-80902662D01*
X67522981Y-80883346D01*
X67524322Y-80881391D01*
X67524323Y-80881389D01*
X67529492Y-80873854D01*
X67535641Y-80847941D01*
X67540014Y-80834116D01*
X67547294Y-80815868D01*
X67547294Y-80815866D01*
X67549883Y-80809378D01*
X67550500Y-80803085D01*
X67550500Y-80796916D01*
X67553175Y-80774057D01*
X67553230Y-80773827D01*
X67553230Y-80773825D01*
X67555340Y-80764934D01*
X67551404Y-80736012D01*
X67550500Y-80722663D01*
X67550500Y-80118839D01*
X67569407Y-80060648D01*
X67618907Y-80024684D01*
X67620717Y-80024287D01*
X67622900Y-80022269D01*
X67625000Y-80014222D01*
X67625000Y-80011247D01*
X67875000Y-80011247D01*
X67879122Y-80023932D01*
X67879158Y-80023959D01*
X67887460Y-80024448D01*
X67889751Y-80023993D01*
X67907421Y-80016673D01*
X67944999Y-79991565D01*
X68003888Y-79974957D01*
X68055001Y-79991565D01*
X68092579Y-80016673D01*
X68109875Y-80023837D01*
X68122866Y-80022300D01*
X68122900Y-80022269D01*
X68125000Y-80014222D01*
X68125000Y-79578180D01*
X68120878Y-79565495D01*
X68116757Y-79562500D01*
X67890680Y-79562500D01*
X67877995Y-79566622D01*
X67875000Y-79570743D01*
X67875000Y-80011247D01*
X67625000Y-80011247D01*
X67625000Y-79411500D01*
X67643907Y-79353309D01*
X67693407Y-79317345D01*
X67724000Y-79312500D01*
X68276000Y-79312500D01*
X68334191Y-79331407D01*
G37*
%TD.AperFunction*%
%TD*%
%TA.AperFunction,Conductor*%
%TO.N,/VSYS*%
G36*
X83959191Y-70018907D02*
G01*
X83995155Y-70068407D01*
X84000000Y-70099000D01*
X84000000Y-75401000D01*
X83981093Y-75459191D01*
X83931593Y-75495155D01*
X83901000Y-75500000D01*
X70192503Y-75500000D01*
X70134312Y-75481093D01*
X70098348Y-75431593D01*
X70094350Y-75413922D01*
X70085891Y-75349674D01*
X70085044Y-75343238D01*
X70024536Y-75197159D01*
X69928282Y-75071718D01*
X69890454Y-75042692D01*
X81747790Y-75042692D01*
X81755019Y-75050204D01*
X81835321Y-75095083D01*
X81844149Y-75098940D01*
X82018755Y-75155673D01*
X82028155Y-75157740D01*
X82210460Y-75179478D01*
X82220086Y-75179680D01*
X82403130Y-75165595D01*
X82412621Y-75163922D01*
X82589436Y-75114554D01*
X82598433Y-75111064D01*
X82716931Y-75051207D01*
X82724971Y-75043223D01*
X82719779Y-75032989D01*
X82247086Y-74560296D01*
X82235203Y-74554242D01*
X82230172Y-74555038D01*
X81753267Y-75031943D01*
X81747790Y-75042692D01*
X69890454Y-75042692D01*
X69802841Y-74975464D01*
X69656762Y-74914956D01*
X69500000Y-74894318D01*
X69343238Y-74914956D01*
X69197159Y-74975464D01*
X69071718Y-75071718D01*
X68975464Y-75197159D01*
X68914956Y-75343238D01*
X68894318Y-75500000D01*
X68895165Y-75506434D01*
X68900240Y-75544983D01*
X68889090Y-75605144D01*
X68872091Y-75627909D01*
X68530363Y-75969637D01*
X68475846Y-75997414D01*
X68415414Y-75987843D01*
X68408406Y-75983735D01*
X68390125Y-75976163D01*
X68377134Y-75977700D01*
X68377100Y-75977731D01*
X68375000Y-75985778D01*
X68375000Y-76588500D01*
X68356093Y-76646691D01*
X68306593Y-76682655D01*
X68276000Y-76687500D01*
X67724000Y-76687500D01*
X67665809Y-76668593D01*
X67629845Y-76619093D01*
X67625000Y-76588500D01*
X67625000Y-76421820D01*
X67875000Y-76421820D01*
X67879122Y-76434505D01*
X67883243Y-76437500D01*
X68109320Y-76437500D01*
X68122005Y-76433378D01*
X68125000Y-76429257D01*
X68125000Y-75988753D01*
X68120878Y-75976068D01*
X68120842Y-75976041D01*
X68112540Y-75975552D01*
X68110249Y-75976007D01*
X68092579Y-75983327D01*
X68055001Y-76008435D01*
X67996112Y-76025043D01*
X67944999Y-76008435D01*
X67907421Y-75983327D01*
X67890125Y-75976163D01*
X67877134Y-75977700D01*
X67877100Y-75977731D01*
X67875000Y-75985778D01*
X67875000Y-76421820D01*
X67625000Y-76421820D01*
X67625000Y-75988753D01*
X67620878Y-75976068D01*
X67598200Y-75959591D01*
X67586699Y-75955090D01*
X67553709Y-75903561D01*
X67550500Y-75878559D01*
X67550500Y-75803508D01*
X67550803Y-75799383D01*
X67552425Y-75794658D01*
X67550570Y-75745238D01*
X67550500Y-75741525D01*
X67550500Y-75722052D01*
X67549675Y-75717622D01*
X67549338Y-75712417D01*
X67548569Y-75691926D01*
X67548226Y-75682791D01*
X67543681Y-75672212D01*
X67537317Y-75651263D01*
X67536884Y-75648936D01*
X67536882Y-75648931D01*
X67535209Y-75639947D01*
X67521232Y-75617271D01*
X67514551Y-75604411D01*
X67508039Y-75589253D01*
X67500000Y-75550176D01*
X67500000Y-74880101D01*
X67518907Y-74821910D01*
X67566198Y-74786693D01*
X67596590Y-74776020D01*
X67663184Y-74752634D01*
X67772150Y-74672150D01*
X67852634Y-74563184D01*
X67897519Y-74435369D01*
X67900500Y-74403834D01*
X67900500Y-74180994D01*
X81246234Y-74180994D01*
X81261596Y-74363943D01*
X81263334Y-74373411D01*
X81313936Y-74549884D01*
X81317487Y-74558852D01*
X81374972Y-74670706D01*
X81383099Y-74678777D01*
X81393163Y-74673627D01*
X81865704Y-74201086D01*
X81870946Y-74190797D01*
X82600242Y-74190797D01*
X82601038Y-74195828D01*
X83077884Y-74672674D01*
X83088739Y-74678205D01*
X83096147Y-74671126D01*
X83138266Y-74596984D01*
X83142181Y-74588189D01*
X83200132Y-74413983D01*
X83202266Y-74404589D01*
X83225534Y-74220403D01*
X83225921Y-74214876D01*
X83226229Y-74192770D01*
X83225998Y-74187242D01*
X83207880Y-74002474D01*
X83206010Y-73993026D01*
X83152946Y-73817270D01*
X83149277Y-73808366D01*
X83096780Y-73709635D01*
X83088363Y-73701507D01*
X83078645Y-73706565D01*
X82606296Y-74178914D01*
X82600242Y-74190797D01*
X81870946Y-74190797D01*
X81871758Y-74189203D01*
X81870962Y-74184172D01*
X81393963Y-73707173D01*
X81383321Y-73701751D01*
X81375707Y-73709129D01*
X81328145Y-73795644D01*
X81324346Y-73804509D01*
X81268836Y-73979497D01*
X81266832Y-73988925D01*
X81246368Y-74171366D01*
X81246234Y-74180994D01*
X67900500Y-74180994D01*
X67900500Y-74099000D01*
X67919407Y-74040809D01*
X67968907Y-74004845D01*
X67999500Y-74000000D01*
X76500000Y-74000000D01*
X77079786Y-73337387D01*
X81747382Y-73337387D01*
X81752486Y-73347276D01*
X82224914Y-73819704D01*
X82236797Y-73825758D01*
X82241828Y-73824962D01*
X82718957Y-73347833D01*
X82724324Y-73337299D01*
X82716796Y-73329584D01*
X82623998Y-73279408D01*
X82615127Y-73275679D01*
X82439742Y-73221388D01*
X82430310Y-73219452D01*
X82247729Y-73200262D01*
X82238091Y-73200195D01*
X82055262Y-73216833D01*
X82045796Y-73218639D01*
X81869678Y-73270474D01*
X81860754Y-73274079D01*
X81755484Y-73329113D01*
X81747382Y-73337387D01*
X77079786Y-73337387D01*
X77810144Y-72502692D01*
X81747790Y-72502692D01*
X81755019Y-72510204D01*
X81835321Y-72555083D01*
X81844149Y-72558940D01*
X82018755Y-72615673D01*
X82028155Y-72617740D01*
X82210460Y-72639478D01*
X82220086Y-72639680D01*
X82403130Y-72625595D01*
X82412621Y-72623922D01*
X82589436Y-72574554D01*
X82598433Y-72571064D01*
X82716931Y-72511207D01*
X82724971Y-72503223D01*
X82719779Y-72492989D01*
X82247086Y-72020296D01*
X82235203Y-72014242D01*
X82230172Y-72015038D01*
X81753267Y-72491943D01*
X81747790Y-72502692D01*
X77810144Y-72502692D01*
X78564130Y-71640994D01*
X81246234Y-71640994D01*
X81261596Y-71823943D01*
X81263334Y-71833411D01*
X81313936Y-72009884D01*
X81317487Y-72018852D01*
X81374972Y-72130706D01*
X81383099Y-72138777D01*
X81393163Y-72133627D01*
X81865704Y-71661086D01*
X81870946Y-71650797D01*
X82600242Y-71650797D01*
X82601038Y-71655828D01*
X83077884Y-72132674D01*
X83088739Y-72138205D01*
X83096147Y-72131126D01*
X83138266Y-72056984D01*
X83142181Y-72048189D01*
X83200132Y-71873983D01*
X83202266Y-71864589D01*
X83225534Y-71680403D01*
X83225921Y-71674876D01*
X83226229Y-71652770D01*
X83225998Y-71647242D01*
X83207880Y-71462474D01*
X83206010Y-71453026D01*
X83152946Y-71277270D01*
X83149277Y-71268366D01*
X83096780Y-71169635D01*
X83088363Y-71161507D01*
X83078645Y-71166565D01*
X82606296Y-71638914D01*
X82600242Y-71650797D01*
X81870946Y-71650797D01*
X81871758Y-71649203D01*
X81870962Y-71644172D01*
X81393963Y-71167173D01*
X81383321Y-71161751D01*
X81375707Y-71169129D01*
X81328145Y-71255644D01*
X81324346Y-71264509D01*
X81268836Y-71439497D01*
X81266832Y-71448925D01*
X81246368Y-71631366D01*
X81246234Y-71640994D01*
X78564130Y-71640994D01*
X79302286Y-70797387D01*
X81747382Y-70797387D01*
X81752486Y-70807276D01*
X82224914Y-71279704D01*
X82236797Y-71285758D01*
X82241828Y-71284962D01*
X82718957Y-70807833D01*
X82724324Y-70797299D01*
X82716796Y-70789584D01*
X82623998Y-70739408D01*
X82615127Y-70735679D01*
X82439742Y-70681388D01*
X82430310Y-70679452D01*
X82247729Y-70660262D01*
X82238091Y-70660195D01*
X82055262Y-70676833D01*
X82045796Y-70678639D01*
X81869678Y-70730474D01*
X81860754Y-70734079D01*
X81755484Y-70789113D01*
X81747382Y-70797387D01*
X79302286Y-70797387D01*
X79970418Y-70033808D01*
X80022966Y-70002466D01*
X80044923Y-70000000D01*
X83901000Y-70000000D01*
X83959191Y-70018907D01*
G37*
%TD.AperFunction*%
%TD*%
%TA.AperFunction,Conductor*%
%TO.N,GND*%
G36*
X61209191Y-79268907D02*
G01*
X61245155Y-79318407D01*
X61250000Y-79349000D01*
X61250000Y-83401000D01*
X61231093Y-83459191D01*
X61181593Y-83495155D01*
X61151000Y-83500000D01*
X58599000Y-83500000D01*
X58540809Y-83481093D01*
X58504845Y-83431593D01*
X58500000Y-83401000D01*
X58500000Y-80000000D01*
X58035602Y-80000000D01*
X57977411Y-79981093D01*
X57941447Y-79931593D01*
X57941447Y-79870407D01*
X57953287Y-79845998D01*
X57970300Y-79820536D01*
X57977619Y-79802867D01*
X57984052Y-79770524D01*
X57984639Y-79764569D01*
X57980878Y-79752995D01*
X57976757Y-79750000D01*
X57049000Y-79750000D01*
X56990809Y-79731093D01*
X56954845Y-79681593D01*
X56950000Y-79651000D01*
X56950000Y-79449000D01*
X56968907Y-79390809D01*
X57018407Y-79354845D01*
X57049000Y-79350000D01*
X57969319Y-79350000D01*
X57982004Y-79345878D01*
X57985091Y-79341630D01*
X57986218Y-79334514D01*
X57989535Y-79335039D01*
X58003906Y-79290809D01*
X58053406Y-79254845D01*
X58083999Y-79250000D01*
X61151000Y-79250000D01*
X61209191Y-79268907D01*
G37*
%TD.AperFunction*%
%TD*%
M02*
