%TF.GenerationSoftware,KiCad,Pcbnew,(6.0.4)*%
%TF.CreationDate,2022-11-18T09:58:05-05:00*%
%TF.ProjectId,NFFPCB,4e464650-4342-42e6-9b69-6361645f7063,rev?*%
%TF.SameCoordinates,Original*%
%TF.FileFunction,Soldermask,Bot*%
%TF.FilePolarity,Negative*%
%FSLAX46Y46*%
G04 Gerber Fmt 4.6, Leading zero omitted, Abs format (unit mm)*
G04 Created by KiCad (PCBNEW (6.0.4)) date 2022-11-18 09:58:05*
%MOMM*%
%LPD*%
G01*
G04 APERTURE LIST*
%ADD10C,2.000000*%
%ADD11C,1.651000*%
%ADD12R,1.700000X1.700000*%
%ADD13O,1.700000X1.700000*%
%ADD14O,0.950000X1.250000*%
%ADD15O,1.550000X0.890000*%
G04 APERTURE END LIST*
D10*
%TO.C,TPVUSB1*%
X60500000Y-74000000D03*
%TD*%
%TO.C,TPVSYS1*%
X75500000Y-79000000D03*
%TD*%
%TO.C,TPISET1*%
X59500000Y-87500000D03*
%TD*%
%TO.C,TPILIM1*%
X63000000Y-70500000D03*
%TD*%
%TO.C,TPBATTRAW1*%
X126500000Y-84500000D03*
%TD*%
%TO.C,TP!PGOOD1*%
X75500000Y-69000000D03*
%TD*%
%TO.C,TP!CHG1*%
X72000000Y-64500000D03*
%TD*%
D11*
%TO.C,MOD1*%
X115764000Y-79270000D03*
X82236000Y-76730000D03*
X115764000Y-76730000D03*
X82236000Y-79270000D03*
X82236000Y-74190000D03*
X82236000Y-71650000D03*
X82236000Y-81810000D03*
X82236000Y-84350000D03*
X115764000Y-71650000D03*
X115764000Y-74190000D03*
X115764000Y-81810000D03*
X115764000Y-84350000D03*
%TD*%
D12*
%TO.C,U1*%
X111120000Y-43000000D03*
D13*
X113660000Y-43000000D03*
X116200000Y-43000000D03*
X118740000Y-43000000D03*
%TD*%
D12*
%TO.C,J5*%
X56000000Y-56800000D03*
D13*
X56000000Y-54260000D03*
X56000000Y-51720000D03*
X56000000Y-49180000D03*
%TD*%
D12*
%TO.C,J4*%
X56000000Y-68800000D03*
D13*
X56000000Y-66260000D03*
X56000000Y-63720000D03*
X56000000Y-61180000D03*
%TD*%
D12*
%TO.C,J3*%
X56000000Y-42460000D03*
D13*
X56000000Y-45000000D03*
%TD*%
D14*
%TO.C,J1*%
X57150000Y-75750000D03*
D15*
X54450000Y-81750000D03*
D14*
X57150000Y-80750000D03*
D15*
X54450000Y-74750000D03*
%TD*%
D12*
%TO.C,U2*%
X62380000Y-43189500D03*
D13*
X62380000Y-45729500D03*
X62380000Y-48269500D03*
X62380000Y-50809500D03*
X62380000Y-53349500D03*
X62380000Y-55889500D03*
X62380000Y-58429500D03*
X77620000Y-58429500D03*
X77620000Y-55889500D03*
X77620000Y-53349500D03*
X77620000Y-50809500D03*
X77620000Y-48269500D03*
X77620000Y-45729500D03*
D12*
X77620000Y-43189500D03*
%TD*%
%TO.C,J2*%
X71000000Y-83000000D03*
D13*
X73540000Y-83000000D03*
%TD*%
%TO.C,U3*%
X98810000Y-43110000D03*
X96270000Y-43110000D03*
X93730000Y-43110000D03*
X91190000Y-43110000D03*
D12*
X88650000Y-60890000D03*
D13*
X91190000Y-60890000D03*
X93730000Y-60890000D03*
X96270000Y-60890000D03*
X98810000Y-60890000D03*
X101350000Y-60890000D03*
%TD*%
D12*
%TO.C,U5*%
X111200000Y-50000000D03*
D13*
X113740000Y-50000000D03*
X116280000Y-50000000D03*
X118820000Y-50000000D03*
%TD*%
M02*
