M48
; DRILL file {KiCad (6.0.4)} date Fri Nov 18 09:58:07 2022
; FORMAT={-:-/ absolute / inch / decimal}
; #@! TF.CreationDate,2022-11-18T09:58:07-05:00
; #@! TF.GenerationSoftware,Kicad,Pcbnew,(6.0.4)
; #@! TF.FileFunction,Plated,1,4,PTH
FMAT,2
INCH
; #@! TA.AperFunction,Plated,PTH,ViaDrill
T1C0.0157
; #@! TA.AperFunction,Plated,PTH,ComponentDrill
T2C0.0197
; #@! TA.AperFunction,Plated,PTH,ComponentDrill
T3C0.0217
; #@! TA.AperFunction,Plated,PTH,ComponentDrill
T4C0.0394
; #@! TA.AperFunction,Plated,PTH,ComponentDrill
T5C0.0400
%
G90
G05
T1
X2.3327Y-3.1398
X2.3327Y-3.1988
X2.3327Y-3.2579
X2.3819Y-3.1398
X2.3819Y-3.1988
X2.3819Y-3.2579
X2.4114Y-3.0906
X2.4213Y-2.4606
X2.4803Y-2.4606
X2.5197Y-3.3661
X2.5591Y-3.0315
X2.6378Y-2.7165
X2.6378Y-2.7854
X2.6378Y-3.3661
X2.7362Y-2.8346
X2.7362Y-2.9724
X2.7756Y-2.8543
X2.7756Y-3.0217
X2.7756Y-3.1299
X2.7953Y-3.0906
X2.8248Y-3.061
X2.9724Y-2.874
X3.1274Y-2.2466
X3.1496Y-2.1752
X3.2579Y-2.1161
X3.2677Y-2.185
X3.8583Y-2.1949
X3.9075Y-2.2441
X4.4291Y-2.3031
X4.4291Y-2.4016
X4.6457Y-2.3031
X4.7244Y-2.3031
X5.0295Y-2.1457
X5.0812Y-1.9783
X5.2461Y-1.8701
X5.3445Y-1.8701
X5.374Y-1.7618
X5.4626Y-1.7126
X5.4626Y-2.2244
T4
X2.2047Y-1.6717
X2.2047Y-1.7717
X2.2047Y-1.9362
X2.2047Y-2.0362
X2.2047Y-2.1362
X2.2047Y-2.2362
X2.2047Y-2.4087
X2.2047Y-2.5087
X2.2047Y-2.6087
X2.2047Y-2.7087
X2.3425Y-3.4449
X2.3819Y-2.9134
X2.4559Y-1.7004
X2.4559Y-1.8004
X2.4559Y-1.9004
X2.4559Y-2.0004
X2.4559Y-2.1004
X2.4559Y-2.2004
X2.4559Y-2.3004
X2.4803Y-2.7756
X2.7953Y-3.2677
X2.8346Y-2.5394
X2.8953Y-3.2677
X2.9724Y-2.7165
X2.9724Y-3.1102
X3.0559Y-1.7004
X3.0559Y-1.8004
X3.0559Y-1.9004
X3.0559Y-2.0004
X3.0559Y-2.1004
X3.0559Y-2.2004
X3.0559Y-2.3004
X3.4902Y-2.3972
X3.5902Y-1.6972
X3.5902Y-2.3972
X3.6902Y-1.6972
X3.6902Y-2.3972
X3.7902Y-1.6972
X3.7902Y-2.3972
X3.8902Y-1.6972
X3.8902Y-2.3972
X3.9902Y-2.3972
X4.3748Y-1.6929
X4.378Y-1.9685
X4.4748Y-1.6929
X4.478Y-1.9685
X4.5748Y-1.6929
X4.578Y-1.9685
X4.6748Y-1.6929
X4.678Y-1.9685
X4.9803Y-3.3268
T5
X3.2376Y-2.8209
X3.2376Y-2.9209
X3.2376Y-3.0209
X3.2376Y-3.1209
X3.2376Y-3.2209
X3.2376Y-3.3209
X4.5576Y-2.8209
X4.5576Y-2.9209
X4.5576Y-3.0209
X4.5576Y-3.1209
X4.5576Y-3.2209
X4.5576Y-3.3209
T2
G00X2.1565Y-2.9429
M15
G01X2.1309Y-2.9429
M16
G05
G00X2.1565Y-3.2185
M15
G01X2.1309Y-3.2185
M16
G05
T3
G00X2.25Y-2.9764
M15
G01X2.25Y-2.9882
M16
G05
G00X2.25Y-3.1732
M15
G01X2.25Y-3.185
M16
G05
T0
M30
