%TF.GenerationSoftware,KiCad,Pcbnew,(6.0.4)*%
%TF.CreationDate,2022-11-18T09:58:05-05:00*%
%TF.ProjectId,NFFPCB,4e464650-4342-42e6-9b69-6361645f7063,rev?*%
%TF.SameCoordinates,Original*%
%TF.FileFunction,Copper,L3,Inr*%
%TF.FilePolarity,Positive*%
%FSLAX46Y46*%
G04 Gerber Fmt 4.6, Leading zero omitted, Abs format (unit mm)*
G04 Created by KiCad (PCBNEW (6.0.4)) date 2022-11-18 09:58:05*
%MOMM*%
%LPD*%
G01*
G04 APERTURE LIST*
%TA.AperFunction,ComponentPad*%
%ADD10C,2.000000*%
%TD*%
%TA.AperFunction,ComponentPad*%
%ADD11C,1.651000*%
%TD*%
%TA.AperFunction,ComponentPad*%
%ADD12R,1.700000X1.700000*%
%TD*%
%TA.AperFunction,ComponentPad*%
%ADD13O,1.700000X1.700000*%
%TD*%
%TA.AperFunction,ComponentPad*%
%ADD14O,0.950000X1.250000*%
%TD*%
%TA.AperFunction,ComponentPad*%
%ADD15O,1.550000X0.890000*%
%TD*%
%TA.AperFunction,ViaPad*%
%ADD16C,0.800000*%
%TD*%
G04 APERTURE END LIST*
D10*
%TO.N,/+VUSB*%
%TO.C,TPVUSB1*%
X60500000Y-74000000D03*
%TD*%
%TO.N,/VSYS*%
%TO.C,TPVSYS1*%
X75500000Y-79000000D03*
%TD*%
%TO.N,Net-(R3-Pad2)*%
%TO.C,TPISET1*%
X59500000Y-87500000D03*
%TD*%
%TO.N,Net-(R2-Pad2)*%
%TO.C,TPILIM1*%
X63000000Y-70500000D03*
%TD*%
%TO.N,/VBATT_RAW*%
%TO.C,TPBATTRAW1*%
X126500000Y-84500000D03*
%TD*%
%TO.N,/!PGOOD*%
%TO.C,TP!PGOOD1*%
X75500000Y-69000000D03*
%TD*%
%TO.N,/!CHG*%
%TO.C,TP!CHG1*%
X72000000Y-64500000D03*
%TD*%
D11*
%TO.N,*%
%TO.C,MOD1*%
X115764000Y-79270000D03*
X82236000Y-76730000D03*
X115764000Y-76730000D03*
X82236000Y-79270000D03*
%TO.N,/VSYS*%
X82236000Y-74190000D03*
X82236000Y-71650000D03*
%TO.N,GND*%
X82236000Y-81810000D03*
X82236000Y-84350000D03*
%TO.N,+3V3*%
X115764000Y-71650000D03*
X115764000Y-74190000D03*
%TO.N,GND*%
X115764000Y-81810000D03*
X115764000Y-84350000D03*
%TD*%
D12*
%TO.N,GND*%
%TO.C,U1*%
X111120000Y-43000000D03*
D13*
%TO.N,+3V3*%
X113660000Y-43000000D03*
%TO.N,/SCL*%
X116200000Y-43000000D03*
%TO.N,/SDA*%
X118740000Y-43000000D03*
%TD*%
D12*
%TO.N,/SCL*%
%TO.C,J5*%
X56000000Y-56800000D03*
D13*
%TO.N,/SDA*%
X56000000Y-54260000D03*
%TO.N,GND*%
X56000000Y-51720000D03*
%TO.N,+3V3*%
X56000000Y-49180000D03*
%TD*%
D12*
%TO.N,/TX_FROM_MICRO*%
%TO.C,J4*%
X56000000Y-68800000D03*
D13*
%TO.N,/RX_TO_MICRO*%
X56000000Y-66260000D03*
%TO.N,GND*%
X56000000Y-63720000D03*
%TO.N,+3V3*%
X56000000Y-61180000D03*
%TD*%
D12*
%TO.N,/BUTTON*%
%TO.C,J3*%
X56000000Y-42460000D03*
D13*
%TO.N,GND*%
X56000000Y-45000000D03*
%TD*%
D14*
%TO.N,unconnected-(J1-Pad6)*%
%TO.C,J1*%
X57150000Y-75750000D03*
D15*
X54450000Y-81750000D03*
D14*
X57150000Y-80750000D03*
D15*
X54450000Y-74750000D03*
%TD*%
D12*
%TO.N,/BUTTON*%
%TO.C,U2*%
X62380000Y-43189500D03*
D13*
%TO.N,unconnected-(U2-Pad2)*%
X62380000Y-45729500D03*
%TO.N,/OLED_EN*%
X62380000Y-48269500D03*
%TO.N,/BNO_RST*%
X62380000Y-50809500D03*
%TO.N,/SDA*%
X62380000Y-53349500D03*
%TO.N,/SCL*%
X62380000Y-55889500D03*
%TO.N,/TX_FROM_MICRO*%
X62380000Y-58429500D03*
%TO.N,/RX_TO_MICRO*%
X77620000Y-58429500D03*
%TO.N,/!CHG*%
X77620000Y-55889500D03*
%TO.N,/!PGOOD*%
X77620000Y-53349500D03*
%TO.N,unconnected-(U2-Pad11)*%
X77620000Y-50809500D03*
%TO.N,+3V3*%
X77620000Y-48269500D03*
%TO.N,GND*%
X77620000Y-45729500D03*
D12*
%TO.N,unconnected-(U2-Pad14)*%
X77620000Y-43189500D03*
%TD*%
%TO.N,/VBATT_RAW*%
%TO.C,J2*%
X71000000Y-83000000D03*
D13*
%TO.N,GND*%
X73540000Y-83000000D03*
%TD*%
%TO.N,unconnected-(U3-Pad1)*%
%TO.C,U3*%
X98810000Y-43110000D03*
%TO.N,unconnected-(U3-Pad2)*%
X96270000Y-43110000D03*
%TO.N,unconnected-(U3-Pad3)*%
X93730000Y-43110000D03*
%TO.N,unconnected-(U3-Pad4)*%
X91190000Y-43110000D03*
D12*
%TO.N,unconnected-(U3-Pad5)*%
X88650000Y-60890000D03*
D13*
%TO.N,+3V3*%
X91190000Y-60890000D03*
%TO.N,GND*%
X93730000Y-60890000D03*
%TO.N,/SCL*%
X96270000Y-60890000D03*
%TO.N,/SDA*%
X98810000Y-60890000D03*
%TO.N,/BNO_RST*%
X101350000Y-60890000D03*
%TD*%
D12*
%TO.N,GND*%
%TO.C,U5*%
X111200000Y-50000000D03*
D13*
%TO.N,+3V3*%
X113740000Y-50000000D03*
%TO.N,/SCL*%
X116280000Y-50000000D03*
%TO.N,/SDA*%
X118820000Y-50000000D03*
%TD*%
D16*
%TO.N,GND*%
X59250000Y-82750000D03*
X138750000Y-56500000D03*
X67000000Y-70750000D03*
X136500000Y-44750000D03*
X127750000Y-54500000D03*
X135750000Y-47500000D03*
X61250000Y-78500000D03*
X60500000Y-79750000D03*
X64000000Y-85500000D03*
X70500000Y-79500000D03*
X59250000Y-81250000D03*
X133250000Y-47500000D03*
X70500000Y-76750000D03*
X138750000Y-43500000D03*
X60500000Y-81250000D03*
X60500000Y-82750000D03*
X59250000Y-79750000D03*
X129062500Y-50250000D03*
X67000000Y-85500000D03*
%TO.N,/+VUSB*%
X65000000Y-77000000D03*
X71000000Y-78500000D03*
%TO.N,/RX_TO_MICRO*%
X63000000Y-62500000D03*
X61500000Y-62500000D03*
%TO.N,+3V3*%
X70500000Y-72500000D03*
X112500000Y-58500000D03*
X67000000Y-69000000D03*
X112500000Y-61000000D03*
%TO.N,/SCL*%
X118000000Y-58500000D03*
X83000000Y-55500000D03*
X79435989Y-57064011D03*
X120000000Y-58500000D03*
%TO.N,/SDA*%
X99250000Y-57000000D03*
X82750000Y-53750000D03*
X80000000Y-55250000D03*
X98000000Y-55750000D03*
%TO.N,/!CHG*%
X69500000Y-75500000D03*
X69500000Y-72000000D03*
%TO.N,/!PGOOD*%
X71749999Y-77750001D03*
X75500000Y-73000000D03*
%TD*%
%TA.AperFunction,Conductor*%
%TO.N,+3V3*%
G36*
X152459191Y-39518907D02*
G01*
X152495155Y-39568407D01*
X152500000Y-39599000D01*
X152500000Y-90401000D01*
X152481093Y-90459191D01*
X152431593Y-90495155D01*
X152401000Y-90500000D01*
X53599000Y-90500000D01*
X53540809Y-90481093D01*
X53504845Y-90431593D01*
X53500000Y-90401000D01*
X53500000Y-87468440D01*
X58294770Y-87468440D01*
X58309200Y-87688604D01*
X58310316Y-87692997D01*
X58310316Y-87692999D01*
X58333873Y-87785754D01*
X58363511Y-87902452D01*
X58455883Y-88102821D01*
X58583222Y-88283002D01*
X58741264Y-88436961D01*
X58924717Y-88559540D01*
X59127436Y-88646635D01*
X59205165Y-88664223D01*
X59338206Y-88694328D01*
X59338211Y-88694329D01*
X59342632Y-88695329D01*
X59452865Y-88699660D01*
X59558565Y-88703813D01*
X59558566Y-88703813D01*
X59563098Y-88703991D01*
X59781452Y-88672331D01*
X59785751Y-88670872D01*
X59785754Y-88670871D01*
X59986078Y-88602870D01*
X59990379Y-88601410D01*
X60061944Y-88561332D01*
X60178925Y-88495819D01*
X60182884Y-88493602D01*
X60352518Y-88352518D01*
X60493602Y-88182884D01*
X60601410Y-87990379D01*
X60672331Y-87781452D01*
X60685156Y-87692999D01*
X60703571Y-87565997D01*
X60703571Y-87565991D01*
X60703991Y-87563098D01*
X60705643Y-87500000D01*
X60685454Y-87280289D01*
X60625565Y-87067936D01*
X60623557Y-87063864D01*
X60623555Y-87063859D01*
X60529988Y-86874125D01*
X60527980Y-86870053D01*
X60395967Y-86693267D01*
X60233949Y-86543499D01*
X60047350Y-86425764D01*
X59842421Y-86344006D01*
X59626024Y-86300962D01*
X59517347Y-86299539D01*
X59409946Y-86298133D01*
X59409941Y-86298133D01*
X59405406Y-86298074D01*
X59400933Y-86298843D01*
X59400928Y-86298843D01*
X59192435Y-86334668D01*
X59192429Y-86334670D01*
X59187957Y-86335438D01*
X59160176Y-86345687D01*
X58985220Y-86410231D01*
X58985217Y-86410232D01*
X58980957Y-86411804D01*
X58977054Y-86414126D01*
X58977052Y-86414127D01*
X58957492Y-86425764D01*
X58791341Y-86524614D01*
X58787926Y-86527609D01*
X58787923Y-86527611D01*
X58680036Y-86622225D01*
X58625457Y-86670090D01*
X58488863Y-86843360D01*
X58386131Y-87038620D01*
X58320703Y-87249333D01*
X58320169Y-87253843D01*
X58320169Y-87253844D01*
X58317039Y-87280289D01*
X58294770Y-87468440D01*
X53500000Y-87468440D01*
X53500000Y-85500000D01*
X63394318Y-85500000D01*
X63414956Y-85656762D01*
X63475464Y-85802841D01*
X63571718Y-85928282D01*
X63697159Y-86024536D01*
X63843238Y-86085044D01*
X64000000Y-86105682D01*
X64156762Y-86085044D01*
X64302841Y-86024536D01*
X64428282Y-85928282D01*
X64524536Y-85802841D01*
X64585044Y-85656762D01*
X64605682Y-85500000D01*
X66394318Y-85500000D01*
X66414956Y-85656762D01*
X66475464Y-85802841D01*
X66571718Y-85928282D01*
X66697159Y-86024536D01*
X66843238Y-86085044D01*
X67000000Y-86105682D01*
X67156762Y-86085044D01*
X67302841Y-86024536D01*
X67428282Y-85928282D01*
X67524536Y-85802841D01*
X67585044Y-85656762D01*
X67605682Y-85500000D01*
X67585044Y-85343238D01*
X67524536Y-85197159D01*
X67428282Y-85071718D01*
X67302841Y-84975464D01*
X67156762Y-84914956D01*
X67000000Y-84894318D01*
X66843238Y-84914956D01*
X66697159Y-84975464D01*
X66571718Y-85071718D01*
X66475464Y-85197159D01*
X66414956Y-85343238D01*
X66394318Y-85500000D01*
X64605682Y-85500000D01*
X64585044Y-85343238D01*
X64524536Y-85197159D01*
X64428282Y-85071718D01*
X64302841Y-84975464D01*
X64156762Y-84914956D01*
X64000000Y-84894318D01*
X63843238Y-84914956D01*
X63697159Y-84975464D01*
X63571718Y-85071718D01*
X63475464Y-85197159D01*
X63414956Y-85343238D01*
X63394318Y-85500000D01*
X53500000Y-85500000D01*
X53500000Y-84335605D01*
X81205136Y-84335605D01*
X81208529Y-84376011D01*
X81219186Y-84502914D01*
X81221973Y-84536109D01*
X81223306Y-84540757D01*
X81223306Y-84540758D01*
X81265701Y-84688604D01*
X81277434Y-84729523D01*
X81369406Y-84908482D01*
X81494387Y-85066168D01*
X81498067Y-85069300D01*
X81498069Y-85069302D01*
X81537454Y-85102821D01*
X81647615Y-85196575D01*
X81651838Y-85198935D01*
X81651842Y-85198938D01*
X81765812Y-85262633D01*
X81823255Y-85294737D01*
X81827853Y-85296231D01*
X82010011Y-85355418D01*
X82010013Y-85355419D01*
X82014616Y-85356914D01*
X82214409Y-85380738D01*
X82219231Y-85380367D01*
X82219233Y-85380367D01*
X82410197Y-85365673D01*
X82410202Y-85365672D01*
X82415025Y-85365301D01*
X82608822Y-85311192D01*
X82613135Y-85309013D01*
X82613141Y-85309011D01*
X82784097Y-85222655D01*
X82784099Y-85222653D01*
X82788418Y-85220472D01*
X82946973Y-85096595D01*
X82950135Y-85092932D01*
X82950140Y-85092927D01*
X83048120Y-84979415D01*
X83078447Y-84944281D01*
X83099871Y-84906569D01*
X83175439Y-84773544D01*
X83175440Y-84773542D01*
X83177832Y-84769331D01*
X83241344Y-84578409D01*
X83266562Y-84378786D01*
X83266964Y-84350000D01*
X83266026Y-84340425D01*
X83265553Y-84335605D01*
X114733136Y-84335605D01*
X114736529Y-84376011D01*
X114747186Y-84502914D01*
X114749973Y-84536109D01*
X114751306Y-84540757D01*
X114751306Y-84540758D01*
X114793701Y-84688604D01*
X114805434Y-84729523D01*
X114897406Y-84908482D01*
X115022387Y-85066168D01*
X115026067Y-85069300D01*
X115026069Y-85069302D01*
X115065454Y-85102821D01*
X115175615Y-85196575D01*
X115179838Y-85198935D01*
X115179842Y-85198938D01*
X115293812Y-85262633D01*
X115351255Y-85294737D01*
X115355853Y-85296231D01*
X115538011Y-85355418D01*
X115538013Y-85355419D01*
X115542616Y-85356914D01*
X115742409Y-85380738D01*
X115747231Y-85380367D01*
X115747233Y-85380367D01*
X115938197Y-85365673D01*
X115938202Y-85365672D01*
X115943025Y-85365301D01*
X116136822Y-85311192D01*
X116141135Y-85309013D01*
X116141141Y-85309011D01*
X116312097Y-85222655D01*
X116312099Y-85222653D01*
X116316418Y-85220472D01*
X116474973Y-85096595D01*
X116478135Y-85092932D01*
X116478140Y-85092927D01*
X116576120Y-84979415D01*
X116606447Y-84944281D01*
X116627871Y-84906569D01*
X116703439Y-84773544D01*
X116703440Y-84773542D01*
X116705832Y-84769331D01*
X116769344Y-84578409D01*
X116783236Y-84468440D01*
X125294770Y-84468440D01*
X125309200Y-84688604D01*
X125310316Y-84692997D01*
X125310316Y-84692999D01*
X125333873Y-84785754D01*
X125363511Y-84902452D01*
X125455883Y-85102821D01*
X125583222Y-85283002D01*
X125741264Y-85436961D01*
X125924717Y-85559540D01*
X126127436Y-85646635D01*
X126172191Y-85656762D01*
X126338206Y-85694328D01*
X126338211Y-85694329D01*
X126342632Y-85695329D01*
X126452865Y-85699660D01*
X126558565Y-85703813D01*
X126558566Y-85703813D01*
X126563098Y-85703991D01*
X126781452Y-85672331D01*
X126785751Y-85670872D01*
X126785754Y-85670871D01*
X126986078Y-85602870D01*
X126990379Y-85601410D01*
X127061944Y-85561332D01*
X127159971Y-85506434D01*
X127182884Y-85493602D01*
X127338714Y-85363999D01*
X127349024Y-85355424D01*
X127352518Y-85352518D01*
X127493602Y-85182884D01*
X127601410Y-84990379D01*
X127618487Y-84940071D01*
X127670871Y-84785754D01*
X127670872Y-84785751D01*
X127672331Y-84781452D01*
X127676051Y-84755795D01*
X127703571Y-84565997D01*
X127703571Y-84565991D01*
X127703991Y-84563098D01*
X127705643Y-84500000D01*
X127685454Y-84280289D01*
X127625565Y-84067936D01*
X127623557Y-84063864D01*
X127623555Y-84063859D01*
X127529988Y-83874125D01*
X127527980Y-83870053D01*
X127395967Y-83693267D01*
X127268690Y-83575613D01*
X127237279Y-83546577D01*
X127237278Y-83546576D01*
X127233949Y-83543499D01*
X127157546Y-83495292D01*
X127051187Y-83428185D01*
X127047350Y-83425764D01*
X126842421Y-83344006D01*
X126626024Y-83300962D01*
X126517347Y-83299539D01*
X126409946Y-83298133D01*
X126409941Y-83298133D01*
X126405406Y-83298074D01*
X126400933Y-83298843D01*
X126400928Y-83298843D01*
X126192435Y-83334668D01*
X126192429Y-83334670D01*
X126187957Y-83335438D01*
X126160176Y-83345687D01*
X125985220Y-83410231D01*
X125985217Y-83410232D01*
X125980957Y-83411804D01*
X125977054Y-83414126D01*
X125977052Y-83414127D01*
X125959188Y-83424755D01*
X125791341Y-83524614D01*
X125787926Y-83527609D01*
X125787923Y-83527611D01*
X125700522Y-83604260D01*
X125625457Y-83670090D01*
X125622649Y-83673652D01*
X125535858Y-83783747D01*
X125488863Y-83843360D01*
X125486749Y-83847378D01*
X125390162Y-84030959D01*
X125386131Y-84038620D01*
X125320703Y-84249333D01*
X125320169Y-84253843D01*
X125320169Y-84253844D01*
X125309115Y-84347242D01*
X125294770Y-84468440D01*
X116783236Y-84468440D01*
X116794562Y-84378786D01*
X116794964Y-84350000D01*
X116794026Y-84340425D01*
X116775801Y-84154569D01*
X116775329Y-84149751D01*
X116717174Y-83957130D01*
X116622712Y-83779473D01*
X116612871Y-83767406D01*
X116498603Y-83627300D01*
X116498602Y-83627299D01*
X116495542Y-83623547D01*
X116340508Y-83495292D01*
X116186101Y-83411804D01*
X116167769Y-83401892D01*
X116167768Y-83401892D01*
X116163515Y-83399592D01*
X116102169Y-83380602D01*
X115975925Y-83341523D01*
X115975921Y-83341522D01*
X115971304Y-83340093D01*
X115966496Y-83339588D01*
X115966493Y-83339587D01*
X115776013Y-83319567D01*
X115776011Y-83319567D01*
X115771197Y-83319061D01*
X115705064Y-83325080D01*
X115575637Y-83336858D01*
X115575634Y-83336859D01*
X115570817Y-83337297D01*
X115566175Y-83338663D01*
X115566171Y-83338664D01*
X115382441Y-83392739D01*
X115382438Y-83392740D01*
X115377794Y-83394107D01*
X115199482Y-83487326D01*
X115042672Y-83613404D01*
X115039565Y-83617107D01*
X114916447Y-83763833D01*
X114916444Y-83763837D01*
X114913338Y-83767539D01*
X114816405Y-83943860D01*
X114814942Y-83948473D01*
X114814940Y-83948477D01*
X114803626Y-83984145D01*
X114755565Y-84135651D01*
X114733136Y-84335605D01*
X83265553Y-84335605D01*
X83247801Y-84154569D01*
X83247329Y-84149751D01*
X83189174Y-83957130D01*
X83094712Y-83779473D01*
X83084871Y-83767406D01*
X82970603Y-83627300D01*
X82970602Y-83627299D01*
X82967542Y-83623547D01*
X82812508Y-83495292D01*
X82658101Y-83411804D01*
X82639769Y-83401892D01*
X82639768Y-83401892D01*
X82635515Y-83399592D01*
X82574169Y-83380602D01*
X82447925Y-83341523D01*
X82447921Y-83341522D01*
X82443304Y-83340093D01*
X82438496Y-83339588D01*
X82438493Y-83339587D01*
X82248013Y-83319567D01*
X82248011Y-83319567D01*
X82243197Y-83319061D01*
X82177064Y-83325080D01*
X82047637Y-83336858D01*
X82047634Y-83336859D01*
X82042817Y-83337297D01*
X82038175Y-83338663D01*
X82038171Y-83338664D01*
X81854441Y-83392739D01*
X81854438Y-83392740D01*
X81849794Y-83394107D01*
X81671482Y-83487326D01*
X81514672Y-83613404D01*
X81511565Y-83617107D01*
X81388447Y-83763833D01*
X81388444Y-83763837D01*
X81385338Y-83767539D01*
X81288405Y-83943860D01*
X81286942Y-83948473D01*
X81286940Y-83948477D01*
X81275626Y-83984145D01*
X81227565Y-84135651D01*
X81205136Y-84335605D01*
X53500000Y-84335605D01*
X53500000Y-83869748D01*
X69949500Y-83869748D01*
X69961133Y-83928231D01*
X70005448Y-83994552D01*
X70071769Y-84038867D01*
X70081332Y-84040769D01*
X70081334Y-84040770D01*
X70104005Y-84045279D01*
X70130252Y-84050500D01*
X71869748Y-84050500D01*
X71895995Y-84045279D01*
X71918666Y-84040770D01*
X71918668Y-84040769D01*
X71928231Y-84038867D01*
X71994552Y-83994552D01*
X72038867Y-83928231D01*
X72050500Y-83869748D01*
X72050500Y-82985262D01*
X72484520Y-82985262D01*
X72490195Y-83052841D01*
X72501061Y-83182236D01*
X72501759Y-83190553D01*
X72503092Y-83195201D01*
X72503092Y-83195202D01*
X72544494Y-83339587D01*
X72558544Y-83388586D01*
X72652712Y-83571818D01*
X72780677Y-83733270D01*
X72784357Y-83736402D01*
X72784359Y-83736404D01*
X72820943Y-83767539D01*
X72937564Y-83866791D01*
X72941787Y-83869151D01*
X72941791Y-83869154D01*
X72981342Y-83891258D01*
X73117398Y-83967297D01*
X73121996Y-83968791D01*
X73308724Y-84029463D01*
X73308726Y-84029464D01*
X73313329Y-84030959D01*
X73517894Y-84055351D01*
X73522716Y-84054980D01*
X73522719Y-84054980D01*
X73593259Y-84049552D01*
X73723300Y-84039546D01*
X73921725Y-83984145D01*
X73926038Y-83981966D01*
X73926044Y-83981964D01*
X74101289Y-83893441D01*
X74101291Y-83893440D01*
X74105610Y-83891258D01*
X74127044Y-83874512D01*
X74264135Y-83767406D01*
X74264139Y-83767402D01*
X74267951Y-83764424D01*
X74402564Y-83608472D01*
X74421231Y-83575613D01*
X74501934Y-83433550D01*
X74501935Y-83433547D01*
X74504323Y-83429344D01*
X74506074Y-83424082D01*
X74567824Y-83238454D01*
X74567824Y-83238452D01*
X74569351Y-83233863D01*
X74576373Y-83178282D01*
X74594823Y-83032228D01*
X74595171Y-83029474D01*
X74595583Y-83000000D01*
X74593667Y-82980454D01*
X74575952Y-82799780D01*
X74575951Y-82799776D01*
X74575480Y-82794970D01*
X74567643Y-82769011D01*
X74517333Y-82602380D01*
X74515935Y-82597749D01*
X74419218Y-82415849D01*
X74289011Y-82256200D01*
X74233027Y-82209886D01*
X74134002Y-82127965D01*
X74134000Y-82127964D01*
X74130275Y-82124882D01*
X73949055Y-82026897D01*
X73879764Y-82005448D01*
X73756875Y-81967407D01*
X73756871Y-81967406D01*
X73752254Y-81965977D01*
X73747446Y-81965472D01*
X73747443Y-81965471D01*
X73552185Y-81944949D01*
X73552183Y-81944949D01*
X73547369Y-81944443D01*
X73491800Y-81949500D01*
X73347022Y-81962675D01*
X73347017Y-81962676D01*
X73342203Y-81963114D01*
X73144572Y-82021280D01*
X73140288Y-82023519D01*
X73140287Y-82023520D01*
X73133583Y-82027025D01*
X72962002Y-82116726D01*
X72958231Y-82119758D01*
X72805220Y-82242781D01*
X72805217Y-82242783D01*
X72801447Y-82245815D01*
X72798333Y-82249526D01*
X72798332Y-82249527D01*
X72677146Y-82393951D01*
X72669024Y-82403630D01*
X72666689Y-82407878D01*
X72666688Y-82407879D01*
X72659955Y-82420126D01*
X72569776Y-82584162D01*
X72507484Y-82780532D01*
X72506944Y-82785344D01*
X72506944Y-82785345D01*
X72502421Y-82825673D01*
X72484520Y-82985262D01*
X72050500Y-82985262D01*
X72050500Y-82130252D01*
X72038867Y-82071769D01*
X71994552Y-82005448D01*
X71928231Y-81961133D01*
X71918668Y-81959231D01*
X71918666Y-81959230D01*
X71895995Y-81954721D01*
X71869748Y-81949500D01*
X70130252Y-81949500D01*
X70104005Y-81954721D01*
X70081334Y-81959230D01*
X70081332Y-81959231D01*
X70071769Y-81961133D01*
X70005448Y-82005448D01*
X69961133Y-82071769D01*
X69949500Y-82130252D01*
X69949500Y-83869748D01*
X53500000Y-83869748D01*
X53500000Y-82750000D01*
X58644318Y-82750000D01*
X58664956Y-82906762D01*
X58725464Y-83052841D01*
X58821718Y-83178282D01*
X58947159Y-83274536D01*
X59093238Y-83335044D01*
X59250000Y-83355682D01*
X59406762Y-83335044D01*
X59552841Y-83274536D01*
X59678282Y-83178282D01*
X59774536Y-83052841D01*
X59783536Y-83031113D01*
X59823273Y-82984588D01*
X59882767Y-82970304D01*
X59939295Y-82993719D01*
X59966464Y-83031113D01*
X59975464Y-83052841D01*
X60071718Y-83178282D01*
X60197159Y-83274536D01*
X60343238Y-83335044D01*
X60500000Y-83355682D01*
X60656762Y-83335044D01*
X60802841Y-83274536D01*
X60928282Y-83178282D01*
X61024536Y-83052841D01*
X61085044Y-82906762D01*
X61105682Y-82750000D01*
X61085044Y-82593238D01*
X61024536Y-82447159D01*
X60928282Y-82321718D01*
X60802841Y-82225464D01*
X60656762Y-82164956D01*
X60500000Y-82144318D01*
X60343238Y-82164956D01*
X60197159Y-82225464D01*
X60071718Y-82321718D01*
X59975464Y-82447159D01*
X59972981Y-82453154D01*
X59966464Y-82468887D01*
X59926727Y-82515412D01*
X59867233Y-82529696D01*
X59810705Y-82506281D01*
X59783536Y-82468887D01*
X59777019Y-82453154D01*
X59774536Y-82447159D01*
X59678282Y-82321718D01*
X59552841Y-82225464D01*
X59406762Y-82164956D01*
X59250000Y-82144318D01*
X59093238Y-82164956D01*
X58947159Y-82225464D01*
X58821718Y-82321718D01*
X58725464Y-82447159D01*
X58664956Y-82593238D01*
X58644318Y-82750000D01*
X53500000Y-82750000D01*
X53500000Y-82282054D01*
X53518907Y-82223863D01*
X53568407Y-82187899D01*
X53629593Y-82187899D01*
X53666770Y-82209886D01*
X53733031Y-82272110D01*
X53733033Y-82272112D01*
X53737569Y-82276371D01*
X53743019Y-82279367D01*
X53743023Y-82279370D01*
X53810546Y-82316490D01*
X53880487Y-82354940D01*
X53886518Y-82356488D01*
X53886519Y-82356489D01*
X54032419Y-82393951D01*
X54032423Y-82393952D01*
X54038454Y-82395500D01*
X54820608Y-82395500D01*
X54911224Y-82384052D01*
X54935624Y-82380970D01*
X54935625Y-82380970D01*
X54941805Y-82380189D01*
X55017624Y-82350170D01*
X55087652Y-82322444D01*
X55087653Y-82322443D01*
X55093443Y-82320151D01*
X55153702Y-82276371D01*
X55220347Y-82227951D01*
X55220348Y-82227950D01*
X55225387Y-82224289D01*
X55329345Y-82098625D01*
X55345799Y-82063660D01*
X55375741Y-82000029D01*
X55398786Y-81951056D01*
X55429346Y-81790853D01*
X55419106Y-81628084D01*
X55368708Y-81472975D01*
X55281319Y-81335273D01*
X55276783Y-81331013D01*
X55276781Y-81331011D01*
X55166969Y-81227890D01*
X55166967Y-81227888D01*
X55162431Y-81223629D01*
X55156981Y-81220633D01*
X55156977Y-81220630D01*
X55078624Y-81177556D01*
X55019513Y-81145060D01*
X55013482Y-81143512D01*
X55013481Y-81143511D01*
X54867581Y-81106049D01*
X54867577Y-81106048D01*
X54861546Y-81104500D01*
X54079392Y-81104500D01*
X53988776Y-81115948D01*
X53964376Y-81119030D01*
X53964375Y-81119030D01*
X53958195Y-81119811D01*
X53806557Y-81179849D01*
X53801518Y-81183510D01*
X53701146Y-81256434D01*
X53674613Y-81275711D01*
X53670643Y-81280510D01*
X53666770Y-81284147D01*
X53611407Y-81310198D01*
X53551306Y-81298733D01*
X53509422Y-81254130D01*
X53500000Y-81211979D01*
X53500000Y-80940996D01*
X56474500Y-80940996D01*
X56489181Y-81062313D01*
X56546973Y-81215255D01*
X56550353Y-81220172D01*
X56550354Y-81220175D01*
X56588523Y-81275711D01*
X56639579Y-81349997D01*
X56761652Y-81458760D01*
X56766922Y-81461550D01*
X56766923Y-81461551D01*
X56795483Y-81476673D01*
X56906145Y-81535265D01*
X56985430Y-81555180D01*
X57058926Y-81573641D01*
X57058929Y-81573641D01*
X57064716Y-81575095D01*
X57147295Y-81575527D01*
X57222244Y-81575920D01*
X57222246Y-81575920D01*
X57228210Y-81575951D01*
X57265458Y-81567009D01*
X57381389Y-81539177D01*
X57381391Y-81539176D01*
X57387190Y-81537784D01*
X57517930Y-81470304D01*
X57527170Y-81465535D01*
X57527172Y-81465534D01*
X57532476Y-81462796D01*
X57655681Y-81355317D01*
X57729699Y-81250000D01*
X58644318Y-81250000D01*
X58664956Y-81406762D01*
X58725464Y-81552841D01*
X58821718Y-81678282D01*
X58947159Y-81774536D01*
X59093238Y-81835044D01*
X59250000Y-81855682D01*
X59406762Y-81835044D01*
X59552841Y-81774536D01*
X59678282Y-81678282D01*
X59774536Y-81552841D01*
X59783536Y-81531113D01*
X59823273Y-81484588D01*
X59882767Y-81470304D01*
X59939295Y-81493719D01*
X59966464Y-81531113D01*
X59975464Y-81552841D01*
X60071718Y-81678282D01*
X60197159Y-81774536D01*
X60343238Y-81835044D01*
X60500000Y-81855682D01*
X60656762Y-81835044D01*
X60751976Y-81795605D01*
X81205136Y-81795605D01*
X81208239Y-81832560D01*
X81219443Y-81965977D01*
X81221973Y-81996109D01*
X81223306Y-82000757D01*
X81223306Y-82000758D01*
X81271102Y-82167440D01*
X81277434Y-82189523D01*
X81369406Y-82368482D01*
X81494387Y-82526168D01*
X81498067Y-82529300D01*
X81498069Y-82529302D01*
X81580756Y-82599674D01*
X81647615Y-82656575D01*
X81651838Y-82658935D01*
X81651842Y-82658938D01*
X81765812Y-82722633D01*
X81823255Y-82754737D01*
X81827853Y-82756231D01*
X82010011Y-82815418D01*
X82010013Y-82815419D01*
X82014616Y-82816914D01*
X82214409Y-82840738D01*
X82219231Y-82840367D01*
X82219233Y-82840367D01*
X82410197Y-82825673D01*
X82410202Y-82825672D01*
X82415025Y-82825301D01*
X82608822Y-82771192D01*
X82613135Y-82769013D01*
X82613141Y-82769011D01*
X82784097Y-82682655D01*
X82784099Y-82682653D01*
X82788418Y-82680472D01*
X82946973Y-82556595D01*
X82950135Y-82552932D01*
X82950140Y-82552927D01*
X83064770Y-82420126D01*
X83078447Y-82404281D01*
X83080928Y-82399915D01*
X83175439Y-82233544D01*
X83175440Y-82233542D01*
X83177832Y-82229331D01*
X83213343Y-82122581D01*
X83239816Y-82043003D01*
X83239817Y-82043001D01*
X83241344Y-82038409D01*
X83266562Y-81838786D01*
X83266603Y-81835891D01*
X83266925Y-81812770D01*
X83266964Y-81810000D01*
X83266026Y-81800425D01*
X83265553Y-81795605D01*
X114733136Y-81795605D01*
X114736239Y-81832560D01*
X114747443Y-81965977D01*
X114749973Y-81996109D01*
X114751306Y-82000757D01*
X114751306Y-82000758D01*
X114799102Y-82167440D01*
X114805434Y-82189523D01*
X114897406Y-82368482D01*
X115022387Y-82526168D01*
X115026067Y-82529300D01*
X115026069Y-82529302D01*
X115108756Y-82599674D01*
X115175615Y-82656575D01*
X115179838Y-82658935D01*
X115179842Y-82658938D01*
X115293812Y-82722633D01*
X115351255Y-82754737D01*
X115355853Y-82756231D01*
X115538011Y-82815418D01*
X115538013Y-82815419D01*
X115542616Y-82816914D01*
X115742409Y-82840738D01*
X115747231Y-82840367D01*
X115747233Y-82840367D01*
X115938197Y-82825673D01*
X115938202Y-82825672D01*
X115943025Y-82825301D01*
X116136822Y-82771192D01*
X116141135Y-82769013D01*
X116141141Y-82769011D01*
X116312097Y-82682655D01*
X116312099Y-82682653D01*
X116316418Y-82680472D01*
X116474973Y-82556595D01*
X116478135Y-82552932D01*
X116478140Y-82552927D01*
X116592770Y-82420126D01*
X116606447Y-82404281D01*
X116608928Y-82399915D01*
X116703439Y-82233544D01*
X116703440Y-82233542D01*
X116705832Y-82229331D01*
X116741343Y-82122581D01*
X116767816Y-82043003D01*
X116767817Y-82043001D01*
X116769344Y-82038409D01*
X116794562Y-81838786D01*
X116794603Y-81835891D01*
X116794925Y-81812770D01*
X116794964Y-81810000D01*
X116794026Y-81800425D01*
X116777736Y-81634301D01*
X116775329Y-81609751D01*
X116717174Y-81417130D01*
X116640033Y-81272049D01*
X116624985Y-81243747D01*
X116624983Y-81243743D01*
X116622712Y-81239473D01*
X116609957Y-81223833D01*
X116498603Y-81087300D01*
X116498602Y-81087299D01*
X116495542Y-81083547D01*
X116340508Y-80955292D01*
X116163515Y-80859592D01*
X116102169Y-80840602D01*
X115975925Y-80801523D01*
X115975921Y-80801522D01*
X115971304Y-80800093D01*
X115966496Y-80799588D01*
X115966493Y-80799587D01*
X115776013Y-80779567D01*
X115776011Y-80779567D01*
X115771197Y-80779061D01*
X115705064Y-80785080D01*
X115575637Y-80796858D01*
X115575634Y-80796859D01*
X115570817Y-80797297D01*
X115566175Y-80798663D01*
X115566171Y-80798664D01*
X115382441Y-80852739D01*
X115382438Y-80852740D01*
X115377794Y-80854107D01*
X115199482Y-80947326D01*
X115042672Y-81073404D01*
X115031012Y-81087300D01*
X114916447Y-81223833D01*
X114916444Y-81223837D01*
X114913338Y-81227539D01*
X114816405Y-81403860D01*
X114814942Y-81408473D01*
X114814940Y-81408477D01*
X114794480Y-81472975D01*
X114755565Y-81595651D01*
X114755025Y-81600465D01*
X114734366Y-81784642D01*
X114733136Y-81795605D01*
X83265553Y-81795605D01*
X83249736Y-81634301D01*
X83247329Y-81609751D01*
X83189174Y-81417130D01*
X83112033Y-81272049D01*
X83096985Y-81243747D01*
X83096983Y-81243743D01*
X83094712Y-81239473D01*
X83081957Y-81223833D01*
X82970603Y-81087300D01*
X82970602Y-81087299D01*
X82967542Y-81083547D01*
X82812508Y-80955292D01*
X82635515Y-80859592D01*
X82574169Y-80840602D01*
X82447925Y-80801523D01*
X82447921Y-80801522D01*
X82443304Y-80800093D01*
X82438496Y-80799588D01*
X82438493Y-80799587D01*
X82248013Y-80779567D01*
X82248011Y-80779567D01*
X82243197Y-80779061D01*
X82177064Y-80785080D01*
X82047637Y-80796858D01*
X82047634Y-80796859D01*
X82042817Y-80797297D01*
X82038175Y-80798663D01*
X82038171Y-80798664D01*
X81854441Y-80852739D01*
X81854438Y-80852740D01*
X81849794Y-80854107D01*
X81671482Y-80947326D01*
X81514672Y-81073404D01*
X81503012Y-81087300D01*
X81388447Y-81223833D01*
X81388444Y-81223837D01*
X81385338Y-81227539D01*
X81288405Y-81403860D01*
X81286942Y-81408473D01*
X81286940Y-81408477D01*
X81266480Y-81472975D01*
X81227565Y-81595651D01*
X81227025Y-81600465D01*
X81206366Y-81784642D01*
X81205136Y-81795605D01*
X60751976Y-81795605D01*
X60802841Y-81774536D01*
X60928282Y-81678282D01*
X61024536Y-81552841D01*
X61085044Y-81406762D01*
X61105682Y-81250000D01*
X61085044Y-81093238D01*
X61024536Y-80947159D01*
X60928282Y-80821718D01*
X60802841Y-80725464D01*
X60656762Y-80664956D01*
X60500000Y-80644318D01*
X60343238Y-80664956D01*
X60197159Y-80725464D01*
X60071718Y-80821718D01*
X59975464Y-80947159D01*
X59972981Y-80953154D01*
X59966464Y-80968887D01*
X59926727Y-81015412D01*
X59867233Y-81029696D01*
X59810705Y-81006281D01*
X59783536Y-80968887D01*
X59777019Y-80953154D01*
X59774536Y-80947159D01*
X59678282Y-80821718D01*
X59552841Y-80725464D01*
X59406762Y-80664956D01*
X59250000Y-80644318D01*
X59093238Y-80664956D01*
X58947159Y-80725464D01*
X58821718Y-80821718D01*
X58725464Y-80947159D01*
X58664956Y-81093238D01*
X58644318Y-81250000D01*
X57729699Y-81250000D01*
X57749693Y-81221552D01*
X57799720Y-81093238D01*
X57806915Y-81074785D01*
X57806915Y-81074784D01*
X57809083Y-81069224D01*
X57825500Y-80944527D01*
X57825500Y-80559004D01*
X57810819Y-80437687D01*
X57753027Y-80284745D01*
X57748700Y-80278448D01*
X57663801Y-80154921D01*
X57660421Y-80150003D01*
X57560899Y-80061332D01*
X57542802Y-80045208D01*
X57542800Y-80045207D01*
X57538348Y-80041240D01*
X57530726Y-80037204D01*
X57484874Y-80012927D01*
X57393855Y-79964735D01*
X57293318Y-79939482D01*
X57241074Y-79926359D01*
X57241071Y-79926359D01*
X57235284Y-79924905D01*
X57152705Y-79924473D01*
X57077756Y-79924080D01*
X57077754Y-79924080D01*
X57071790Y-79924049D01*
X57065987Y-79925442D01*
X57065988Y-79925442D01*
X56918611Y-79960823D01*
X56918609Y-79960824D01*
X56912810Y-79962216D01*
X56852001Y-79993602D01*
X56772830Y-80034465D01*
X56772828Y-80034466D01*
X56767524Y-80037204D01*
X56644319Y-80144683D01*
X56550307Y-80278448D01*
X56490917Y-80430776D01*
X56474500Y-80555473D01*
X56474500Y-80940996D01*
X53500000Y-80940996D01*
X53500000Y-79750000D01*
X58644318Y-79750000D01*
X58664956Y-79906762D01*
X58725464Y-80052841D01*
X58821718Y-80178282D01*
X58947159Y-80274536D01*
X59093238Y-80335044D01*
X59250000Y-80355682D01*
X59406762Y-80335044D01*
X59552841Y-80274536D01*
X59678282Y-80178282D01*
X59774536Y-80052841D01*
X59783536Y-80031113D01*
X59823273Y-79984588D01*
X59882767Y-79970304D01*
X59939295Y-79993719D01*
X59966464Y-80031113D01*
X59975464Y-80052841D01*
X60071718Y-80178282D01*
X60197159Y-80274536D01*
X60343238Y-80335044D01*
X60500000Y-80355682D01*
X60656762Y-80335044D01*
X60802841Y-80274536D01*
X60928282Y-80178282D01*
X61024536Y-80052841D01*
X61085044Y-79906762D01*
X61105682Y-79750000D01*
X61085044Y-79593238D01*
X61046423Y-79500000D01*
X69894318Y-79500000D01*
X69914956Y-79656762D01*
X69975464Y-79802841D01*
X70071718Y-79928282D01*
X70197159Y-80024536D01*
X70343238Y-80085044D01*
X70500000Y-80105682D01*
X70656762Y-80085044D01*
X70802841Y-80024536D01*
X70928282Y-79928282D01*
X71024536Y-79802841D01*
X71085044Y-79656762D01*
X71105682Y-79500000D01*
X71085044Y-79343238D01*
X71036709Y-79226547D01*
X71031908Y-79165551D01*
X71063877Y-79113382D01*
X71115251Y-79090509D01*
X71115474Y-79090480D01*
X71156762Y-79085044D01*
X71302841Y-79024536D01*
X71375947Y-78968440D01*
X74294770Y-78968440D01*
X74298188Y-79020585D01*
X74307595Y-79164109D01*
X74309200Y-79188604D01*
X74310316Y-79192997D01*
X74310316Y-79192999D01*
X74333873Y-79285754D01*
X74363511Y-79402452D01*
X74455883Y-79602821D01*
X74583222Y-79783002D01*
X74586468Y-79786164D01*
X74729440Y-79925442D01*
X74741264Y-79936961D01*
X74924717Y-80059540D01*
X75127436Y-80146635D01*
X75164055Y-80154921D01*
X75338206Y-80194328D01*
X75338211Y-80194329D01*
X75342632Y-80195329D01*
X75452865Y-80199660D01*
X75558565Y-80203813D01*
X75558566Y-80203813D01*
X75563098Y-80203991D01*
X75781452Y-80172331D01*
X75785751Y-80170872D01*
X75785754Y-80170871D01*
X75986078Y-80102870D01*
X75990379Y-80101410D01*
X76018091Y-80085891D01*
X76178925Y-79995819D01*
X76182884Y-79993602D01*
X76352518Y-79852518D01*
X76493602Y-79682884D01*
X76547165Y-79587241D01*
X76599192Y-79494340D01*
X76599193Y-79494338D01*
X76601410Y-79490379D01*
X76653393Y-79337241D01*
X76670871Y-79285754D01*
X76670872Y-79285751D01*
X76672331Y-79281452D01*
X76676079Y-79255605D01*
X81205136Y-79255605D01*
X81221973Y-79456109D01*
X81223306Y-79460757D01*
X81223306Y-79460758D01*
X81265106Y-79606529D01*
X81277434Y-79649523D01*
X81279649Y-79653833D01*
X81294579Y-79682884D01*
X81369406Y-79828482D01*
X81494387Y-79986168D01*
X81498067Y-79989300D01*
X81498069Y-79989302D01*
X81607647Y-80082560D01*
X81647615Y-80116575D01*
X81651838Y-80118935D01*
X81651842Y-80118938D01*
X81765101Y-80182236D01*
X81823255Y-80214737D01*
X81827853Y-80216231D01*
X82010011Y-80275418D01*
X82010013Y-80275419D01*
X82014616Y-80276914D01*
X82214409Y-80300738D01*
X82219231Y-80300367D01*
X82219233Y-80300367D01*
X82410197Y-80285673D01*
X82410202Y-80285672D01*
X82415025Y-80285301D01*
X82608822Y-80231192D01*
X82613135Y-80229013D01*
X82613141Y-80229011D01*
X82784097Y-80142655D01*
X82784099Y-80142653D01*
X82788418Y-80140472D01*
X82946973Y-80016595D01*
X82950135Y-80012932D01*
X82950140Y-80012927D01*
X83075283Y-79867946D01*
X83078447Y-79864281D01*
X83083479Y-79855424D01*
X83175439Y-79693544D01*
X83175440Y-79693542D01*
X83177832Y-79689331D01*
X83235688Y-79515412D01*
X83239816Y-79503003D01*
X83239817Y-79503001D01*
X83241344Y-79498409D01*
X83266562Y-79298786D01*
X83266964Y-79270000D01*
X83266026Y-79260425D01*
X83265553Y-79255605D01*
X114733136Y-79255605D01*
X114749973Y-79456109D01*
X114751306Y-79460757D01*
X114751306Y-79460758D01*
X114793106Y-79606529D01*
X114805434Y-79649523D01*
X114807649Y-79653833D01*
X114822579Y-79682884D01*
X114897406Y-79828482D01*
X115022387Y-79986168D01*
X115026067Y-79989300D01*
X115026069Y-79989302D01*
X115135647Y-80082560D01*
X115175615Y-80116575D01*
X115179838Y-80118935D01*
X115179842Y-80118938D01*
X115293101Y-80182236D01*
X115351255Y-80214737D01*
X115355853Y-80216231D01*
X115538011Y-80275418D01*
X115538013Y-80275419D01*
X115542616Y-80276914D01*
X115742409Y-80300738D01*
X115747231Y-80300367D01*
X115747233Y-80300367D01*
X115938197Y-80285673D01*
X115938202Y-80285672D01*
X115943025Y-80285301D01*
X116136822Y-80231192D01*
X116141135Y-80229013D01*
X116141141Y-80229011D01*
X116312097Y-80142655D01*
X116312099Y-80142653D01*
X116316418Y-80140472D01*
X116474973Y-80016595D01*
X116478135Y-80012932D01*
X116478140Y-80012927D01*
X116603283Y-79867946D01*
X116606447Y-79864281D01*
X116611479Y-79855424D01*
X116703439Y-79693544D01*
X116703440Y-79693542D01*
X116705832Y-79689331D01*
X116763688Y-79515412D01*
X116767816Y-79503003D01*
X116767817Y-79503001D01*
X116769344Y-79498409D01*
X116794562Y-79298786D01*
X116794964Y-79270000D01*
X116794026Y-79260425D01*
X116784581Y-79164109D01*
X116775329Y-79069751D01*
X116717174Y-78877130D01*
X116622712Y-78699473D01*
X116609957Y-78683833D01*
X116498603Y-78547300D01*
X116498602Y-78547299D01*
X116495542Y-78543547D01*
X116340508Y-78415292D01*
X116228697Y-78354836D01*
X116167769Y-78321892D01*
X116167768Y-78321892D01*
X116163515Y-78319592D01*
X116025987Y-78277020D01*
X115975925Y-78261523D01*
X115975921Y-78261522D01*
X115971304Y-78260093D01*
X115966496Y-78259588D01*
X115966493Y-78259587D01*
X115776013Y-78239567D01*
X115776011Y-78239567D01*
X115771197Y-78239061D01*
X115705064Y-78245080D01*
X115575637Y-78256858D01*
X115575634Y-78256859D01*
X115570817Y-78257297D01*
X115566175Y-78258663D01*
X115566171Y-78258664D01*
X115382441Y-78312739D01*
X115382438Y-78312740D01*
X115377794Y-78314107D01*
X115199482Y-78407326D01*
X115042672Y-78533404D01*
X115039565Y-78537107D01*
X114916447Y-78683833D01*
X114916444Y-78683837D01*
X114913338Y-78687539D01*
X114816405Y-78863860D01*
X114814942Y-78868473D01*
X114814940Y-78868477D01*
X114806743Y-78894318D01*
X114755565Y-79055651D01*
X114755025Y-79060465D01*
X114736074Y-79229415D01*
X114733136Y-79255605D01*
X83265553Y-79255605D01*
X83256581Y-79164109D01*
X83247329Y-79069751D01*
X83189174Y-78877130D01*
X83094712Y-78699473D01*
X83081957Y-78683833D01*
X82970603Y-78547300D01*
X82970602Y-78547299D01*
X82967542Y-78543547D01*
X82812508Y-78415292D01*
X82700697Y-78354836D01*
X82639769Y-78321892D01*
X82639768Y-78321892D01*
X82635515Y-78319592D01*
X82497987Y-78277020D01*
X82447925Y-78261523D01*
X82447921Y-78261522D01*
X82443304Y-78260093D01*
X82438496Y-78259588D01*
X82438493Y-78259587D01*
X82248013Y-78239567D01*
X82248011Y-78239567D01*
X82243197Y-78239061D01*
X82177064Y-78245080D01*
X82047637Y-78256858D01*
X82047634Y-78256859D01*
X82042817Y-78257297D01*
X82038175Y-78258663D01*
X82038171Y-78258664D01*
X81854441Y-78312739D01*
X81854438Y-78312740D01*
X81849794Y-78314107D01*
X81671482Y-78407326D01*
X81514672Y-78533404D01*
X81511565Y-78537107D01*
X81388447Y-78683833D01*
X81388444Y-78683837D01*
X81385338Y-78687539D01*
X81288405Y-78863860D01*
X81286942Y-78868473D01*
X81286940Y-78868477D01*
X81278743Y-78894318D01*
X81227565Y-79055651D01*
X81227025Y-79060465D01*
X81208074Y-79229415D01*
X81205136Y-79255605D01*
X76676079Y-79255605D01*
X76685300Y-79192010D01*
X76703571Y-79065997D01*
X76703571Y-79065991D01*
X76703991Y-79063098D01*
X76705643Y-79000000D01*
X76703752Y-78979415D01*
X76685869Y-78784809D01*
X76685454Y-78780289D01*
X76661604Y-78695722D01*
X76626799Y-78572311D01*
X76626798Y-78572310D01*
X76625565Y-78567936D01*
X76623557Y-78563864D01*
X76623555Y-78563859D01*
X76529988Y-78374125D01*
X76527980Y-78370053D01*
X76395967Y-78193267D01*
X76260199Y-78067764D01*
X76237279Y-78046577D01*
X76237278Y-78046576D01*
X76233949Y-78043499D01*
X76047350Y-77925764D01*
X75842421Y-77844006D01*
X75626024Y-77800962D01*
X75517347Y-77799539D01*
X75409946Y-77798133D01*
X75409941Y-77798133D01*
X75405406Y-77798074D01*
X75400933Y-77798843D01*
X75400928Y-77798843D01*
X75192435Y-77834668D01*
X75192429Y-77834670D01*
X75187957Y-77835438D01*
X75160176Y-77845687D01*
X74985220Y-77910231D01*
X74985217Y-77910232D01*
X74980957Y-77911804D01*
X74977054Y-77914126D01*
X74977052Y-77914127D01*
X74957492Y-77925764D01*
X74791341Y-78024614D01*
X74787926Y-78027609D01*
X74787923Y-78027611D01*
X74737629Y-78071718D01*
X74625457Y-78170090D01*
X74622649Y-78173652D01*
X74493687Y-78337241D01*
X74488863Y-78343360D01*
X74486749Y-78347378D01*
X74482380Y-78355683D01*
X74386131Y-78538620D01*
X74384787Y-78542949D01*
X74337350Y-78695722D01*
X74320703Y-78749333D01*
X74320169Y-78753843D01*
X74320169Y-78753844D01*
X74301747Y-78909491D01*
X74294770Y-78968440D01*
X71375947Y-78968440D01*
X71428282Y-78928282D01*
X71524536Y-78802841D01*
X71585044Y-78656762D01*
X71605682Y-78500000D01*
X71600642Y-78461718D01*
X71611792Y-78401557D01*
X71656174Y-78359440D01*
X71711717Y-78350643D01*
X71749999Y-78355683D01*
X71906761Y-78335045D01*
X72052840Y-78274537D01*
X72178281Y-78178283D01*
X72274535Y-78052842D01*
X72335043Y-77906763D01*
X72355681Y-77750001D01*
X72335043Y-77593239D01*
X72274535Y-77447160D01*
X72178281Y-77321719D01*
X72052840Y-77225465D01*
X71906761Y-77164957D01*
X71749999Y-77144319D01*
X71593237Y-77164957D01*
X71447158Y-77225465D01*
X71321717Y-77321719D01*
X71225463Y-77447160D01*
X71164955Y-77593239D01*
X71144317Y-77750001D01*
X71145164Y-77756435D01*
X71149357Y-77788283D01*
X71138207Y-77848444D01*
X71093825Y-77890561D01*
X71038282Y-77899358D01*
X71000000Y-77894318D01*
X70843238Y-77914956D01*
X70697159Y-77975464D01*
X70571718Y-78071718D01*
X70475464Y-78197159D01*
X70414956Y-78343238D01*
X70394318Y-78500000D01*
X70414956Y-78656762D01*
X70417440Y-78662759D01*
X70463291Y-78773452D01*
X70468092Y-78834449D01*
X70436123Y-78886618D01*
X70384749Y-78909491D01*
X70343238Y-78914956D01*
X70197159Y-78975464D01*
X70071718Y-79071718D01*
X69975464Y-79197159D01*
X69914956Y-79343238D01*
X69894318Y-79500000D01*
X61046423Y-79500000D01*
X61024536Y-79447159D01*
X60928282Y-79321718D01*
X60802841Y-79225464D01*
X60656762Y-79164956D01*
X60500000Y-79144318D01*
X60343238Y-79164956D01*
X60197159Y-79225464D01*
X60071718Y-79321718D01*
X59975464Y-79447159D01*
X59972981Y-79453154D01*
X59966464Y-79468887D01*
X59926727Y-79515412D01*
X59867233Y-79529696D01*
X59810705Y-79506281D01*
X59783536Y-79468887D01*
X59777019Y-79453154D01*
X59774536Y-79447159D01*
X59678282Y-79321718D01*
X59552841Y-79225464D01*
X59406762Y-79164956D01*
X59250000Y-79144318D01*
X59093238Y-79164956D01*
X58947159Y-79225464D01*
X58821718Y-79321718D01*
X58725464Y-79447159D01*
X58664956Y-79593238D01*
X58644318Y-79750000D01*
X53500000Y-79750000D01*
X53500000Y-78500000D01*
X60644318Y-78500000D01*
X60664956Y-78656762D01*
X60725464Y-78802841D01*
X60821718Y-78928282D01*
X60947159Y-79024536D01*
X61093238Y-79085044D01*
X61250000Y-79105682D01*
X61406762Y-79085044D01*
X61552841Y-79024536D01*
X61678282Y-78928282D01*
X61774536Y-78802841D01*
X61835044Y-78656762D01*
X61855682Y-78500000D01*
X61835044Y-78343238D01*
X61774536Y-78197159D01*
X61678282Y-78071718D01*
X61552841Y-77975464D01*
X61406762Y-77914956D01*
X61250000Y-77894318D01*
X61093238Y-77914956D01*
X60947159Y-77975464D01*
X60821718Y-78071718D01*
X60725464Y-78197159D01*
X60664956Y-78343238D01*
X60644318Y-78500000D01*
X53500000Y-78500000D01*
X53500000Y-77000000D01*
X64394318Y-77000000D01*
X64414956Y-77156762D01*
X64475464Y-77302841D01*
X64571718Y-77428282D01*
X64697159Y-77524536D01*
X64843238Y-77585044D01*
X64954372Y-77599675D01*
X64977008Y-77602655D01*
X65000000Y-77605682D01*
X65022993Y-77602655D01*
X65045628Y-77599675D01*
X65156762Y-77585044D01*
X65302841Y-77524536D01*
X65428282Y-77428282D01*
X65524536Y-77302841D01*
X65585044Y-77156762D01*
X65605682Y-77000000D01*
X65585044Y-76843238D01*
X65546423Y-76750000D01*
X69894318Y-76750000D01*
X69914956Y-76906762D01*
X69975464Y-77052841D01*
X70071718Y-77178282D01*
X70197159Y-77274536D01*
X70343238Y-77335044D01*
X70500000Y-77355682D01*
X70656762Y-77335044D01*
X70802841Y-77274536D01*
X70928282Y-77178282D01*
X71024536Y-77052841D01*
X71085044Y-76906762D01*
X71105682Y-76750000D01*
X71101154Y-76715605D01*
X81205136Y-76715605D01*
X81207484Y-76743566D01*
X81220648Y-76900326D01*
X81221973Y-76916109D01*
X81223306Y-76920757D01*
X81223306Y-76920758D01*
X81261181Y-77052841D01*
X81277434Y-77109523D01*
X81369406Y-77288482D01*
X81494387Y-77446168D01*
X81498067Y-77449300D01*
X81498069Y-77449302D01*
X81581827Y-77520585D01*
X81647615Y-77576575D01*
X81651838Y-77578935D01*
X81651842Y-77578938D01*
X81765812Y-77642633D01*
X81823255Y-77674737D01*
X81827853Y-77676231D01*
X82010011Y-77735418D01*
X82010013Y-77735419D01*
X82014616Y-77736914D01*
X82214409Y-77760738D01*
X82219231Y-77760367D01*
X82219233Y-77760367D01*
X82410197Y-77745673D01*
X82410202Y-77745672D01*
X82415025Y-77745301D01*
X82608822Y-77691192D01*
X82613135Y-77689013D01*
X82613141Y-77689011D01*
X82784097Y-77602655D01*
X82784099Y-77602653D01*
X82788418Y-77600472D01*
X82946973Y-77476595D01*
X82950135Y-77472932D01*
X82950140Y-77472927D01*
X83052073Y-77354835D01*
X83078447Y-77324281D01*
X83094033Y-77296846D01*
X83175439Y-77153544D01*
X83175440Y-77153542D01*
X83177832Y-77149331D01*
X83225368Y-77006434D01*
X83239816Y-76963003D01*
X83239817Y-76963001D01*
X83241344Y-76958409D01*
X83266562Y-76758786D01*
X83266964Y-76730000D01*
X83266026Y-76720425D01*
X83265553Y-76715605D01*
X114733136Y-76715605D01*
X114735484Y-76743566D01*
X114748648Y-76900326D01*
X114749973Y-76916109D01*
X114751306Y-76920757D01*
X114751306Y-76920758D01*
X114789181Y-77052841D01*
X114805434Y-77109523D01*
X114897406Y-77288482D01*
X115022387Y-77446168D01*
X115026067Y-77449300D01*
X115026069Y-77449302D01*
X115109827Y-77520585D01*
X115175615Y-77576575D01*
X115179838Y-77578935D01*
X115179842Y-77578938D01*
X115293812Y-77642633D01*
X115351255Y-77674737D01*
X115355853Y-77676231D01*
X115538011Y-77735418D01*
X115538013Y-77735419D01*
X115542616Y-77736914D01*
X115742409Y-77760738D01*
X115747231Y-77760367D01*
X115747233Y-77760367D01*
X115938197Y-77745673D01*
X115938202Y-77745672D01*
X115943025Y-77745301D01*
X116136822Y-77691192D01*
X116141135Y-77689013D01*
X116141141Y-77689011D01*
X116312097Y-77602655D01*
X116312099Y-77602653D01*
X116316418Y-77600472D01*
X116474973Y-77476595D01*
X116478135Y-77472932D01*
X116478140Y-77472927D01*
X116580073Y-77354835D01*
X116606447Y-77324281D01*
X116622033Y-77296846D01*
X116703439Y-77153544D01*
X116703440Y-77153542D01*
X116705832Y-77149331D01*
X116753368Y-77006434D01*
X116767816Y-76963003D01*
X116767817Y-76963001D01*
X116769344Y-76958409D01*
X116794562Y-76758786D01*
X116794964Y-76730000D01*
X116794026Y-76720425D01*
X116779722Y-76574558D01*
X116775329Y-76529751D01*
X116717174Y-76337130D01*
X116649404Y-76209673D01*
X116624985Y-76163747D01*
X116624983Y-76163743D01*
X116622712Y-76159473D01*
X116609957Y-76143833D01*
X116498603Y-76007300D01*
X116498602Y-76007299D01*
X116495542Y-76003547D01*
X116340508Y-75875292D01*
X116163515Y-75779592D01*
X116102169Y-75760602D01*
X115975925Y-75721523D01*
X115975921Y-75721522D01*
X115971304Y-75720093D01*
X115966496Y-75719588D01*
X115966493Y-75719587D01*
X115776013Y-75699567D01*
X115776011Y-75699567D01*
X115771197Y-75699061D01*
X115705064Y-75705080D01*
X115575637Y-75716858D01*
X115575634Y-75716859D01*
X115570817Y-75717297D01*
X115566175Y-75718663D01*
X115566171Y-75718664D01*
X115382441Y-75772739D01*
X115382438Y-75772740D01*
X115377794Y-75774107D01*
X115199482Y-75867326D01*
X115042672Y-75993404D01*
X115039565Y-75997107D01*
X114916447Y-76143833D01*
X114916444Y-76143837D01*
X114913338Y-76147539D01*
X114816405Y-76323860D01*
X114814942Y-76328473D01*
X114814940Y-76328477D01*
X114787776Y-76414109D01*
X114755565Y-76515651D01*
X114755025Y-76520465D01*
X114734533Y-76703154D01*
X114733136Y-76715605D01*
X83265553Y-76715605D01*
X83251722Y-76574558D01*
X83247329Y-76529751D01*
X83189174Y-76337130D01*
X83121404Y-76209673D01*
X83096985Y-76163747D01*
X83096983Y-76163743D01*
X83094712Y-76159473D01*
X83081957Y-76143833D01*
X82970603Y-76007300D01*
X82970602Y-76007299D01*
X82967542Y-76003547D01*
X82812508Y-75875292D01*
X82635515Y-75779592D01*
X82574169Y-75760602D01*
X82447925Y-75721523D01*
X82447921Y-75721522D01*
X82443304Y-75720093D01*
X82438496Y-75719588D01*
X82438493Y-75719587D01*
X82248013Y-75699567D01*
X82248011Y-75699567D01*
X82243197Y-75699061D01*
X82177064Y-75705080D01*
X82047637Y-75716858D01*
X82047634Y-75716859D01*
X82042817Y-75717297D01*
X82038175Y-75718663D01*
X82038171Y-75718664D01*
X81854441Y-75772739D01*
X81854438Y-75772740D01*
X81849794Y-75774107D01*
X81671482Y-75867326D01*
X81514672Y-75993404D01*
X81511565Y-75997107D01*
X81388447Y-76143833D01*
X81388444Y-76143837D01*
X81385338Y-76147539D01*
X81288405Y-76323860D01*
X81286942Y-76328473D01*
X81286940Y-76328477D01*
X81259776Y-76414109D01*
X81227565Y-76515651D01*
X81227025Y-76520465D01*
X81206533Y-76703154D01*
X81205136Y-76715605D01*
X71101154Y-76715605D01*
X71085044Y-76593238D01*
X71024536Y-76447159D01*
X70928282Y-76321718D01*
X70802841Y-76225464D01*
X70656762Y-76164956D01*
X70500000Y-76144318D01*
X70343238Y-76164956D01*
X70197159Y-76225464D01*
X70071718Y-76321718D01*
X69975464Y-76447159D01*
X69914956Y-76593238D01*
X69894318Y-76750000D01*
X65546423Y-76750000D01*
X65524536Y-76697159D01*
X65428282Y-76571718D01*
X65302841Y-76475464D01*
X65156762Y-76414956D01*
X65000000Y-76394318D01*
X64843238Y-76414956D01*
X64697159Y-76475464D01*
X64571718Y-76571718D01*
X64475464Y-76697159D01*
X64414956Y-76843238D01*
X64394318Y-77000000D01*
X53500000Y-77000000D01*
X53500000Y-75940996D01*
X56474500Y-75940996D01*
X56474859Y-75943962D01*
X56482070Y-76003547D01*
X56489181Y-76062313D01*
X56546973Y-76215255D01*
X56550353Y-76220172D01*
X56550354Y-76220175D01*
X56552283Y-76222981D01*
X56639579Y-76349997D01*
X56761652Y-76458760D01*
X56766922Y-76461550D01*
X56766923Y-76461551D01*
X56774448Y-76465535D01*
X56906145Y-76535265D01*
X56985430Y-76555180D01*
X57058926Y-76573641D01*
X57058929Y-76573641D01*
X57064716Y-76575095D01*
X57147295Y-76575527D01*
X57222244Y-76575920D01*
X57222246Y-76575920D01*
X57228210Y-76575951D01*
X57265458Y-76567009D01*
X57381389Y-76539177D01*
X57381391Y-76539176D01*
X57387190Y-76537784D01*
X57462736Y-76498792D01*
X57527170Y-76465535D01*
X57527172Y-76465534D01*
X57532476Y-76462796D01*
X57655681Y-76355317D01*
X57749693Y-76221552D01*
X57809083Y-76069224D01*
X57825500Y-75944527D01*
X57825500Y-75559004D01*
X57818360Y-75500000D01*
X68894318Y-75500000D01*
X68914956Y-75656762D01*
X68975464Y-75802841D01*
X69071718Y-75928282D01*
X69197159Y-76024536D01*
X69343238Y-76085044D01*
X69500000Y-76105682D01*
X69656762Y-76085044D01*
X69802841Y-76024536D01*
X69928282Y-75928282D01*
X70024536Y-75802841D01*
X70085044Y-75656762D01*
X70105682Y-75500000D01*
X70085044Y-75343238D01*
X70024536Y-75197159D01*
X69928282Y-75071718D01*
X69802841Y-74975464D01*
X69656762Y-74914956D01*
X69500000Y-74894318D01*
X69343238Y-74914956D01*
X69197159Y-74975464D01*
X69071718Y-75071718D01*
X68975464Y-75197159D01*
X68914956Y-75343238D01*
X68894318Y-75500000D01*
X57818360Y-75500000D01*
X57810819Y-75437687D01*
X57753027Y-75284745D01*
X57748700Y-75278448D01*
X57669987Y-75163922D01*
X57660421Y-75150003D01*
X57596431Y-75092990D01*
X57542802Y-75045208D01*
X57542800Y-75045207D01*
X57538348Y-75041240D01*
X57530726Y-75037204D01*
X57504517Y-75023327D01*
X57393855Y-74964735D01*
X57293318Y-74939482D01*
X57241074Y-74926359D01*
X57241071Y-74926359D01*
X57235284Y-74924905D01*
X57152705Y-74924473D01*
X57077756Y-74924080D01*
X57077754Y-74924080D01*
X57071790Y-74924049D01*
X57065987Y-74925442D01*
X57065988Y-74925442D01*
X56918611Y-74960823D01*
X56918609Y-74960824D01*
X56912810Y-74962216D01*
X56852001Y-74993602D01*
X56772830Y-75034465D01*
X56772828Y-75034466D01*
X56767524Y-75037204D01*
X56644319Y-75144683D01*
X56550307Y-75278448D01*
X56490917Y-75430776D01*
X56474500Y-75555473D01*
X56474500Y-75940996D01*
X53500000Y-75940996D01*
X53500000Y-75282054D01*
X53518907Y-75223863D01*
X53568407Y-75187899D01*
X53629593Y-75187899D01*
X53666770Y-75209886D01*
X53733031Y-75272110D01*
X53733033Y-75272112D01*
X53737569Y-75276371D01*
X53743019Y-75279367D01*
X53743023Y-75279370D01*
X53810546Y-75316490D01*
X53880487Y-75354940D01*
X53886518Y-75356488D01*
X53886519Y-75356489D01*
X54032419Y-75393951D01*
X54032423Y-75393952D01*
X54038454Y-75395500D01*
X54820608Y-75395500D01*
X54911224Y-75384052D01*
X54935624Y-75380970D01*
X54935625Y-75380970D01*
X54941805Y-75380189D01*
X55093443Y-75320151D01*
X55142176Y-75284745D01*
X55220347Y-75227951D01*
X55220348Y-75227950D01*
X55225387Y-75224289D01*
X55329345Y-75098625D01*
X55356349Y-75041240D01*
X55396134Y-74956691D01*
X55398786Y-74951056D01*
X55429346Y-74790853D01*
X55419106Y-74628084D01*
X55374363Y-74490379D01*
X55370631Y-74478893D01*
X55370631Y-74478892D01*
X55368708Y-74472975D01*
X55281319Y-74335273D01*
X55276783Y-74331013D01*
X55276781Y-74331011D01*
X55166969Y-74227890D01*
X55166967Y-74227888D01*
X55162431Y-74223629D01*
X55156981Y-74220633D01*
X55156977Y-74220630D01*
X55066329Y-74170797D01*
X55019513Y-74145060D01*
X55013482Y-74143512D01*
X55013481Y-74143511D01*
X54867581Y-74106049D01*
X54867577Y-74106048D01*
X54861546Y-74104500D01*
X54079392Y-74104500D01*
X53988776Y-74115948D01*
X53964376Y-74119030D01*
X53964375Y-74119030D01*
X53958195Y-74119811D01*
X53952403Y-74122104D01*
X53952404Y-74122104D01*
X53827983Y-74171366D01*
X53806557Y-74179849D01*
X53801518Y-74183510D01*
X53740434Y-74227890D01*
X53674613Y-74275711D01*
X53670643Y-74280510D01*
X53666770Y-74284147D01*
X53611407Y-74310198D01*
X53551306Y-74298733D01*
X53509422Y-74254130D01*
X53500000Y-74211979D01*
X53500000Y-73968440D01*
X59294770Y-73968440D01*
X59300428Y-74054760D01*
X59306543Y-74148061D01*
X59309200Y-74188604D01*
X59310316Y-74192997D01*
X59310316Y-74192999D01*
X59347785Y-74340530D01*
X59363511Y-74402452D01*
X59455883Y-74602821D01*
X59583222Y-74783002D01*
X59650995Y-74849024D01*
X59729440Y-74925442D01*
X59741264Y-74936961D01*
X59924717Y-75059540D01*
X60127436Y-75146635D01*
X60176513Y-75157740D01*
X60338206Y-75194328D01*
X60338211Y-75194329D01*
X60342632Y-75195329D01*
X60452865Y-75199660D01*
X60558565Y-75203813D01*
X60558566Y-75203813D01*
X60563098Y-75203991D01*
X60781452Y-75172331D01*
X60785751Y-75170872D01*
X60785754Y-75170871D01*
X60986078Y-75102870D01*
X60990379Y-75101410D01*
X61061944Y-75061332D01*
X61178925Y-74995819D01*
X61182884Y-74993602D01*
X61352518Y-74852518D01*
X61493602Y-74682884D01*
X61601410Y-74490379D01*
X61624281Y-74423003D01*
X61670871Y-74285754D01*
X61670872Y-74285751D01*
X61672331Y-74281452D01*
X61685189Y-74192770D01*
X61687678Y-74175605D01*
X81205136Y-74175605D01*
X81221973Y-74376109D01*
X81223306Y-74380757D01*
X81223306Y-74380758D01*
X81271803Y-74549884D01*
X81277434Y-74569523D01*
X81369406Y-74748482D01*
X81494387Y-74906168D01*
X81498067Y-74909300D01*
X81498069Y-74909302D01*
X81563203Y-74964735D01*
X81647615Y-75036575D01*
X81651838Y-75038935D01*
X81651842Y-75038938D01*
X81758640Y-75098625D01*
X81823255Y-75134737D01*
X81827853Y-75136231D01*
X82010011Y-75195418D01*
X82010013Y-75195419D01*
X82014616Y-75196914D01*
X82214409Y-75220738D01*
X82219231Y-75220367D01*
X82219233Y-75220367D01*
X82410197Y-75205673D01*
X82410202Y-75205672D01*
X82415025Y-75205301D01*
X82608822Y-75151192D01*
X82613135Y-75149013D01*
X82613141Y-75149011D01*
X82784097Y-75062655D01*
X82784099Y-75062653D01*
X82788418Y-75060472D01*
X82811175Y-75042692D01*
X115275790Y-75042692D01*
X115283019Y-75050204D01*
X115363321Y-75095083D01*
X115372149Y-75098940D01*
X115546755Y-75155673D01*
X115556155Y-75157740D01*
X115738460Y-75179478D01*
X115748086Y-75179680D01*
X115931130Y-75165595D01*
X115940621Y-75163922D01*
X116117436Y-75114554D01*
X116126433Y-75111064D01*
X116244931Y-75051207D01*
X116252971Y-75043223D01*
X116247779Y-75032989D01*
X115775086Y-74560296D01*
X115763203Y-74554242D01*
X115758172Y-74555038D01*
X115281267Y-75031943D01*
X115275790Y-75042692D01*
X82811175Y-75042692D01*
X82946973Y-74936595D01*
X82950135Y-74932932D01*
X82950140Y-74932927D01*
X83075283Y-74787946D01*
X83078447Y-74784281D01*
X83081278Y-74779299D01*
X83175439Y-74613544D01*
X83175440Y-74613542D01*
X83177832Y-74609331D01*
X83218833Y-74486078D01*
X83239816Y-74423003D01*
X83239817Y-74423001D01*
X83241344Y-74418409D01*
X83266562Y-74218786D01*
X83266964Y-74190000D01*
X83266384Y-74184078D01*
X83266082Y-74180994D01*
X114774234Y-74180994D01*
X114789596Y-74363943D01*
X114791334Y-74373411D01*
X114841936Y-74549884D01*
X114845487Y-74558852D01*
X114902972Y-74670706D01*
X114911099Y-74678777D01*
X114921163Y-74673627D01*
X115393704Y-74201086D01*
X115398946Y-74190797D01*
X116128242Y-74190797D01*
X116129038Y-74195828D01*
X116605884Y-74672674D01*
X116616739Y-74678205D01*
X116624147Y-74671126D01*
X116666266Y-74596984D01*
X116670181Y-74588189D01*
X116728132Y-74413983D01*
X116730266Y-74404589D01*
X116753534Y-74220403D01*
X116753921Y-74214876D01*
X116754229Y-74192770D01*
X116753998Y-74187242D01*
X116735880Y-74002474D01*
X116734010Y-73993026D01*
X116680946Y-73817270D01*
X116677277Y-73808366D01*
X116624780Y-73709635D01*
X116616363Y-73701507D01*
X116606645Y-73706565D01*
X116134296Y-74178914D01*
X116128242Y-74190797D01*
X115398946Y-74190797D01*
X115399758Y-74189203D01*
X115398962Y-74184172D01*
X114921963Y-73707173D01*
X114911321Y-73701751D01*
X114903707Y-73709129D01*
X114856145Y-73795644D01*
X114852346Y-73804509D01*
X114796836Y-73979497D01*
X114794832Y-73988925D01*
X114774368Y-74171366D01*
X114774234Y-74180994D01*
X83266082Y-74180994D01*
X83254234Y-74060173D01*
X83247329Y-73989751D01*
X83189174Y-73797130D01*
X83094712Y-73619473D01*
X83083465Y-73605682D01*
X82970603Y-73467300D01*
X82970602Y-73467299D01*
X82967542Y-73463547D01*
X82850129Y-73366415D01*
X82816235Y-73338375D01*
X82816233Y-73338374D01*
X82815040Y-73337387D01*
X115275382Y-73337387D01*
X115280486Y-73347276D01*
X115752914Y-73819704D01*
X115764797Y-73825758D01*
X115769828Y-73824962D01*
X116246957Y-73347833D01*
X116252324Y-73337299D01*
X116244796Y-73329584D01*
X116151998Y-73279408D01*
X116143127Y-73275679D01*
X115967742Y-73221388D01*
X115958310Y-73219452D01*
X115775729Y-73200262D01*
X115766091Y-73200195D01*
X115583262Y-73216833D01*
X115573796Y-73218639D01*
X115397678Y-73270474D01*
X115388754Y-73274079D01*
X115283484Y-73329113D01*
X115275382Y-73337387D01*
X82815040Y-73337387D01*
X82812508Y-73335292D01*
X82635515Y-73239592D01*
X82561992Y-73216833D01*
X82447925Y-73181523D01*
X82447921Y-73181522D01*
X82443304Y-73180093D01*
X82438496Y-73179588D01*
X82438493Y-73179587D01*
X82248013Y-73159567D01*
X82248011Y-73159567D01*
X82243197Y-73159061D01*
X82177064Y-73165080D01*
X82047637Y-73176858D01*
X82047634Y-73176859D01*
X82042817Y-73177297D01*
X82038175Y-73178663D01*
X82038171Y-73178664D01*
X81854441Y-73232739D01*
X81854438Y-73232740D01*
X81849794Y-73234107D01*
X81671482Y-73327326D01*
X81667713Y-73330356D01*
X81667712Y-73330357D01*
X81657740Y-73338375D01*
X81514672Y-73453404D01*
X81511565Y-73457107D01*
X81388447Y-73603833D01*
X81388444Y-73603837D01*
X81385338Y-73607539D01*
X81288405Y-73783860D01*
X81286942Y-73788473D01*
X81286940Y-73788477D01*
X81275114Y-73825758D01*
X81227565Y-73975651D01*
X81227025Y-73980465D01*
X81208226Y-74148061D01*
X81205136Y-74175605D01*
X61687678Y-74175605D01*
X61703571Y-74065997D01*
X61703571Y-74065991D01*
X61703991Y-74063098D01*
X61705643Y-74000000D01*
X61705003Y-73993026D01*
X61688034Y-73808366D01*
X61685454Y-73780289D01*
X61663304Y-73701751D01*
X61626799Y-73572311D01*
X61626798Y-73572310D01*
X61625565Y-73567936D01*
X61623557Y-73563864D01*
X61623555Y-73563859D01*
X61529988Y-73374125D01*
X61527980Y-73370053D01*
X61413565Y-73216833D01*
X61398683Y-73196904D01*
X61398682Y-73196903D01*
X61395967Y-73193267D01*
X61233949Y-73043499D01*
X61175205Y-73006434D01*
X61165008Y-73000000D01*
X74894318Y-73000000D01*
X74914956Y-73156762D01*
X74975464Y-73302841D01*
X75071718Y-73428282D01*
X75197159Y-73524536D01*
X75343238Y-73585044D01*
X75500000Y-73605682D01*
X75656762Y-73585044D01*
X75802841Y-73524536D01*
X75928282Y-73428282D01*
X76024536Y-73302841D01*
X76085044Y-73156762D01*
X76105682Y-73000000D01*
X76085044Y-72843238D01*
X76024536Y-72697159D01*
X75928282Y-72571718D01*
X75802841Y-72475464D01*
X75656762Y-72414956D01*
X75500000Y-72394318D01*
X75343238Y-72414956D01*
X75197159Y-72475464D01*
X75071718Y-72571718D01*
X74975464Y-72697159D01*
X74914956Y-72843238D01*
X74894318Y-73000000D01*
X61165008Y-73000000D01*
X61051187Y-72928185D01*
X61047350Y-72925764D01*
X60842421Y-72844006D01*
X60626024Y-72800962D01*
X60517347Y-72799539D01*
X60409946Y-72798133D01*
X60409941Y-72798133D01*
X60405406Y-72798074D01*
X60400933Y-72798843D01*
X60400928Y-72798843D01*
X60192435Y-72834668D01*
X60192429Y-72834670D01*
X60187957Y-72835438D01*
X60084457Y-72873621D01*
X59985220Y-72910231D01*
X59985217Y-72910232D01*
X59980957Y-72911804D01*
X59977054Y-72914126D01*
X59977052Y-72914127D01*
X59957492Y-72925764D01*
X59791341Y-73024614D01*
X59787926Y-73027609D01*
X59787923Y-73027611D01*
X59680036Y-73122225D01*
X59625457Y-73170090D01*
X59622649Y-73173652D01*
X59492793Y-73338375D01*
X59488863Y-73343360D01*
X59486749Y-73347378D01*
X59392235Y-73527019D01*
X59386131Y-73538620D01*
X59384787Y-73542949D01*
X59333030Y-73709635D01*
X59320703Y-73749333D01*
X59320169Y-73753843D01*
X59320169Y-73753844D01*
X59295303Y-73963936D01*
X59294770Y-73968440D01*
X53500000Y-73968440D01*
X53500000Y-72000000D01*
X68894318Y-72000000D01*
X68914956Y-72156762D01*
X68975464Y-72302841D01*
X69071718Y-72428282D01*
X69197159Y-72524536D01*
X69343238Y-72585044D01*
X69500000Y-72605682D01*
X69656762Y-72585044D01*
X69802841Y-72524536D01*
X69928282Y-72428282D01*
X70024536Y-72302841D01*
X70085044Y-72156762D01*
X70105682Y-72000000D01*
X70085044Y-71843238D01*
X70024536Y-71697159D01*
X69977304Y-71635605D01*
X81205136Y-71635605D01*
X81221973Y-71836109D01*
X81223306Y-71840757D01*
X81223306Y-71840758D01*
X81271803Y-72009884D01*
X81277434Y-72029523D01*
X81369406Y-72208482D01*
X81494387Y-72366168D01*
X81498067Y-72369300D01*
X81498069Y-72369302D01*
X81561316Y-72423129D01*
X81647615Y-72496575D01*
X81651838Y-72498935D01*
X81651842Y-72498938D01*
X81759204Y-72558940D01*
X81823255Y-72594737D01*
X81827853Y-72596231D01*
X82010011Y-72655418D01*
X82010013Y-72655419D01*
X82014616Y-72656914D01*
X82214409Y-72680738D01*
X82219231Y-72680367D01*
X82219233Y-72680367D01*
X82410197Y-72665673D01*
X82410202Y-72665672D01*
X82415025Y-72665301D01*
X82608822Y-72611192D01*
X82613135Y-72609013D01*
X82613141Y-72609011D01*
X82784097Y-72522655D01*
X82784099Y-72522653D01*
X82788418Y-72520472D01*
X82811175Y-72502692D01*
X115275790Y-72502692D01*
X115283019Y-72510204D01*
X115363321Y-72555083D01*
X115372149Y-72558940D01*
X115546755Y-72615673D01*
X115556155Y-72617740D01*
X115738460Y-72639478D01*
X115748086Y-72639680D01*
X115931130Y-72625595D01*
X115940621Y-72623922D01*
X116117436Y-72574554D01*
X116126433Y-72571064D01*
X116244931Y-72511207D01*
X116252971Y-72503223D01*
X116247779Y-72492989D01*
X115775086Y-72020296D01*
X115763203Y-72014242D01*
X115758172Y-72015038D01*
X115281267Y-72491943D01*
X115275790Y-72502692D01*
X82811175Y-72502692D01*
X82946973Y-72396595D01*
X82950135Y-72392932D01*
X82950140Y-72392927D01*
X83075283Y-72247946D01*
X83078447Y-72244281D01*
X83128165Y-72156762D01*
X83175439Y-72073544D01*
X83175440Y-72073542D01*
X83177832Y-72069331D01*
X83241344Y-71878409D01*
X83266562Y-71678786D01*
X83266964Y-71650000D01*
X83266459Y-71644843D01*
X83266082Y-71640994D01*
X114774234Y-71640994D01*
X114789596Y-71823943D01*
X114791334Y-71833411D01*
X114841936Y-72009884D01*
X114845487Y-72018852D01*
X114902972Y-72130706D01*
X114911099Y-72138777D01*
X114921163Y-72133627D01*
X115393704Y-71661086D01*
X115398946Y-71650797D01*
X116128242Y-71650797D01*
X116129038Y-71655828D01*
X116605884Y-72132674D01*
X116616739Y-72138205D01*
X116624147Y-72131126D01*
X116666266Y-72056984D01*
X116670181Y-72048189D01*
X116728132Y-71873983D01*
X116730266Y-71864589D01*
X116753534Y-71680403D01*
X116753921Y-71674876D01*
X116754229Y-71652770D01*
X116753998Y-71647242D01*
X116735880Y-71462474D01*
X116734010Y-71453026D01*
X116680946Y-71277270D01*
X116677277Y-71268366D01*
X116624780Y-71169635D01*
X116616363Y-71161507D01*
X116606645Y-71166565D01*
X116134296Y-71638914D01*
X116128242Y-71650797D01*
X115398946Y-71650797D01*
X115399758Y-71649203D01*
X115398962Y-71644172D01*
X114921963Y-71167173D01*
X114911321Y-71161751D01*
X114903707Y-71169129D01*
X114856145Y-71255644D01*
X114852346Y-71264509D01*
X114796836Y-71439497D01*
X114794832Y-71448925D01*
X114774368Y-71631366D01*
X114774234Y-71640994D01*
X83266082Y-71640994D01*
X83251846Y-71495819D01*
X83247329Y-71449751D01*
X83189174Y-71257130D01*
X83109098Y-71106529D01*
X83096985Y-71083747D01*
X83096983Y-71083743D01*
X83094712Y-71079473D01*
X83081957Y-71063833D01*
X82970603Y-70927300D01*
X82970602Y-70927299D01*
X82967542Y-70923547D01*
X82896189Y-70864518D01*
X82816235Y-70798375D01*
X82816233Y-70798374D01*
X82815040Y-70797387D01*
X115275382Y-70797387D01*
X115280486Y-70807276D01*
X115752914Y-71279704D01*
X115764797Y-71285758D01*
X115769828Y-71284962D01*
X116246957Y-70807833D01*
X116252324Y-70797299D01*
X116244796Y-70789584D01*
X116151998Y-70739408D01*
X116143127Y-70735679D01*
X115967742Y-70681388D01*
X115958310Y-70679452D01*
X115775729Y-70660262D01*
X115766091Y-70660195D01*
X115583262Y-70676833D01*
X115573796Y-70678639D01*
X115397678Y-70730474D01*
X115388754Y-70734079D01*
X115283484Y-70789113D01*
X115275382Y-70797387D01*
X82815040Y-70797387D01*
X82812508Y-70795292D01*
X82635515Y-70699592D01*
X82561992Y-70676833D01*
X82447925Y-70641523D01*
X82447921Y-70641522D01*
X82443304Y-70640093D01*
X82438496Y-70639588D01*
X82438493Y-70639587D01*
X82248013Y-70619567D01*
X82248011Y-70619567D01*
X82243197Y-70619061D01*
X82177064Y-70625080D01*
X82047637Y-70636858D01*
X82047634Y-70636859D01*
X82042817Y-70637297D01*
X82038175Y-70638663D01*
X82038171Y-70638664D01*
X81854441Y-70692739D01*
X81854438Y-70692740D01*
X81849794Y-70694107D01*
X81671482Y-70787326D01*
X81667713Y-70790356D01*
X81667712Y-70790357D01*
X81657740Y-70798375D01*
X81514672Y-70913404D01*
X81511565Y-70917107D01*
X81388447Y-71063833D01*
X81388444Y-71063837D01*
X81385338Y-71067539D01*
X81288405Y-71243860D01*
X81286942Y-71248473D01*
X81286940Y-71248477D01*
X81275114Y-71285758D01*
X81227565Y-71435651D01*
X81227025Y-71440465D01*
X81208972Y-71601410D01*
X81205136Y-71635605D01*
X69977304Y-71635605D01*
X69928282Y-71571718D01*
X69802841Y-71475464D01*
X69656762Y-71414956D01*
X69500000Y-71394318D01*
X69343238Y-71414956D01*
X69197159Y-71475464D01*
X69071718Y-71571718D01*
X68975464Y-71697159D01*
X68914956Y-71843238D01*
X68894318Y-72000000D01*
X53500000Y-72000000D01*
X53500000Y-70468440D01*
X61794770Y-70468440D01*
X61800428Y-70554760D01*
X61808429Y-70676833D01*
X61809200Y-70688604D01*
X61810316Y-70692997D01*
X61810316Y-70692999D01*
X61862395Y-70898058D01*
X61863511Y-70902452D01*
X61955883Y-71102821D01*
X62083222Y-71283002D01*
X62241264Y-71436961D01*
X62424717Y-71559540D01*
X62627436Y-71646635D01*
X62691300Y-71661086D01*
X62838206Y-71694328D01*
X62838211Y-71694329D01*
X62842632Y-71695329D01*
X62952865Y-71699660D01*
X63058565Y-71703813D01*
X63058566Y-71703813D01*
X63063098Y-71703991D01*
X63281452Y-71672331D01*
X63285751Y-71670872D01*
X63285754Y-71670871D01*
X63486078Y-71602870D01*
X63490379Y-71601410D01*
X63561944Y-71561332D01*
X63678925Y-71495819D01*
X63682884Y-71493602D01*
X63852518Y-71352518D01*
X63993602Y-71182884D01*
X64101410Y-70990379D01*
X64125145Y-70920459D01*
X64170871Y-70785754D01*
X64170872Y-70785751D01*
X64172331Y-70781452D01*
X64176891Y-70750000D01*
X66394318Y-70750000D01*
X66414956Y-70906762D01*
X66475464Y-71052841D01*
X66571718Y-71178282D01*
X66697159Y-71274536D01*
X66843238Y-71335044D01*
X67000000Y-71355682D01*
X67156762Y-71335044D01*
X67302841Y-71274536D01*
X67428282Y-71178282D01*
X67524536Y-71052841D01*
X67585044Y-70906762D01*
X67605682Y-70750000D01*
X67585044Y-70593238D01*
X67524536Y-70447159D01*
X67428282Y-70321718D01*
X67302841Y-70225464D01*
X67156762Y-70164956D01*
X67025203Y-70147636D01*
X67006434Y-70145165D01*
X67000000Y-70144318D01*
X66993566Y-70145165D01*
X66974797Y-70147636D01*
X66843238Y-70164956D01*
X66697159Y-70225464D01*
X66571718Y-70321718D01*
X66475464Y-70447159D01*
X66414956Y-70593238D01*
X66394318Y-70750000D01*
X64176891Y-70750000D01*
X64179200Y-70734079D01*
X64203571Y-70565997D01*
X64203571Y-70565991D01*
X64203991Y-70563098D01*
X64205643Y-70500000D01*
X64201339Y-70453154D01*
X64189261Y-70321718D01*
X64185454Y-70280289D01*
X64152688Y-70164109D01*
X64126799Y-70072311D01*
X64126798Y-70072310D01*
X64125565Y-70067936D01*
X64123557Y-70063864D01*
X64123555Y-70063859D01*
X64029988Y-69874125D01*
X64027980Y-69870053D01*
X63895967Y-69693267D01*
X63865269Y-69664890D01*
X63737279Y-69546577D01*
X63737278Y-69546576D01*
X63733949Y-69543499D01*
X63547350Y-69425764D01*
X63342421Y-69344006D01*
X63126024Y-69300962D01*
X63017347Y-69299539D01*
X62909946Y-69298133D01*
X62909941Y-69298133D01*
X62905406Y-69298074D01*
X62900933Y-69298843D01*
X62900928Y-69298843D01*
X62692435Y-69334668D01*
X62692429Y-69334670D01*
X62687957Y-69335438D01*
X62660176Y-69345687D01*
X62485220Y-69410231D01*
X62485217Y-69410232D01*
X62480957Y-69411804D01*
X62477054Y-69414126D01*
X62477052Y-69414127D01*
X62457492Y-69425764D01*
X62291341Y-69524614D01*
X62287926Y-69527609D01*
X62287923Y-69527611D01*
X62206865Y-69598697D01*
X62125457Y-69670090D01*
X61988863Y-69843360D01*
X61886131Y-70038620D01*
X61884787Y-70042949D01*
X61826888Y-70229415D01*
X61820703Y-70249333D01*
X61820169Y-70253843D01*
X61820169Y-70253844D01*
X61817039Y-70280289D01*
X61794770Y-70468440D01*
X53500000Y-70468440D01*
X53500000Y-69669748D01*
X54949500Y-69669748D01*
X54961133Y-69728231D01*
X55005448Y-69794552D01*
X55071769Y-69838867D01*
X55081332Y-69840769D01*
X55081334Y-69840770D01*
X55104005Y-69845279D01*
X55130252Y-69850500D01*
X56869748Y-69850500D01*
X56895995Y-69845279D01*
X56918666Y-69840770D01*
X56918668Y-69840769D01*
X56928231Y-69838867D01*
X56994552Y-69794552D01*
X57038867Y-69728231D01*
X57050500Y-69669748D01*
X57050500Y-68968440D01*
X74294770Y-68968440D01*
X74309200Y-69188604D01*
X74310316Y-69192997D01*
X74310316Y-69192999D01*
X74346296Y-69334668D01*
X74363511Y-69402452D01*
X74455883Y-69602821D01*
X74583222Y-69783002D01*
X74741264Y-69936961D01*
X74924717Y-70059540D01*
X75127436Y-70146635D01*
X75204660Y-70164109D01*
X75338206Y-70194328D01*
X75338211Y-70194329D01*
X75342632Y-70195329D01*
X75452865Y-70199660D01*
X75558565Y-70203813D01*
X75558566Y-70203813D01*
X75563098Y-70203991D01*
X75781452Y-70172331D01*
X75785751Y-70170872D01*
X75785754Y-70170871D01*
X75986078Y-70102870D01*
X75990379Y-70101410D01*
X76061944Y-70061332D01*
X76178925Y-69995819D01*
X76182884Y-69993602D01*
X76352518Y-69852518D01*
X76363872Y-69838867D01*
X76463842Y-69718666D01*
X76493602Y-69682884D01*
X76569938Y-69546577D01*
X76599192Y-69494340D01*
X76599193Y-69494338D01*
X76601410Y-69490379D01*
X76651397Y-69343122D01*
X76670871Y-69285754D01*
X76670872Y-69285751D01*
X76672331Y-69281452D01*
X76685156Y-69192999D01*
X76703571Y-69065997D01*
X76703571Y-69065991D01*
X76703991Y-69063098D01*
X76705643Y-69000000D01*
X76685454Y-68780289D01*
X76625565Y-68567936D01*
X76623557Y-68563864D01*
X76623555Y-68563859D01*
X76529988Y-68374125D01*
X76527980Y-68370053D01*
X76395967Y-68193267D01*
X76233949Y-68043499D01*
X76047350Y-67925764D01*
X75842421Y-67844006D01*
X75626024Y-67800962D01*
X75517347Y-67799539D01*
X75409946Y-67798133D01*
X75409941Y-67798133D01*
X75405406Y-67798074D01*
X75400933Y-67798843D01*
X75400928Y-67798843D01*
X75192435Y-67834668D01*
X75192429Y-67834670D01*
X75187957Y-67835438D01*
X75160176Y-67845687D01*
X74985220Y-67910231D01*
X74985217Y-67910232D01*
X74980957Y-67911804D01*
X74977054Y-67914126D01*
X74977052Y-67914127D01*
X74957956Y-67925488D01*
X74791341Y-68024614D01*
X74787926Y-68027609D01*
X74787923Y-68027611D01*
X74680036Y-68122225D01*
X74625457Y-68170090D01*
X74488863Y-68343360D01*
X74386131Y-68538620D01*
X74320703Y-68749333D01*
X74320169Y-68753843D01*
X74320169Y-68753844D01*
X74317039Y-68780289D01*
X74294770Y-68968440D01*
X57050500Y-68968440D01*
X57050500Y-67930252D01*
X57038867Y-67871769D01*
X56994552Y-67805448D01*
X56928231Y-67761133D01*
X56918668Y-67759231D01*
X56918666Y-67759230D01*
X56895995Y-67754721D01*
X56869748Y-67749500D01*
X55130252Y-67749500D01*
X55104005Y-67754721D01*
X55081334Y-67759230D01*
X55081332Y-67759231D01*
X55071769Y-67761133D01*
X55005448Y-67805448D01*
X54961133Y-67871769D01*
X54949500Y-67930252D01*
X54949500Y-69669748D01*
X53500000Y-69669748D01*
X53500000Y-66245262D01*
X54944520Y-66245262D01*
X54961759Y-66450553D01*
X55018544Y-66648586D01*
X55112712Y-66831818D01*
X55240677Y-66993270D01*
X55244357Y-66996402D01*
X55244359Y-66996404D01*
X55357017Y-67092283D01*
X55397564Y-67126791D01*
X55401787Y-67129151D01*
X55401791Y-67129154D01*
X55441342Y-67151258D01*
X55577398Y-67227297D01*
X55581996Y-67228791D01*
X55768724Y-67289463D01*
X55768726Y-67289464D01*
X55773329Y-67290959D01*
X55977894Y-67315351D01*
X55982716Y-67314980D01*
X55982719Y-67314980D01*
X56050541Y-67309761D01*
X56183300Y-67299546D01*
X56381725Y-67244145D01*
X56386038Y-67241966D01*
X56386044Y-67241964D01*
X56561289Y-67153441D01*
X56561291Y-67153440D01*
X56565610Y-67151258D01*
X56600943Y-67123653D01*
X56724135Y-67027406D01*
X56724139Y-67027402D01*
X56727951Y-67024424D01*
X56862564Y-66868472D01*
X56881231Y-66835613D01*
X56961934Y-66693550D01*
X56961935Y-66693547D01*
X56964323Y-66689344D01*
X56977882Y-66648586D01*
X57027824Y-66498454D01*
X57027824Y-66498452D01*
X57029351Y-66493863D01*
X57055171Y-66289474D01*
X57055583Y-66260000D01*
X57035480Y-66054970D01*
X56975935Y-65857749D01*
X56879218Y-65675849D01*
X56749011Y-65516200D01*
X56590275Y-65384882D01*
X56409055Y-65286897D01*
X56345855Y-65267333D01*
X56216875Y-65227407D01*
X56216871Y-65227406D01*
X56212254Y-65225977D01*
X56207446Y-65225472D01*
X56207443Y-65225471D01*
X56012185Y-65204949D01*
X56012183Y-65204949D01*
X56007369Y-65204443D01*
X55947354Y-65209905D01*
X55807022Y-65222675D01*
X55807017Y-65222676D01*
X55802203Y-65223114D01*
X55604572Y-65281280D01*
X55600288Y-65283519D01*
X55600287Y-65283520D01*
X55589428Y-65289197D01*
X55422002Y-65376726D01*
X55418231Y-65379758D01*
X55265220Y-65502781D01*
X55265217Y-65502783D01*
X55261447Y-65505815D01*
X55258333Y-65509526D01*
X55258332Y-65509527D01*
X55142445Y-65647636D01*
X55129024Y-65663630D01*
X55126689Y-65667878D01*
X55126688Y-65667879D01*
X55107194Y-65703339D01*
X55029776Y-65844162D01*
X54967484Y-66040532D01*
X54966944Y-66045344D01*
X54966944Y-66045345D01*
X54965865Y-66054970D01*
X54944520Y-66245262D01*
X53500000Y-66245262D01*
X53500000Y-63705262D01*
X54944520Y-63705262D01*
X54944925Y-63710082D01*
X54958053Y-63866415D01*
X54961759Y-63910553D01*
X54963092Y-63915201D01*
X54963092Y-63915202D01*
X55005719Y-64063859D01*
X55018544Y-64108586D01*
X55112712Y-64291818D01*
X55240677Y-64453270D01*
X55244357Y-64456402D01*
X55244359Y-64456404D01*
X55357017Y-64552283D01*
X55397564Y-64586791D01*
X55401787Y-64589151D01*
X55401791Y-64589154D01*
X55441342Y-64611258D01*
X55577398Y-64687297D01*
X55581996Y-64688791D01*
X55768724Y-64749463D01*
X55768726Y-64749464D01*
X55773329Y-64750959D01*
X55977894Y-64775351D01*
X55982716Y-64774980D01*
X55982719Y-64774980D01*
X56050541Y-64769761D01*
X56183300Y-64759546D01*
X56381725Y-64704145D01*
X56386038Y-64701966D01*
X56386044Y-64701964D01*
X56561289Y-64613441D01*
X56561291Y-64613440D01*
X56565610Y-64611258D01*
X56623542Y-64565997D01*
X56724135Y-64487406D01*
X56724139Y-64487402D01*
X56727951Y-64484424D01*
X56737840Y-64472968D01*
X56741748Y-64468440D01*
X70794770Y-64468440D01*
X70800428Y-64554760D01*
X70804131Y-64611258D01*
X70809200Y-64688604D01*
X70810316Y-64692997D01*
X70810316Y-64692999D01*
X70833873Y-64785754D01*
X70863511Y-64902452D01*
X70955883Y-65102821D01*
X71083222Y-65283002D01*
X71241264Y-65436961D01*
X71424717Y-65559540D01*
X71627436Y-65646635D01*
X71686125Y-65659915D01*
X71838206Y-65694328D01*
X71838211Y-65694329D01*
X71842632Y-65695329D01*
X71952865Y-65699660D01*
X72058565Y-65703813D01*
X72058566Y-65703813D01*
X72063098Y-65703991D01*
X72281452Y-65672331D01*
X72285751Y-65670872D01*
X72285754Y-65670871D01*
X72486078Y-65602870D01*
X72490379Y-65601410D01*
X72561944Y-65561332D01*
X72678925Y-65495819D01*
X72682884Y-65493602D01*
X72852518Y-65352518D01*
X72993602Y-65182884D01*
X73101410Y-64990379D01*
X73172331Y-64781452D01*
X73185766Y-64688791D01*
X73203571Y-64565997D01*
X73203571Y-64565991D01*
X73203991Y-64563098D01*
X73205643Y-64500000D01*
X73185454Y-64280289D01*
X73125565Y-64067936D01*
X73123557Y-64063864D01*
X73123555Y-64063859D01*
X73029988Y-63874125D01*
X73027980Y-63870053D01*
X72895967Y-63693267D01*
X72733949Y-63543499D01*
X72688734Y-63514970D01*
X72551187Y-63428185D01*
X72547350Y-63425764D01*
X72342421Y-63344006D01*
X72126024Y-63300962D01*
X72017347Y-63299539D01*
X71909946Y-63298133D01*
X71909941Y-63298133D01*
X71905406Y-63298074D01*
X71900933Y-63298843D01*
X71900928Y-63298843D01*
X71692435Y-63334668D01*
X71692429Y-63334670D01*
X71687957Y-63335438D01*
X71660176Y-63345687D01*
X71485220Y-63410231D01*
X71485217Y-63410232D01*
X71480957Y-63411804D01*
X71477054Y-63414126D01*
X71477052Y-63414127D01*
X71457492Y-63425764D01*
X71291341Y-63524614D01*
X71287926Y-63527609D01*
X71287923Y-63527611D01*
X71180036Y-63622225D01*
X71125457Y-63670090D01*
X70988863Y-63843360D01*
X70986749Y-63847378D01*
X70928309Y-63958454D01*
X70886131Y-64038620D01*
X70820703Y-64249333D01*
X70820169Y-64253843D01*
X70820169Y-64253844D01*
X70795303Y-64463936D01*
X70794770Y-64468440D01*
X56741748Y-64468440D01*
X56787313Y-64415651D01*
X56862564Y-64328472D01*
X56881231Y-64295613D01*
X56961934Y-64153550D01*
X56961935Y-64153547D01*
X56964323Y-64149344D01*
X56977882Y-64108586D01*
X57027824Y-63958454D01*
X57027824Y-63958452D01*
X57029351Y-63953863D01*
X57055171Y-63749474D01*
X57055583Y-63720000D01*
X57053667Y-63700454D01*
X57035952Y-63519780D01*
X57035951Y-63519776D01*
X57035480Y-63514970D01*
X57005034Y-63414127D01*
X56984370Y-63345687D01*
X56975935Y-63317749D01*
X56879218Y-63135849D01*
X56749011Y-62976200D01*
X56590275Y-62844882D01*
X56409055Y-62746897D01*
X56345855Y-62727333D01*
X56216875Y-62687407D01*
X56216871Y-62687406D01*
X56212254Y-62685977D01*
X56207446Y-62685472D01*
X56207443Y-62685471D01*
X56012185Y-62664949D01*
X56012183Y-62664949D01*
X56007369Y-62664443D01*
X55947354Y-62669905D01*
X55807022Y-62682675D01*
X55807017Y-62682676D01*
X55802203Y-62683114D01*
X55604572Y-62741280D01*
X55600288Y-62743519D01*
X55600287Y-62743520D01*
X55589428Y-62749197D01*
X55422002Y-62836726D01*
X55418231Y-62839758D01*
X55265220Y-62962781D01*
X55265217Y-62962783D01*
X55261447Y-62965815D01*
X55258333Y-62969526D01*
X55258332Y-62969527D01*
X55161402Y-63085044D01*
X55129024Y-63123630D01*
X55126689Y-63127878D01*
X55126688Y-63127879D01*
X55119955Y-63140126D01*
X55029776Y-63304162D01*
X55028313Y-63308775D01*
X55028311Y-63308779D01*
X54996129Y-63410231D01*
X54967484Y-63500532D01*
X54966944Y-63505344D01*
X54966944Y-63505345D01*
X54948066Y-63673652D01*
X54944520Y-63705262D01*
X53500000Y-63705262D01*
X53500000Y-62500000D01*
X60894318Y-62500000D01*
X60914956Y-62656762D01*
X60975464Y-62802841D01*
X61071718Y-62928282D01*
X61197159Y-63024536D01*
X61343238Y-63085044D01*
X61500000Y-63105682D01*
X61656762Y-63085044D01*
X61802841Y-63024536D01*
X61928282Y-62928282D01*
X62024536Y-62802841D01*
X62085044Y-62656762D01*
X62105682Y-62500000D01*
X62394318Y-62500000D01*
X62414956Y-62656762D01*
X62475464Y-62802841D01*
X62571718Y-62928282D01*
X62697159Y-63024536D01*
X62843238Y-63085044D01*
X63000000Y-63105682D01*
X63156762Y-63085044D01*
X63302841Y-63024536D01*
X63428282Y-62928282D01*
X63524536Y-62802841D01*
X63585044Y-62656762D01*
X63605682Y-62500000D01*
X63585044Y-62343238D01*
X63524536Y-62197159D01*
X63428282Y-62071718D01*
X63302841Y-61975464D01*
X63185046Y-61926671D01*
X63162759Y-61917440D01*
X63156762Y-61914956D01*
X63000000Y-61894318D01*
X62843238Y-61914956D01*
X62837241Y-61917440D01*
X62814954Y-61926671D01*
X62697159Y-61975464D01*
X62571718Y-62071718D01*
X62475464Y-62197159D01*
X62414956Y-62343238D01*
X62394318Y-62500000D01*
X62105682Y-62500000D01*
X62085044Y-62343238D01*
X62024536Y-62197159D01*
X61928282Y-62071718D01*
X61802841Y-61975464D01*
X61685046Y-61926671D01*
X61662759Y-61917440D01*
X61656762Y-61914956D01*
X61500000Y-61894318D01*
X61343238Y-61914956D01*
X61337241Y-61917440D01*
X61314954Y-61926671D01*
X61197159Y-61975464D01*
X61071718Y-62071718D01*
X60975464Y-62197159D01*
X60914956Y-62343238D01*
X60894318Y-62500000D01*
X53500000Y-62500000D01*
X53500000Y-61448222D01*
X55026164Y-61448222D01*
X55055046Y-61548947D01*
X55058597Y-61557915D01*
X55144705Y-61725463D01*
X55149928Y-61733568D01*
X55266950Y-61881213D01*
X55273633Y-61888134D01*
X55417103Y-62010236D01*
X55425017Y-62015737D01*
X55589467Y-62107644D01*
X55598289Y-62111499D01*
X55731089Y-62154648D01*
X55742479Y-62154648D01*
X55746000Y-62143813D01*
X55746000Y-62142076D01*
X56254000Y-62142076D01*
X56257747Y-62153609D01*
X56268079Y-62153825D01*
X56362343Y-62127506D01*
X56371332Y-62124019D01*
X56539483Y-62039080D01*
X56547621Y-62033915D01*
X56696070Y-61917935D01*
X56703050Y-61911288D01*
X56826146Y-61768679D01*
X56831701Y-61760804D01*
X56832301Y-61759748D01*
X87599500Y-61759748D01*
X87611133Y-61818231D01*
X87655448Y-61884552D01*
X87721769Y-61928867D01*
X87731332Y-61930769D01*
X87731334Y-61930770D01*
X87754005Y-61935279D01*
X87780252Y-61940500D01*
X89519748Y-61940500D01*
X89545995Y-61935279D01*
X89568666Y-61930770D01*
X89568668Y-61930769D01*
X89578231Y-61928867D01*
X89644552Y-61884552D01*
X89688867Y-61818231D01*
X89700500Y-61759748D01*
X89700500Y-61158222D01*
X90216164Y-61158222D01*
X90245046Y-61258947D01*
X90248597Y-61267915D01*
X90334705Y-61435463D01*
X90339928Y-61443568D01*
X90456950Y-61591213D01*
X90463633Y-61598134D01*
X90607103Y-61720236D01*
X90615017Y-61725737D01*
X90779467Y-61817644D01*
X90788289Y-61821499D01*
X90921089Y-61864648D01*
X90932479Y-61864648D01*
X90936000Y-61853813D01*
X90936000Y-61852076D01*
X91444000Y-61852076D01*
X91447747Y-61863609D01*
X91458079Y-61863825D01*
X91552343Y-61837506D01*
X91561332Y-61834019D01*
X91729483Y-61749080D01*
X91737621Y-61743915D01*
X91886070Y-61627935D01*
X91893050Y-61621288D01*
X92016146Y-61478679D01*
X92021701Y-61470804D01*
X92114756Y-61306998D01*
X92118672Y-61298203D01*
X92165018Y-61158879D01*
X92165097Y-61147612D01*
X92154112Y-61144000D01*
X91459680Y-61144000D01*
X91446995Y-61148122D01*
X91444000Y-61152243D01*
X91444000Y-61852076D01*
X90936000Y-61852076D01*
X90936000Y-61159680D01*
X90931878Y-61146995D01*
X90927757Y-61144000D01*
X90227766Y-61144000D01*
X90216348Y-61147710D01*
X90216164Y-61158222D01*
X89700500Y-61158222D01*
X89700500Y-60875262D01*
X92674520Y-60875262D01*
X92691759Y-61080553D01*
X92693092Y-61085201D01*
X92693092Y-61085202D01*
X92742913Y-61258947D01*
X92748544Y-61278586D01*
X92842712Y-61461818D01*
X92970677Y-61623270D01*
X92974357Y-61626402D01*
X92974359Y-61626404D01*
X93084612Y-61720236D01*
X93127564Y-61756791D01*
X93131787Y-61759151D01*
X93131791Y-61759154D01*
X93171342Y-61781258D01*
X93307398Y-61857297D01*
X93311996Y-61858791D01*
X93498724Y-61919463D01*
X93498726Y-61919464D01*
X93503329Y-61920959D01*
X93707894Y-61945351D01*
X93712716Y-61944980D01*
X93712719Y-61944980D01*
X93783259Y-61939552D01*
X93913300Y-61929546D01*
X94111725Y-61874145D01*
X94116038Y-61871966D01*
X94116044Y-61871964D01*
X94291289Y-61783441D01*
X94291291Y-61783440D01*
X94295610Y-61781258D01*
X94299427Y-61778276D01*
X94454135Y-61657406D01*
X94454139Y-61657402D01*
X94457951Y-61654424D01*
X94480816Y-61627935D01*
X94517313Y-61585651D01*
X94592564Y-61498472D01*
X94611231Y-61465613D01*
X94691934Y-61323550D01*
X94691935Y-61323547D01*
X94694323Y-61319344D01*
X94707882Y-61278586D01*
X94757824Y-61128454D01*
X94757824Y-61128452D01*
X94759351Y-61123863D01*
X94785171Y-60919474D01*
X94785583Y-60890000D01*
X94784138Y-60875262D01*
X95214520Y-60875262D01*
X95231759Y-61080553D01*
X95233092Y-61085201D01*
X95233092Y-61085202D01*
X95282913Y-61258947D01*
X95288544Y-61278586D01*
X95382712Y-61461818D01*
X95510677Y-61623270D01*
X95514357Y-61626402D01*
X95514359Y-61626404D01*
X95624612Y-61720236D01*
X95667564Y-61756791D01*
X95671787Y-61759151D01*
X95671791Y-61759154D01*
X95711342Y-61781258D01*
X95847398Y-61857297D01*
X95851996Y-61858791D01*
X96038724Y-61919463D01*
X96038726Y-61919464D01*
X96043329Y-61920959D01*
X96247894Y-61945351D01*
X96252716Y-61944980D01*
X96252719Y-61944980D01*
X96323259Y-61939552D01*
X96453300Y-61929546D01*
X96651725Y-61874145D01*
X96656038Y-61871966D01*
X96656044Y-61871964D01*
X96831289Y-61783441D01*
X96831291Y-61783440D01*
X96835610Y-61781258D01*
X96839427Y-61778276D01*
X96994135Y-61657406D01*
X96994139Y-61657402D01*
X96997951Y-61654424D01*
X97020816Y-61627935D01*
X97057313Y-61585651D01*
X97132564Y-61498472D01*
X97151231Y-61465613D01*
X97231934Y-61323550D01*
X97231935Y-61323547D01*
X97234323Y-61319344D01*
X97247882Y-61278586D01*
X97297824Y-61128454D01*
X97297824Y-61128452D01*
X97299351Y-61123863D01*
X97325171Y-60919474D01*
X97325583Y-60890000D01*
X97324138Y-60875262D01*
X97754520Y-60875262D01*
X97771759Y-61080553D01*
X97773092Y-61085201D01*
X97773092Y-61085202D01*
X97822913Y-61258947D01*
X97828544Y-61278586D01*
X97922712Y-61461818D01*
X98050677Y-61623270D01*
X98054357Y-61626402D01*
X98054359Y-61626404D01*
X98164612Y-61720236D01*
X98207564Y-61756791D01*
X98211787Y-61759151D01*
X98211791Y-61759154D01*
X98251342Y-61781258D01*
X98387398Y-61857297D01*
X98391996Y-61858791D01*
X98578724Y-61919463D01*
X98578726Y-61919464D01*
X98583329Y-61920959D01*
X98787894Y-61945351D01*
X98792716Y-61944980D01*
X98792719Y-61944980D01*
X98863259Y-61939552D01*
X98993300Y-61929546D01*
X99191725Y-61874145D01*
X99196038Y-61871966D01*
X99196044Y-61871964D01*
X99371289Y-61783441D01*
X99371291Y-61783440D01*
X99375610Y-61781258D01*
X99379427Y-61778276D01*
X99534135Y-61657406D01*
X99534139Y-61657402D01*
X99537951Y-61654424D01*
X99560816Y-61627935D01*
X99597313Y-61585651D01*
X99672564Y-61498472D01*
X99691231Y-61465613D01*
X99771934Y-61323550D01*
X99771935Y-61323547D01*
X99774323Y-61319344D01*
X99787882Y-61278586D01*
X99837824Y-61128454D01*
X99837824Y-61128452D01*
X99839351Y-61123863D01*
X99865171Y-60919474D01*
X99865583Y-60890000D01*
X99864138Y-60875262D01*
X100294520Y-60875262D01*
X100311759Y-61080553D01*
X100313092Y-61085201D01*
X100313092Y-61085202D01*
X100362913Y-61258947D01*
X100368544Y-61278586D01*
X100462712Y-61461818D01*
X100590677Y-61623270D01*
X100594357Y-61626402D01*
X100594359Y-61626404D01*
X100704612Y-61720236D01*
X100747564Y-61756791D01*
X100751787Y-61759151D01*
X100751791Y-61759154D01*
X100791342Y-61781258D01*
X100927398Y-61857297D01*
X100931996Y-61858791D01*
X101118724Y-61919463D01*
X101118726Y-61919464D01*
X101123329Y-61920959D01*
X101327894Y-61945351D01*
X101332716Y-61944980D01*
X101332719Y-61944980D01*
X101403259Y-61939552D01*
X101533300Y-61929546D01*
X101731725Y-61874145D01*
X101736038Y-61871966D01*
X101736044Y-61871964D01*
X101911289Y-61783441D01*
X101911291Y-61783440D01*
X101915610Y-61781258D01*
X101919427Y-61778276D01*
X102074135Y-61657406D01*
X102074139Y-61657402D01*
X102077951Y-61654424D01*
X102100816Y-61627935D01*
X102137313Y-61585651D01*
X102212564Y-61498472D01*
X102231231Y-61465613D01*
X102311934Y-61323550D01*
X102311935Y-61323547D01*
X102314323Y-61319344D01*
X102327882Y-61278586D01*
X102377824Y-61128454D01*
X102377824Y-61128452D01*
X102379351Y-61123863D01*
X102405171Y-60919474D01*
X102405583Y-60890000D01*
X102385480Y-60684970D01*
X102369660Y-60632570D01*
X102327333Y-60492380D01*
X102325935Y-60487749D01*
X102229218Y-60305849D01*
X102099011Y-60146200D01*
X101978277Y-60046320D01*
X101944002Y-60017965D01*
X101944000Y-60017964D01*
X101940275Y-60014882D01*
X101759055Y-59916897D01*
X101689764Y-59895448D01*
X101566875Y-59857407D01*
X101566871Y-59857406D01*
X101562254Y-59855977D01*
X101557446Y-59855472D01*
X101557443Y-59855471D01*
X101362185Y-59834949D01*
X101362183Y-59834949D01*
X101357369Y-59834443D01*
X101301800Y-59839500D01*
X101157022Y-59852675D01*
X101157017Y-59852676D01*
X101152203Y-59853114D01*
X100954572Y-59911280D01*
X100950288Y-59913519D01*
X100950287Y-59913520D01*
X100939428Y-59919197D01*
X100772002Y-60006726D01*
X100768231Y-60009758D01*
X100615220Y-60132781D01*
X100615217Y-60132783D01*
X100611447Y-60135815D01*
X100608333Y-60139526D01*
X100608332Y-60139527D01*
X100542859Y-60217555D01*
X100479024Y-60293630D01*
X100476689Y-60297878D01*
X100476688Y-60297879D01*
X100457576Y-60332643D01*
X100379776Y-60474162D01*
X100378313Y-60478775D01*
X100378311Y-60478779D01*
X100335221Y-60614617D01*
X100317484Y-60670532D01*
X100316944Y-60675344D01*
X100316944Y-60675345D01*
X100303199Y-60797889D01*
X100294520Y-60875262D01*
X99864138Y-60875262D01*
X99845480Y-60684970D01*
X99829660Y-60632570D01*
X99787333Y-60492380D01*
X99785935Y-60487749D01*
X99689218Y-60305849D01*
X99559011Y-60146200D01*
X99438277Y-60046320D01*
X99404002Y-60017965D01*
X99404000Y-60017964D01*
X99400275Y-60014882D01*
X99219055Y-59916897D01*
X99149764Y-59895448D01*
X99026875Y-59857407D01*
X99026871Y-59857406D01*
X99022254Y-59855977D01*
X99017446Y-59855472D01*
X99017443Y-59855471D01*
X98822185Y-59834949D01*
X98822183Y-59834949D01*
X98817369Y-59834443D01*
X98761800Y-59839500D01*
X98617022Y-59852675D01*
X98617017Y-59852676D01*
X98612203Y-59853114D01*
X98414572Y-59911280D01*
X98410288Y-59913519D01*
X98410287Y-59913520D01*
X98399428Y-59919197D01*
X98232002Y-60006726D01*
X98228231Y-60009758D01*
X98075220Y-60132781D01*
X98075217Y-60132783D01*
X98071447Y-60135815D01*
X98068333Y-60139526D01*
X98068332Y-60139527D01*
X98002859Y-60217555D01*
X97939024Y-60293630D01*
X97936689Y-60297878D01*
X97936688Y-60297879D01*
X97917576Y-60332643D01*
X97839776Y-60474162D01*
X97838313Y-60478775D01*
X97838311Y-60478779D01*
X97795221Y-60614617D01*
X97777484Y-60670532D01*
X97776944Y-60675344D01*
X97776944Y-60675345D01*
X97763199Y-60797889D01*
X97754520Y-60875262D01*
X97324138Y-60875262D01*
X97305480Y-60684970D01*
X97289660Y-60632570D01*
X97247333Y-60492380D01*
X97245935Y-60487749D01*
X97149218Y-60305849D01*
X97019011Y-60146200D01*
X96898277Y-60046320D01*
X96864002Y-60017965D01*
X96864000Y-60017964D01*
X96860275Y-60014882D01*
X96679055Y-59916897D01*
X96609764Y-59895448D01*
X96486875Y-59857407D01*
X96486871Y-59857406D01*
X96482254Y-59855977D01*
X96477446Y-59855472D01*
X96477443Y-59855471D01*
X96282185Y-59834949D01*
X96282183Y-59834949D01*
X96277369Y-59834443D01*
X96221800Y-59839500D01*
X96077022Y-59852675D01*
X96077017Y-59852676D01*
X96072203Y-59853114D01*
X95874572Y-59911280D01*
X95870288Y-59913519D01*
X95870287Y-59913520D01*
X95859428Y-59919197D01*
X95692002Y-60006726D01*
X95688231Y-60009758D01*
X95535220Y-60132781D01*
X95535217Y-60132783D01*
X95531447Y-60135815D01*
X95528333Y-60139526D01*
X95528332Y-60139527D01*
X95462859Y-60217555D01*
X95399024Y-60293630D01*
X95396689Y-60297878D01*
X95396688Y-60297879D01*
X95377576Y-60332643D01*
X95299776Y-60474162D01*
X95298313Y-60478775D01*
X95298311Y-60478779D01*
X95255221Y-60614617D01*
X95237484Y-60670532D01*
X95236944Y-60675344D01*
X95236944Y-60675345D01*
X95223199Y-60797889D01*
X95214520Y-60875262D01*
X94784138Y-60875262D01*
X94765480Y-60684970D01*
X94749660Y-60632570D01*
X94707333Y-60492380D01*
X94705935Y-60487749D01*
X94609218Y-60305849D01*
X94479011Y-60146200D01*
X94358277Y-60046320D01*
X94324002Y-60017965D01*
X94324000Y-60017964D01*
X94320275Y-60014882D01*
X94139055Y-59916897D01*
X94069764Y-59895448D01*
X93946875Y-59857407D01*
X93946871Y-59857406D01*
X93942254Y-59855977D01*
X93937446Y-59855472D01*
X93937443Y-59855471D01*
X93742185Y-59834949D01*
X93742183Y-59834949D01*
X93737369Y-59834443D01*
X93681800Y-59839500D01*
X93537022Y-59852675D01*
X93537017Y-59852676D01*
X93532203Y-59853114D01*
X93334572Y-59911280D01*
X93330288Y-59913519D01*
X93330287Y-59913520D01*
X93319428Y-59919197D01*
X93152002Y-60006726D01*
X93148231Y-60009758D01*
X92995220Y-60132781D01*
X92995217Y-60132783D01*
X92991447Y-60135815D01*
X92988333Y-60139526D01*
X92988332Y-60139527D01*
X92922859Y-60217555D01*
X92859024Y-60293630D01*
X92856689Y-60297878D01*
X92856688Y-60297879D01*
X92837576Y-60332643D01*
X92759776Y-60474162D01*
X92758313Y-60478775D01*
X92758311Y-60478779D01*
X92715221Y-60614617D01*
X92697484Y-60670532D01*
X92696944Y-60675344D01*
X92696944Y-60675345D01*
X92683199Y-60797889D01*
X92674520Y-60875262D01*
X89700500Y-60875262D01*
X89700500Y-60621053D01*
X90215670Y-60621053D01*
X90215751Y-60632570D01*
X90226433Y-60636000D01*
X90920320Y-60636000D01*
X90933005Y-60631878D01*
X90936000Y-60627757D01*
X90936000Y-60620320D01*
X91444000Y-60620320D01*
X91448122Y-60633005D01*
X91452243Y-60636000D01*
X92152708Y-60636000D01*
X92163896Y-60632365D01*
X92164009Y-60621497D01*
X92129709Y-60507889D01*
X92126038Y-60498985D01*
X92037593Y-60332643D01*
X92032260Y-60324617D01*
X91913194Y-60178628D01*
X91906405Y-60171791D01*
X91761245Y-60051704D01*
X91753262Y-60046320D01*
X91587539Y-59956713D01*
X91578668Y-59952984D01*
X91458977Y-59915933D01*
X91447340Y-59916096D01*
X91444000Y-59926624D01*
X91444000Y-60620320D01*
X90936000Y-60620320D01*
X90936000Y-59927555D01*
X90932327Y-59916251D01*
X90921638Y-59916102D01*
X90814464Y-59947645D01*
X90805523Y-59951258D01*
X90638582Y-60038532D01*
X90630506Y-60043817D01*
X90483693Y-60161858D01*
X90476809Y-60168599D01*
X90355720Y-60312907D01*
X90350267Y-60320871D01*
X90259512Y-60485953D01*
X90255718Y-60494805D01*
X90215670Y-60621053D01*
X89700500Y-60621053D01*
X89700500Y-60020252D01*
X89688867Y-59961769D01*
X89644552Y-59895448D01*
X89578231Y-59851133D01*
X89568668Y-59849231D01*
X89568666Y-59849230D01*
X89545995Y-59844721D01*
X89519748Y-59839500D01*
X87780252Y-59839500D01*
X87754005Y-59844721D01*
X87731334Y-59849230D01*
X87731332Y-59849231D01*
X87721769Y-59851133D01*
X87655448Y-59895448D01*
X87611133Y-59961769D01*
X87599500Y-60020252D01*
X87599500Y-61759748D01*
X56832301Y-61759748D01*
X56924756Y-61596998D01*
X56928672Y-61588203D01*
X56975018Y-61448879D01*
X56975097Y-61437612D01*
X56964112Y-61434000D01*
X56269680Y-61434000D01*
X56256995Y-61438122D01*
X56254000Y-61442243D01*
X56254000Y-62142076D01*
X55746000Y-62142076D01*
X55746000Y-61449680D01*
X55741878Y-61436995D01*
X55737757Y-61434000D01*
X55037766Y-61434000D01*
X55026348Y-61437710D01*
X55026164Y-61448222D01*
X53500000Y-61448222D01*
X53500000Y-60911053D01*
X55025670Y-60911053D01*
X55025751Y-60922570D01*
X55036433Y-60926000D01*
X55730320Y-60926000D01*
X55743005Y-60921878D01*
X55746000Y-60917757D01*
X55746000Y-60910320D01*
X56254000Y-60910320D01*
X56258122Y-60923005D01*
X56262243Y-60926000D01*
X56962708Y-60926000D01*
X56973896Y-60922365D01*
X56974009Y-60911497D01*
X56939709Y-60797889D01*
X56936038Y-60788985D01*
X56847593Y-60622643D01*
X56842260Y-60614617D01*
X56723194Y-60468628D01*
X56716405Y-60461791D01*
X56571245Y-60341704D01*
X56563262Y-60336320D01*
X56397539Y-60246713D01*
X56388668Y-60242984D01*
X56268977Y-60205933D01*
X56257340Y-60206096D01*
X56254000Y-60216624D01*
X56254000Y-60910320D01*
X55746000Y-60910320D01*
X55746000Y-60217555D01*
X55742327Y-60206251D01*
X55731638Y-60206102D01*
X55624464Y-60237645D01*
X55615523Y-60241258D01*
X55448582Y-60328532D01*
X55440506Y-60333817D01*
X55293693Y-60451858D01*
X55286809Y-60458599D01*
X55165720Y-60602907D01*
X55160267Y-60610871D01*
X55069512Y-60775953D01*
X55065718Y-60784805D01*
X55025670Y-60911053D01*
X53500000Y-60911053D01*
X53500000Y-58414762D01*
X61324520Y-58414762D01*
X61341759Y-58620053D01*
X61343092Y-58624701D01*
X61343092Y-58624702D01*
X61394173Y-58802841D01*
X61398544Y-58818086D01*
X61492712Y-59001318D01*
X61620677Y-59162770D01*
X61624357Y-59165902D01*
X61624359Y-59165904D01*
X61737017Y-59261783D01*
X61777564Y-59296291D01*
X61781787Y-59298651D01*
X61781791Y-59298654D01*
X61821342Y-59320758D01*
X61957398Y-59396797D01*
X61961996Y-59398291D01*
X62148724Y-59458963D01*
X62148726Y-59458964D01*
X62153329Y-59460459D01*
X62357894Y-59484851D01*
X62362716Y-59484480D01*
X62362719Y-59484480D01*
X62430541Y-59479261D01*
X62563300Y-59469046D01*
X62761725Y-59413645D01*
X62766038Y-59411466D01*
X62766044Y-59411464D01*
X62941289Y-59322941D01*
X62941291Y-59322940D01*
X62945610Y-59320758D01*
X62980943Y-59293153D01*
X63104135Y-59196906D01*
X63104139Y-59196902D01*
X63107951Y-59193924D01*
X63242564Y-59037972D01*
X63261231Y-59005113D01*
X63341934Y-58863050D01*
X63341935Y-58863047D01*
X63344323Y-58858844D01*
X63357882Y-58818086D01*
X63407824Y-58667954D01*
X63407824Y-58667952D01*
X63409351Y-58663363D01*
X63435171Y-58458974D01*
X63435583Y-58429500D01*
X63434138Y-58414762D01*
X76564520Y-58414762D01*
X76581759Y-58620053D01*
X76583092Y-58624701D01*
X76583092Y-58624702D01*
X76634173Y-58802841D01*
X76638544Y-58818086D01*
X76732712Y-59001318D01*
X76860677Y-59162770D01*
X76864357Y-59165902D01*
X76864359Y-59165904D01*
X76977017Y-59261783D01*
X77017564Y-59296291D01*
X77021787Y-59298651D01*
X77021791Y-59298654D01*
X77061342Y-59320758D01*
X77197398Y-59396797D01*
X77201996Y-59398291D01*
X77388724Y-59458963D01*
X77388726Y-59458964D01*
X77393329Y-59460459D01*
X77597894Y-59484851D01*
X77602716Y-59484480D01*
X77602719Y-59484480D01*
X77670541Y-59479261D01*
X77803300Y-59469046D01*
X78001725Y-59413645D01*
X78006038Y-59411466D01*
X78006044Y-59411464D01*
X78181289Y-59322941D01*
X78181291Y-59322940D01*
X78185610Y-59320758D01*
X78220943Y-59293153D01*
X78344135Y-59196906D01*
X78344139Y-59196902D01*
X78347951Y-59193924D01*
X78482564Y-59037972D01*
X78501231Y-59005113D01*
X78581934Y-58863050D01*
X78581935Y-58863047D01*
X78584323Y-58858844D01*
X78597882Y-58818086D01*
X78647824Y-58667954D01*
X78647824Y-58667952D01*
X78649351Y-58663363D01*
X78669988Y-58500000D01*
X117394318Y-58500000D01*
X117414956Y-58656762D01*
X117475464Y-58802841D01*
X117571718Y-58928282D01*
X117697159Y-59024536D01*
X117843238Y-59085044D01*
X118000000Y-59105682D01*
X118156762Y-59085044D01*
X118302841Y-59024536D01*
X118428282Y-58928282D01*
X118524536Y-58802841D01*
X118585044Y-58656762D01*
X118605682Y-58500000D01*
X119394318Y-58500000D01*
X119414956Y-58656762D01*
X119475464Y-58802841D01*
X119571718Y-58928282D01*
X119697159Y-59024536D01*
X119843238Y-59085044D01*
X120000000Y-59105682D01*
X120156762Y-59085044D01*
X120302841Y-59024536D01*
X120428282Y-58928282D01*
X120524536Y-58802841D01*
X120585044Y-58656762D01*
X120605682Y-58500000D01*
X120585044Y-58343238D01*
X120524536Y-58197159D01*
X120428282Y-58071718D01*
X120302841Y-57975464D01*
X120156762Y-57914956D01*
X120000000Y-57894318D01*
X119843238Y-57914956D01*
X119697159Y-57975464D01*
X119571718Y-58071718D01*
X119475464Y-58197159D01*
X119414956Y-58343238D01*
X119394318Y-58500000D01*
X118605682Y-58500000D01*
X118585044Y-58343238D01*
X118524536Y-58197159D01*
X118428282Y-58071718D01*
X118302841Y-57975464D01*
X118156762Y-57914956D01*
X118000000Y-57894318D01*
X117843238Y-57914956D01*
X117697159Y-57975464D01*
X117571718Y-58071718D01*
X117475464Y-58197159D01*
X117414956Y-58343238D01*
X117394318Y-58500000D01*
X78669988Y-58500000D01*
X78675171Y-58458974D01*
X78675583Y-58429500D01*
X78655480Y-58224470D01*
X78649045Y-58203154D01*
X78597333Y-58031880D01*
X78595935Y-58027249D01*
X78499218Y-57845349D01*
X78369011Y-57685700D01*
X78352790Y-57672281D01*
X78214002Y-57557465D01*
X78214000Y-57557464D01*
X78210275Y-57554382D01*
X78029055Y-57456397D01*
X77938230Y-57428282D01*
X77836875Y-57396907D01*
X77836871Y-57396906D01*
X77832254Y-57395477D01*
X77827446Y-57394972D01*
X77827443Y-57394971D01*
X77632185Y-57374449D01*
X77632183Y-57374449D01*
X77627369Y-57373943D01*
X77567354Y-57379405D01*
X77427022Y-57392175D01*
X77427017Y-57392176D01*
X77422203Y-57392614D01*
X77224572Y-57450780D01*
X77220288Y-57453019D01*
X77220287Y-57453020D01*
X77209428Y-57458697D01*
X77042002Y-57546226D01*
X77038231Y-57549258D01*
X76885220Y-57672281D01*
X76885217Y-57672283D01*
X76881447Y-57675315D01*
X76878333Y-57679026D01*
X76878332Y-57679027D01*
X76830241Y-57736340D01*
X76749024Y-57833130D01*
X76746689Y-57837378D01*
X76746688Y-57837379D01*
X76739996Y-57849552D01*
X76649776Y-58013662D01*
X76648313Y-58018275D01*
X76648311Y-58018279D01*
X76629725Y-58076871D01*
X76587484Y-58210032D01*
X76586944Y-58214844D01*
X76586944Y-58214845D01*
X76571821Y-58349674D01*
X76564520Y-58414762D01*
X63434138Y-58414762D01*
X63415480Y-58224470D01*
X63409045Y-58203154D01*
X63357333Y-58031880D01*
X63355935Y-58027249D01*
X63259218Y-57845349D01*
X63129011Y-57685700D01*
X63112790Y-57672281D01*
X62974002Y-57557465D01*
X62974000Y-57557464D01*
X62970275Y-57554382D01*
X62789055Y-57456397D01*
X62698230Y-57428282D01*
X62596875Y-57396907D01*
X62596871Y-57396906D01*
X62592254Y-57395477D01*
X62587446Y-57394972D01*
X62587443Y-57394971D01*
X62392185Y-57374449D01*
X62392183Y-57374449D01*
X62387369Y-57373943D01*
X62327354Y-57379405D01*
X62187022Y-57392175D01*
X62187017Y-57392176D01*
X62182203Y-57392614D01*
X61984572Y-57450780D01*
X61980288Y-57453019D01*
X61980287Y-57453020D01*
X61969428Y-57458697D01*
X61802002Y-57546226D01*
X61798231Y-57549258D01*
X61645220Y-57672281D01*
X61645217Y-57672283D01*
X61641447Y-57675315D01*
X61638333Y-57679026D01*
X61638332Y-57679027D01*
X61590241Y-57736340D01*
X61509024Y-57833130D01*
X61506689Y-57837378D01*
X61506688Y-57837379D01*
X61499996Y-57849552D01*
X61409776Y-58013662D01*
X61408313Y-58018275D01*
X61408311Y-58018279D01*
X61389725Y-58076871D01*
X61347484Y-58210032D01*
X61346944Y-58214844D01*
X61346944Y-58214845D01*
X61331821Y-58349674D01*
X61324520Y-58414762D01*
X53500000Y-58414762D01*
X53500000Y-57669748D01*
X54949500Y-57669748D01*
X54961133Y-57728231D01*
X55005448Y-57794552D01*
X55071769Y-57838867D01*
X55081332Y-57840769D01*
X55081334Y-57840770D01*
X55104005Y-57845279D01*
X55130252Y-57850500D01*
X56869748Y-57850500D01*
X56895995Y-57845279D01*
X56918666Y-57840770D01*
X56918668Y-57840769D01*
X56928231Y-57838867D01*
X56994552Y-57794552D01*
X57038867Y-57728231D01*
X57050500Y-57669748D01*
X57050500Y-57064011D01*
X78830307Y-57064011D01*
X78850945Y-57220773D01*
X78911453Y-57366852D01*
X79007707Y-57492293D01*
X79133148Y-57588547D01*
X79279227Y-57649055D01*
X79435989Y-57669693D01*
X79592751Y-57649055D01*
X79738830Y-57588547D01*
X79864271Y-57492293D01*
X79960525Y-57366852D01*
X80021033Y-57220773D01*
X80041671Y-57064011D01*
X80033244Y-57000000D01*
X98644318Y-57000000D01*
X98664956Y-57156762D01*
X98725464Y-57302841D01*
X98821718Y-57428282D01*
X98947159Y-57524536D01*
X99093238Y-57585044D01*
X99250000Y-57605682D01*
X99406762Y-57585044D01*
X99552841Y-57524536D01*
X99678282Y-57428282D01*
X99774536Y-57302841D01*
X99835044Y-57156762D01*
X99855682Y-57000000D01*
X99835044Y-56843238D01*
X99774536Y-56697159D01*
X99678282Y-56571718D01*
X99584817Y-56500000D01*
X138144318Y-56500000D01*
X138164956Y-56656762D01*
X138225464Y-56802841D01*
X138321718Y-56928282D01*
X138447159Y-57024536D01*
X138593238Y-57085044D01*
X138750000Y-57105682D01*
X138906762Y-57085044D01*
X139052841Y-57024536D01*
X139178282Y-56928282D01*
X139274536Y-56802841D01*
X139335044Y-56656762D01*
X139355682Y-56500000D01*
X139335044Y-56343238D01*
X139274536Y-56197159D01*
X139178282Y-56071718D01*
X139052841Y-55975464D01*
X138906762Y-55914956D01*
X138750000Y-55894318D01*
X138593238Y-55914956D01*
X138447159Y-55975464D01*
X138321718Y-56071718D01*
X138225464Y-56197159D01*
X138164956Y-56343238D01*
X138144318Y-56500000D01*
X99584817Y-56500000D01*
X99552841Y-56475464D01*
X99406762Y-56414956D01*
X99250000Y-56394318D01*
X99093238Y-56414956D01*
X98947159Y-56475464D01*
X98821718Y-56571718D01*
X98725464Y-56697159D01*
X98664956Y-56843238D01*
X98644318Y-57000000D01*
X80033244Y-57000000D01*
X80021033Y-56907249D01*
X79960525Y-56761170D01*
X79864271Y-56635729D01*
X79738830Y-56539475D01*
X79592751Y-56478967D01*
X79435989Y-56458329D01*
X79279227Y-56478967D01*
X79133148Y-56539475D01*
X79007707Y-56635729D01*
X78911453Y-56761170D01*
X78850945Y-56907249D01*
X78830307Y-57064011D01*
X57050500Y-57064011D01*
X57050500Y-55930252D01*
X57039462Y-55874762D01*
X61324520Y-55874762D01*
X61326667Y-55900326D01*
X61337306Y-56027019D01*
X61341759Y-56080053D01*
X61343092Y-56084701D01*
X61343092Y-56084702D01*
X61377058Y-56203154D01*
X61398544Y-56278086D01*
X61492712Y-56461318D01*
X61620677Y-56622770D01*
X61624357Y-56625902D01*
X61624359Y-56625904D01*
X61667664Y-56662759D01*
X61777564Y-56756291D01*
X61781787Y-56758651D01*
X61781791Y-56758654D01*
X61860855Y-56802841D01*
X61957398Y-56856797D01*
X61961996Y-56858291D01*
X62148724Y-56918963D01*
X62148726Y-56918964D01*
X62153329Y-56920459D01*
X62357894Y-56944851D01*
X62362716Y-56944480D01*
X62362719Y-56944480D01*
X62430541Y-56939261D01*
X62563300Y-56929046D01*
X62761725Y-56873645D01*
X62766038Y-56871466D01*
X62766044Y-56871464D01*
X62941289Y-56782941D01*
X62941291Y-56782940D01*
X62945610Y-56780758D01*
X62949427Y-56777776D01*
X63104135Y-56656906D01*
X63104139Y-56656902D01*
X63107951Y-56653924D01*
X63119209Y-56640882D01*
X63208883Y-56536992D01*
X63242564Y-56497972D01*
X63245067Y-56493566D01*
X63341934Y-56323050D01*
X63341935Y-56323047D01*
X63344323Y-56318844D01*
X63357882Y-56278086D01*
X63407824Y-56127954D01*
X63407824Y-56127952D01*
X63409351Y-56123363D01*
X63417610Y-56057990D01*
X63434823Y-55921728D01*
X63435171Y-55918974D01*
X63435583Y-55889500D01*
X63435313Y-55886744D01*
X63434138Y-55874762D01*
X76564520Y-55874762D01*
X76566667Y-55900326D01*
X76577306Y-56027019D01*
X76581759Y-56080053D01*
X76583092Y-56084701D01*
X76583092Y-56084702D01*
X76617058Y-56203154D01*
X76638544Y-56278086D01*
X76732712Y-56461318D01*
X76860677Y-56622770D01*
X76864357Y-56625902D01*
X76864359Y-56625904D01*
X76907664Y-56662759D01*
X77017564Y-56756291D01*
X77021787Y-56758651D01*
X77021791Y-56758654D01*
X77100855Y-56802841D01*
X77197398Y-56856797D01*
X77201996Y-56858291D01*
X77388724Y-56918963D01*
X77388726Y-56918964D01*
X77393329Y-56920459D01*
X77597894Y-56944851D01*
X77602716Y-56944480D01*
X77602719Y-56944480D01*
X77670541Y-56939261D01*
X77803300Y-56929046D01*
X78001725Y-56873645D01*
X78006038Y-56871466D01*
X78006044Y-56871464D01*
X78181289Y-56782941D01*
X78181291Y-56782940D01*
X78185610Y-56780758D01*
X78189427Y-56777776D01*
X78344135Y-56656906D01*
X78344139Y-56656902D01*
X78347951Y-56653924D01*
X78359209Y-56640882D01*
X78448883Y-56536992D01*
X78482564Y-56497972D01*
X78485067Y-56493566D01*
X78581934Y-56323050D01*
X78581935Y-56323047D01*
X78584323Y-56318844D01*
X78597882Y-56278086D01*
X78647824Y-56127954D01*
X78647824Y-56127952D01*
X78649351Y-56123363D01*
X78657610Y-56057990D01*
X78674823Y-55921728D01*
X78675171Y-55918974D01*
X78675583Y-55889500D01*
X78675313Y-55886744D01*
X78655952Y-55689280D01*
X78655951Y-55689276D01*
X78655480Y-55684470D01*
X78647115Y-55656762D01*
X78615739Y-55552841D01*
X78595935Y-55487249D01*
X78499218Y-55305349D01*
X78454076Y-55250000D01*
X79394318Y-55250000D01*
X79414956Y-55406762D01*
X79475464Y-55552841D01*
X79571718Y-55678282D01*
X79697159Y-55774536D01*
X79843238Y-55835044D01*
X80000000Y-55855682D01*
X80156762Y-55835044D01*
X80302841Y-55774536D01*
X80428282Y-55678282D01*
X80524536Y-55552841D01*
X80546423Y-55500000D01*
X82394318Y-55500000D01*
X82414956Y-55656762D01*
X82475464Y-55802841D01*
X82571718Y-55928282D01*
X82697159Y-56024536D01*
X82843238Y-56085044D01*
X83000000Y-56105682D01*
X83156762Y-56085044D01*
X83302841Y-56024536D01*
X83428282Y-55928282D01*
X83524536Y-55802841D01*
X83546423Y-55750000D01*
X97394318Y-55750000D01*
X97414956Y-55906762D01*
X97475464Y-56052841D01*
X97571718Y-56178282D01*
X97697159Y-56274536D01*
X97843238Y-56335044D01*
X98000000Y-56355682D01*
X98156762Y-56335044D01*
X98302841Y-56274536D01*
X98428282Y-56178282D01*
X98524536Y-56052841D01*
X98585044Y-55906762D01*
X98605682Y-55750000D01*
X98585044Y-55593238D01*
X98524536Y-55447159D01*
X98428282Y-55321718D01*
X98302841Y-55225464D01*
X98156762Y-55164956D01*
X98025569Y-55147684D01*
X98006434Y-55145165D01*
X98000000Y-55144318D01*
X97993566Y-55145165D01*
X97974431Y-55147684D01*
X97843238Y-55164956D01*
X97697159Y-55225464D01*
X97571718Y-55321718D01*
X97475464Y-55447159D01*
X97414956Y-55593238D01*
X97394318Y-55750000D01*
X83546423Y-55750000D01*
X83585044Y-55656762D01*
X83605682Y-55500000D01*
X83585044Y-55343238D01*
X83524536Y-55197159D01*
X83428282Y-55071718D01*
X83302841Y-54975464D01*
X83156762Y-54914956D01*
X83000000Y-54894318D01*
X82843238Y-54914956D01*
X82697159Y-54975464D01*
X82571718Y-55071718D01*
X82475464Y-55197159D01*
X82414956Y-55343238D01*
X82394318Y-55500000D01*
X80546423Y-55500000D01*
X80585044Y-55406762D01*
X80605682Y-55250000D01*
X80585044Y-55093238D01*
X80524536Y-54947159D01*
X80428282Y-54821718D01*
X80302841Y-54725464D01*
X80156762Y-54664956D01*
X80000000Y-54644318D01*
X79843238Y-54664956D01*
X79697159Y-54725464D01*
X79571718Y-54821718D01*
X79475464Y-54947159D01*
X79414956Y-55093238D01*
X79394318Y-55250000D01*
X78454076Y-55250000D01*
X78369011Y-55145700D01*
X78313375Y-55099674D01*
X78214002Y-55017465D01*
X78214000Y-55017464D01*
X78210275Y-55014382D01*
X78029055Y-54916397D01*
X77957729Y-54894318D01*
X77836875Y-54856907D01*
X77836871Y-54856906D01*
X77832254Y-54855477D01*
X77827446Y-54854972D01*
X77827443Y-54854971D01*
X77632185Y-54834449D01*
X77632183Y-54834449D01*
X77627369Y-54833943D01*
X77567354Y-54839405D01*
X77427022Y-54852175D01*
X77427017Y-54852176D01*
X77422203Y-54852614D01*
X77224572Y-54910780D01*
X77220288Y-54913019D01*
X77220287Y-54913020D01*
X77191094Y-54928282D01*
X77042002Y-55006226D01*
X77038231Y-55009258D01*
X76885220Y-55132281D01*
X76885217Y-55132283D01*
X76881447Y-55135315D01*
X76878333Y-55139026D01*
X76878332Y-55139027D01*
X76779816Y-55256434D01*
X76749024Y-55293130D01*
X76746689Y-55297378D01*
X76746688Y-55297379D01*
X76739955Y-55309626D01*
X76649776Y-55473662D01*
X76648313Y-55478275D01*
X76648311Y-55478279D01*
X76613747Y-55587241D01*
X76587484Y-55670032D01*
X76586944Y-55674844D01*
X76586944Y-55674845D01*
X76569254Y-55832560D01*
X76564520Y-55874762D01*
X63434138Y-55874762D01*
X63415952Y-55689280D01*
X63415951Y-55689276D01*
X63415480Y-55684470D01*
X63407115Y-55656762D01*
X63375739Y-55552841D01*
X63355935Y-55487249D01*
X63259218Y-55305349D01*
X63129011Y-55145700D01*
X63073375Y-55099674D01*
X62974002Y-55017465D01*
X62974000Y-55017464D01*
X62970275Y-55014382D01*
X62789055Y-54916397D01*
X62717729Y-54894318D01*
X62596875Y-54856907D01*
X62596871Y-54856906D01*
X62592254Y-54855477D01*
X62587446Y-54854972D01*
X62587443Y-54854971D01*
X62392185Y-54834449D01*
X62392183Y-54834449D01*
X62387369Y-54833943D01*
X62327354Y-54839405D01*
X62187022Y-54852175D01*
X62187017Y-54852176D01*
X62182203Y-54852614D01*
X61984572Y-54910780D01*
X61980288Y-54913019D01*
X61980287Y-54913020D01*
X61951094Y-54928282D01*
X61802002Y-55006226D01*
X61798231Y-55009258D01*
X61645220Y-55132281D01*
X61645217Y-55132283D01*
X61641447Y-55135315D01*
X61638333Y-55139026D01*
X61638332Y-55139027D01*
X61539816Y-55256434D01*
X61509024Y-55293130D01*
X61506689Y-55297378D01*
X61506688Y-55297379D01*
X61499955Y-55309626D01*
X61409776Y-55473662D01*
X61408313Y-55478275D01*
X61408311Y-55478279D01*
X61373747Y-55587241D01*
X61347484Y-55670032D01*
X61346944Y-55674844D01*
X61346944Y-55674845D01*
X61329254Y-55832560D01*
X61324520Y-55874762D01*
X57039462Y-55874762D01*
X57038867Y-55871769D01*
X56994552Y-55805448D01*
X56928231Y-55761133D01*
X56918668Y-55759231D01*
X56918666Y-55759230D01*
X56895995Y-55754721D01*
X56869748Y-55749500D01*
X55130252Y-55749500D01*
X55104005Y-55754721D01*
X55081334Y-55759230D01*
X55081332Y-55759231D01*
X55071769Y-55761133D01*
X55005448Y-55805448D01*
X54961133Y-55871769D01*
X54949500Y-55930252D01*
X54949500Y-57669748D01*
X53500000Y-57669748D01*
X53500000Y-54245262D01*
X54944520Y-54245262D01*
X54961759Y-54450553D01*
X54963092Y-54455201D01*
X54963092Y-54455202D01*
X54977783Y-54506434D01*
X55018544Y-54648586D01*
X55112712Y-54831818D01*
X55240677Y-54993270D01*
X55244357Y-54996402D01*
X55244359Y-54996404D01*
X55328207Y-55067764D01*
X55397564Y-55126791D01*
X55401787Y-55129151D01*
X55401791Y-55129154D01*
X55514259Y-55192010D01*
X55577398Y-55227297D01*
X55581996Y-55228791D01*
X55768724Y-55289463D01*
X55768726Y-55289464D01*
X55773329Y-55290959D01*
X55977894Y-55315351D01*
X55982716Y-55314980D01*
X55982719Y-55314980D01*
X56052298Y-55309626D01*
X56183300Y-55299546D01*
X56381725Y-55244145D01*
X56386038Y-55241966D01*
X56386044Y-55241964D01*
X56561289Y-55153441D01*
X56561291Y-55153440D01*
X56565610Y-55151258D01*
X56639873Y-55093238D01*
X56724135Y-55027406D01*
X56724139Y-55027402D01*
X56727951Y-55024424D01*
X56738606Y-55012081D01*
X56820296Y-54917440D01*
X56862564Y-54868472D01*
X56882179Y-54833943D01*
X56961934Y-54693550D01*
X56961935Y-54693547D01*
X56964323Y-54689344D01*
X56977882Y-54648586D01*
X57027310Y-54500000D01*
X127144318Y-54500000D01*
X127164956Y-54656762D01*
X127225464Y-54802841D01*
X127321718Y-54928282D01*
X127447159Y-55024536D01*
X127593238Y-55085044D01*
X127750000Y-55105682D01*
X127906762Y-55085044D01*
X128052841Y-55024536D01*
X128178282Y-54928282D01*
X128274536Y-54802841D01*
X128335044Y-54656762D01*
X128355682Y-54500000D01*
X128335044Y-54343238D01*
X128274536Y-54197159D01*
X128178282Y-54071718D01*
X128052841Y-53975464D01*
X127906762Y-53914956D01*
X127750000Y-53894318D01*
X127593238Y-53914956D01*
X127447159Y-53975464D01*
X127321718Y-54071718D01*
X127225464Y-54197159D01*
X127164956Y-54343238D01*
X127144318Y-54500000D01*
X57027310Y-54500000D01*
X57027824Y-54498454D01*
X57027824Y-54498452D01*
X57029351Y-54493863D01*
X57042546Y-54389417D01*
X57054823Y-54292228D01*
X57055171Y-54289474D01*
X57055583Y-54260000D01*
X57054138Y-54245262D01*
X57035952Y-54059780D01*
X57035951Y-54059776D01*
X57035480Y-54054970D01*
X57012669Y-53979415D01*
X56977333Y-53862380D01*
X56975935Y-53857749D01*
X56879218Y-53675849D01*
X56749011Y-53516200D01*
X56590275Y-53384882D01*
X56497580Y-53334762D01*
X61324520Y-53334762D01*
X61328464Y-53381728D01*
X61339196Y-53509527D01*
X61341759Y-53540053D01*
X61343092Y-53544701D01*
X61343092Y-53544702D01*
X61357010Y-53593238D01*
X61398544Y-53738086D01*
X61492712Y-53921318D01*
X61620677Y-54082770D01*
X61624357Y-54085902D01*
X61624359Y-54085904D01*
X61726849Y-54173129D01*
X61777564Y-54216291D01*
X61781787Y-54218651D01*
X61781791Y-54218654D01*
X61881781Y-54274536D01*
X61957398Y-54316797D01*
X61961996Y-54318291D01*
X62148724Y-54378963D01*
X62148726Y-54378964D01*
X62153329Y-54380459D01*
X62357894Y-54404851D01*
X62362716Y-54404480D01*
X62362719Y-54404480D01*
X62430541Y-54399261D01*
X62563300Y-54389046D01*
X62761725Y-54333645D01*
X62766038Y-54331466D01*
X62766044Y-54331464D01*
X62941289Y-54242941D01*
X62941291Y-54242940D01*
X62945610Y-54240758D01*
X62980943Y-54213153D01*
X63104135Y-54116906D01*
X63104139Y-54116902D01*
X63107951Y-54113924D01*
X63154687Y-54059780D01*
X63227465Y-53975464D01*
X63242564Y-53957972D01*
X63261231Y-53925113D01*
X63341934Y-53783050D01*
X63341935Y-53783047D01*
X63344323Y-53778844D01*
X63353919Y-53750000D01*
X63407824Y-53587954D01*
X63407824Y-53587952D01*
X63409351Y-53583363D01*
X63419148Y-53505815D01*
X63434823Y-53381728D01*
X63435171Y-53378974D01*
X63435583Y-53349500D01*
X63434138Y-53334762D01*
X76564520Y-53334762D01*
X76568464Y-53381728D01*
X76579196Y-53509527D01*
X76581759Y-53540053D01*
X76583092Y-53544701D01*
X76583092Y-53544702D01*
X76597010Y-53593238D01*
X76638544Y-53738086D01*
X76732712Y-53921318D01*
X76860677Y-54082770D01*
X76864357Y-54085902D01*
X76864359Y-54085904D01*
X76966849Y-54173129D01*
X77017564Y-54216291D01*
X77021787Y-54218651D01*
X77021791Y-54218654D01*
X77121781Y-54274536D01*
X77197398Y-54316797D01*
X77201996Y-54318291D01*
X77388724Y-54378963D01*
X77388726Y-54378964D01*
X77393329Y-54380459D01*
X77597894Y-54404851D01*
X77602716Y-54404480D01*
X77602719Y-54404480D01*
X77670541Y-54399261D01*
X77803300Y-54389046D01*
X78001725Y-54333645D01*
X78006038Y-54331466D01*
X78006044Y-54331464D01*
X78181289Y-54242941D01*
X78181291Y-54242940D01*
X78185610Y-54240758D01*
X78220943Y-54213153D01*
X78344135Y-54116906D01*
X78344139Y-54116902D01*
X78347951Y-54113924D01*
X78394687Y-54059780D01*
X78467465Y-53975464D01*
X78482564Y-53957972D01*
X78501231Y-53925113D01*
X78581934Y-53783050D01*
X78581935Y-53783047D01*
X78584323Y-53778844D01*
X78593919Y-53750000D01*
X82144318Y-53750000D01*
X82164956Y-53906762D01*
X82225464Y-54052841D01*
X82321718Y-54178282D01*
X82447159Y-54274536D01*
X82593238Y-54335044D01*
X82750000Y-54355682D01*
X82906762Y-54335044D01*
X83052841Y-54274536D01*
X83178282Y-54178282D01*
X83274536Y-54052841D01*
X83335044Y-53906762D01*
X83355682Y-53750000D01*
X83335044Y-53593238D01*
X83274536Y-53447159D01*
X83178282Y-53321718D01*
X83052841Y-53225464D01*
X82906762Y-53164956D01*
X82750000Y-53144318D01*
X82593238Y-53164956D01*
X82447159Y-53225464D01*
X82321718Y-53321718D01*
X82225464Y-53447159D01*
X82164956Y-53593238D01*
X82144318Y-53750000D01*
X78593919Y-53750000D01*
X78647824Y-53587954D01*
X78647824Y-53587952D01*
X78649351Y-53583363D01*
X78659148Y-53505815D01*
X78674823Y-53381728D01*
X78675171Y-53378974D01*
X78675583Y-53349500D01*
X78672859Y-53321718D01*
X78655952Y-53149280D01*
X78655951Y-53149276D01*
X78655480Y-53144470D01*
X78595935Y-52947249D01*
X78499218Y-52765349D01*
X78369011Y-52605700D01*
X78342361Y-52583653D01*
X78214002Y-52477465D01*
X78214000Y-52477464D01*
X78210275Y-52474382D01*
X78029055Y-52376397D01*
X77965855Y-52356833D01*
X77836875Y-52316907D01*
X77836871Y-52316906D01*
X77832254Y-52315477D01*
X77827446Y-52314972D01*
X77827443Y-52314971D01*
X77632185Y-52294449D01*
X77632183Y-52294449D01*
X77627369Y-52293943D01*
X77567354Y-52299405D01*
X77427022Y-52312175D01*
X77427017Y-52312176D01*
X77422203Y-52312614D01*
X77224572Y-52370780D01*
X77220288Y-52373019D01*
X77220287Y-52373020D01*
X77209428Y-52378697D01*
X77042002Y-52466226D01*
X77038231Y-52469258D01*
X76885220Y-52592281D01*
X76885217Y-52592283D01*
X76881447Y-52595315D01*
X76878333Y-52599026D01*
X76878332Y-52599027D01*
X76791958Y-52701964D01*
X76749024Y-52753130D01*
X76746689Y-52757378D01*
X76746688Y-52757379D01*
X76739955Y-52769626D01*
X76649776Y-52933662D01*
X76587484Y-53130032D01*
X76586944Y-53134844D01*
X76586944Y-53134845D01*
X76566427Y-53317764D01*
X76564520Y-53334762D01*
X63434138Y-53334762D01*
X63432859Y-53321718D01*
X63415952Y-53149280D01*
X63415951Y-53149276D01*
X63415480Y-53144470D01*
X63355935Y-52947249D01*
X63259218Y-52765349D01*
X63129011Y-52605700D01*
X63102361Y-52583653D01*
X62974002Y-52477465D01*
X62974000Y-52477464D01*
X62970275Y-52474382D01*
X62789055Y-52376397D01*
X62725855Y-52356833D01*
X62596875Y-52316907D01*
X62596871Y-52316906D01*
X62592254Y-52315477D01*
X62587446Y-52314972D01*
X62587443Y-52314971D01*
X62392185Y-52294449D01*
X62392183Y-52294449D01*
X62387369Y-52293943D01*
X62327354Y-52299405D01*
X62187022Y-52312175D01*
X62187017Y-52312176D01*
X62182203Y-52312614D01*
X61984572Y-52370780D01*
X61980288Y-52373019D01*
X61980287Y-52373020D01*
X61969428Y-52378697D01*
X61802002Y-52466226D01*
X61798231Y-52469258D01*
X61645220Y-52592281D01*
X61645217Y-52592283D01*
X61641447Y-52595315D01*
X61638333Y-52599026D01*
X61638332Y-52599027D01*
X61551958Y-52701964D01*
X61509024Y-52753130D01*
X61506689Y-52757378D01*
X61506688Y-52757379D01*
X61499955Y-52769626D01*
X61409776Y-52933662D01*
X61347484Y-53130032D01*
X61346944Y-53134844D01*
X61346944Y-53134845D01*
X61326427Y-53317764D01*
X61324520Y-53334762D01*
X56497580Y-53334762D01*
X56473455Y-53321718D01*
X56413309Y-53289197D01*
X56413308Y-53289197D01*
X56409055Y-53286897D01*
X56345855Y-53267333D01*
X56216875Y-53227407D01*
X56216871Y-53227406D01*
X56212254Y-53225977D01*
X56207446Y-53225472D01*
X56207443Y-53225471D01*
X56012185Y-53204949D01*
X56012183Y-53204949D01*
X56007369Y-53204443D01*
X55947354Y-53209905D01*
X55807022Y-53222675D01*
X55807017Y-53222676D01*
X55802203Y-53223114D01*
X55604572Y-53281280D01*
X55600288Y-53283519D01*
X55600287Y-53283520D01*
X55589428Y-53289197D01*
X55422002Y-53376726D01*
X55418231Y-53379758D01*
X55265220Y-53502781D01*
X55265217Y-53502783D01*
X55261447Y-53505815D01*
X55258333Y-53509526D01*
X55258332Y-53509527D01*
X55182690Y-53599674D01*
X55129024Y-53663630D01*
X55126689Y-53667878D01*
X55126688Y-53667879D01*
X55119955Y-53680126D01*
X55029776Y-53844162D01*
X55028313Y-53848775D01*
X55028311Y-53848779D01*
X54988912Y-53972981D01*
X54967484Y-54040532D01*
X54966944Y-54045344D01*
X54966944Y-54045345D01*
X54945360Y-54237776D01*
X54944520Y-54245262D01*
X53500000Y-54245262D01*
X53500000Y-51705262D01*
X54944520Y-51705262D01*
X54961759Y-51910553D01*
X55018544Y-52108586D01*
X55112712Y-52291818D01*
X55240677Y-52453270D01*
X55244357Y-52456402D01*
X55244359Y-52456404D01*
X55357017Y-52552283D01*
X55397564Y-52586791D01*
X55401787Y-52589151D01*
X55401791Y-52589154D01*
X55441342Y-52611258D01*
X55577398Y-52687297D01*
X55581996Y-52688791D01*
X55768724Y-52749463D01*
X55768726Y-52749464D01*
X55773329Y-52750959D01*
X55977894Y-52775351D01*
X55982716Y-52774980D01*
X55982719Y-52774980D01*
X56052298Y-52769626D01*
X56183300Y-52759546D01*
X56381725Y-52704145D01*
X56386038Y-52701966D01*
X56386044Y-52701964D01*
X56561289Y-52613441D01*
X56561291Y-52613440D01*
X56565610Y-52611258D01*
X56600943Y-52583653D01*
X56724135Y-52487406D01*
X56724139Y-52487402D01*
X56727951Y-52484424D01*
X56738606Y-52472081D01*
X56819211Y-52378697D01*
X56862564Y-52328472D01*
X56882179Y-52293943D01*
X56961934Y-52153550D01*
X56961935Y-52153547D01*
X56964323Y-52149344D01*
X56977882Y-52108586D01*
X57027824Y-51958454D01*
X57027824Y-51958452D01*
X57029351Y-51953863D01*
X57042546Y-51849417D01*
X57054823Y-51752228D01*
X57055171Y-51749474D01*
X57055583Y-51720000D01*
X57054138Y-51705262D01*
X57035952Y-51519780D01*
X57035951Y-51519776D01*
X57035480Y-51514970D01*
X56975935Y-51317749D01*
X56879218Y-51135849D01*
X56749011Y-50976200D01*
X56690317Y-50927644D01*
X56594002Y-50847965D01*
X56594000Y-50847964D01*
X56590275Y-50844882D01*
X56497580Y-50794762D01*
X61324520Y-50794762D01*
X61328464Y-50841728D01*
X61339626Y-50974648D01*
X61341759Y-51000053D01*
X61343092Y-51004701D01*
X61343092Y-51004702D01*
X61355953Y-51049552D01*
X61398544Y-51198086D01*
X61492712Y-51381318D01*
X61620677Y-51542770D01*
X61624357Y-51545902D01*
X61624359Y-51545904D01*
X61737017Y-51641783D01*
X61777564Y-51676291D01*
X61781787Y-51678651D01*
X61781791Y-51678654D01*
X61855772Y-51720000D01*
X61957398Y-51776797D01*
X61961996Y-51778291D01*
X62148724Y-51838963D01*
X62148726Y-51838964D01*
X62153329Y-51840459D01*
X62357894Y-51864851D01*
X62362716Y-51864480D01*
X62362719Y-51864480D01*
X62430541Y-51859261D01*
X62563300Y-51849046D01*
X62761725Y-51793645D01*
X62766038Y-51791466D01*
X62766044Y-51791464D01*
X62941289Y-51702941D01*
X62941291Y-51702940D01*
X62945610Y-51700758D01*
X62980943Y-51673153D01*
X63104135Y-51576906D01*
X63104139Y-51576902D01*
X63107951Y-51573924D01*
X63154687Y-51519780D01*
X63175284Y-51495917D01*
X63242564Y-51417972D01*
X63261231Y-51385113D01*
X63341934Y-51243050D01*
X63341935Y-51243047D01*
X63344323Y-51238844D01*
X63357882Y-51198086D01*
X63407824Y-51047954D01*
X63407824Y-51047952D01*
X63409351Y-51043363D01*
X63417108Y-50981964D01*
X63433167Y-50854835D01*
X63435171Y-50838974D01*
X63435583Y-50809500D01*
X63434138Y-50794762D01*
X76564520Y-50794762D01*
X76568464Y-50841728D01*
X76579626Y-50974648D01*
X76581759Y-51000053D01*
X76583092Y-51004701D01*
X76583092Y-51004702D01*
X76595953Y-51049552D01*
X76638544Y-51198086D01*
X76732712Y-51381318D01*
X76860677Y-51542770D01*
X76864357Y-51545902D01*
X76864359Y-51545904D01*
X76977017Y-51641783D01*
X77017564Y-51676291D01*
X77021787Y-51678651D01*
X77021791Y-51678654D01*
X77095772Y-51720000D01*
X77197398Y-51776797D01*
X77201996Y-51778291D01*
X77388724Y-51838963D01*
X77388726Y-51838964D01*
X77393329Y-51840459D01*
X77597894Y-51864851D01*
X77602716Y-51864480D01*
X77602719Y-51864480D01*
X77670541Y-51859261D01*
X77803300Y-51849046D01*
X78001725Y-51793645D01*
X78006038Y-51791466D01*
X78006044Y-51791464D01*
X78181289Y-51702941D01*
X78181291Y-51702940D01*
X78185610Y-51700758D01*
X78220943Y-51673153D01*
X78344135Y-51576906D01*
X78344139Y-51576902D01*
X78347951Y-51573924D01*
X78394687Y-51519780D01*
X78415284Y-51495917D01*
X78482564Y-51417972D01*
X78501231Y-51385113D01*
X78581934Y-51243050D01*
X78581935Y-51243047D01*
X78584323Y-51238844D01*
X78597882Y-51198086D01*
X78647824Y-51047954D01*
X78647824Y-51047952D01*
X78649351Y-51043363D01*
X78657108Y-50981964D01*
X78671283Y-50869748D01*
X110149500Y-50869748D01*
X110161133Y-50928231D01*
X110205448Y-50994552D01*
X110271769Y-51038867D01*
X110281332Y-51040769D01*
X110281334Y-51040770D01*
X110304005Y-51045279D01*
X110330252Y-51050500D01*
X112069748Y-51050500D01*
X112095995Y-51045279D01*
X112118666Y-51040770D01*
X112118668Y-51040769D01*
X112128231Y-51038867D01*
X112194552Y-50994552D01*
X112238867Y-50928231D01*
X112250500Y-50869748D01*
X112250500Y-50268222D01*
X112766164Y-50268222D01*
X112795046Y-50368947D01*
X112798597Y-50377915D01*
X112884705Y-50545463D01*
X112889928Y-50553568D01*
X113006950Y-50701213D01*
X113013633Y-50708134D01*
X113157103Y-50830236D01*
X113165017Y-50835737D01*
X113329467Y-50927644D01*
X113338289Y-50931499D01*
X113471089Y-50974648D01*
X113482479Y-50974648D01*
X113486000Y-50963813D01*
X113486000Y-50962076D01*
X113994000Y-50962076D01*
X113997747Y-50973609D01*
X114008079Y-50973825D01*
X114102343Y-50947506D01*
X114111332Y-50944019D01*
X114279483Y-50859080D01*
X114287621Y-50853915D01*
X114436070Y-50737935D01*
X114443050Y-50731288D01*
X114566146Y-50588679D01*
X114571701Y-50580804D01*
X114664756Y-50416998D01*
X114668672Y-50408203D01*
X114715018Y-50268879D01*
X114715097Y-50257612D01*
X114704112Y-50254000D01*
X114009680Y-50254000D01*
X113996995Y-50258122D01*
X113994000Y-50262243D01*
X113994000Y-50962076D01*
X113486000Y-50962076D01*
X113486000Y-50269680D01*
X113481878Y-50256995D01*
X113477757Y-50254000D01*
X112777766Y-50254000D01*
X112766348Y-50257710D01*
X112766164Y-50268222D01*
X112250500Y-50268222D01*
X112250500Y-49985262D01*
X115224520Y-49985262D01*
X115224925Y-49990082D01*
X115238657Y-50153609D01*
X115241759Y-50190553D01*
X115243092Y-50195201D01*
X115243092Y-50195202D01*
X115292913Y-50368947D01*
X115298544Y-50388586D01*
X115300759Y-50392896D01*
X115305939Y-50402976D01*
X115392712Y-50571818D01*
X115520677Y-50733270D01*
X115524357Y-50736402D01*
X115524359Y-50736404D01*
X115607009Y-50806744D01*
X115677564Y-50866791D01*
X115681787Y-50869151D01*
X115681791Y-50869154D01*
X115721342Y-50891258D01*
X115857398Y-50967297D01*
X115861996Y-50968791D01*
X116048724Y-51029463D01*
X116048726Y-51029464D01*
X116053329Y-51030959D01*
X116257894Y-51055351D01*
X116262716Y-51054980D01*
X116262719Y-51054980D01*
X116333259Y-51049552D01*
X116463300Y-51039546D01*
X116661725Y-50984145D01*
X116666038Y-50981966D01*
X116666044Y-50981964D01*
X116841289Y-50893441D01*
X116841291Y-50893440D01*
X116845610Y-50891258D01*
X116880943Y-50863653D01*
X117004135Y-50767406D01*
X117004139Y-50767402D01*
X117007951Y-50764424D01*
X117021095Y-50749197D01*
X117093815Y-50664949D01*
X117142564Y-50608472D01*
X117150305Y-50594845D01*
X117241934Y-50433550D01*
X117241935Y-50433547D01*
X117244323Y-50429344D01*
X117249841Y-50412759D01*
X117307824Y-50238454D01*
X117307824Y-50238452D01*
X117309351Y-50233863D01*
X117311434Y-50217379D01*
X117334823Y-50032228D01*
X117335171Y-50029474D01*
X117335583Y-50000000D01*
X117334138Y-49985262D01*
X117764520Y-49985262D01*
X117764925Y-49990082D01*
X117778657Y-50153609D01*
X117781759Y-50190553D01*
X117783092Y-50195201D01*
X117783092Y-50195202D01*
X117832913Y-50368947D01*
X117838544Y-50388586D01*
X117840759Y-50392896D01*
X117845939Y-50402976D01*
X117932712Y-50571818D01*
X118060677Y-50733270D01*
X118064357Y-50736402D01*
X118064359Y-50736404D01*
X118147009Y-50806744D01*
X118217564Y-50866791D01*
X118221787Y-50869151D01*
X118221791Y-50869154D01*
X118261342Y-50891258D01*
X118397398Y-50967297D01*
X118401996Y-50968791D01*
X118588724Y-51029463D01*
X118588726Y-51029464D01*
X118593329Y-51030959D01*
X118797894Y-51055351D01*
X118802716Y-51054980D01*
X118802719Y-51054980D01*
X118873259Y-51049552D01*
X119003300Y-51039546D01*
X119201725Y-50984145D01*
X119206038Y-50981966D01*
X119206044Y-50981964D01*
X119381289Y-50893441D01*
X119381291Y-50893440D01*
X119385610Y-50891258D01*
X119420943Y-50863653D01*
X119544135Y-50767406D01*
X119544139Y-50767402D01*
X119547951Y-50764424D01*
X119561095Y-50749197D01*
X119633815Y-50664949D01*
X119682564Y-50608472D01*
X119690305Y-50594845D01*
X119781934Y-50433550D01*
X119781935Y-50433547D01*
X119784323Y-50429344D01*
X119789841Y-50412759D01*
X119843983Y-50250000D01*
X128456818Y-50250000D01*
X128477456Y-50406762D01*
X128537964Y-50552841D01*
X128634218Y-50678282D01*
X128759659Y-50774536D01*
X128905738Y-50835044D01*
X129062500Y-50855682D01*
X129219262Y-50835044D01*
X129365341Y-50774536D01*
X129490782Y-50678282D01*
X129587036Y-50552841D01*
X129647544Y-50406762D01*
X129668182Y-50250000D01*
X129647544Y-50093238D01*
X129587036Y-49947159D01*
X129490782Y-49821718D01*
X129365341Y-49725464D01*
X129219262Y-49664956D01*
X129062500Y-49644318D01*
X128905738Y-49664956D01*
X128759659Y-49725464D01*
X128634218Y-49821718D01*
X128537964Y-49947159D01*
X128477456Y-50093238D01*
X128456818Y-50250000D01*
X119843983Y-50250000D01*
X119847824Y-50238454D01*
X119847824Y-50238452D01*
X119849351Y-50233863D01*
X119851434Y-50217379D01*
X119874823Y-50032228D01*
X119875171Y-50029474D01*
X119875583Y-50000000D01*
X119863936Y-49881213D01*
X119855952Y-49799780D01*
X119855951Y-49799776D01*
X119855480Y-49794970D01*
X119850027Y-49776907D01*
X119797333Y-49602380D01*
X119795935Y-49597749D01*
X119699218Y-49415849D01*
X119569011Y-49256200D01*
X119542703Y-49234436D01*
X119414002Y-49127965D01*
X119414000Y-49127964D01*
X119410275Y-49124882D01*
X119229055Y-49026897D01*
X119165855Y-49007333D01*
X119036875Y-48967407D01*
X119036871Y-48967406D01*
X119032254Y-48965977D01*
X119027446Y-48965472D01*
X119027443Y-48965471D01*
X118832185Y-48944949D01*
X118832183Y-48944949D01*
X118827369Y-48944443D01*
X118771800Y-48949500D01*
X118627022Y-48962675D01*
X118627017Y-48962676D01*
X118622203Y-48963114D01*
X118424572Y-49021280D01*
X118420288Y-49023519D01*
X118420287Y-49023520D01*
X118409428Y-49029197D01*
X118242002Y-49116726D01*
X118238231Y-49119758D01*
X118085220Y-49242781D01*
X118085217Y-49242783D01*
X118081447Y-49245815D01*
X118078333Y-49249526D01*
X118078332Y-49249527D01*
X118015128Y-49324851D01*
X117949024Y-49403630D01*
X117946689Y-49407878D01*
X117946688Y-49407879D01*
X117939955Y-49420126D01*
X117849776Y-49584162D01*
X117848313Y-49588775D01*
X117848311Y-49588779D01*
X117803699Y-49729415D01*
X117787484Y-49780532D01*
X117786944Y-49785344D01*
X117786944Y-49785345D01*
X117775415Y-49888134D01*
X117764520Y-49985262D01*
X117334138Y-49985262D01*
X117323936Y-49881213D01*
X117315952Y-49799780D01*
X117315951Y-49799776D01*
X117315480Y-49794970D01*
X117310027Y-49776907D01*
X117257333Y-49602380D01*
X117255935Y-49597749D01*
X117159218Y-49415849D01*
X117029011Y-49256200D01*
X117002703Y-49234436D01*
X116874002Y-49127965D01*
X116874000Y-49127964D01*
X116870275Y-49124882D01*
X116689055Y-49026897D01*
X116625855Y-49007333D01*
X116496875Y-48967407D01*
X116496871Y-48967406D01*
X116492254Y-48965977D01*
X116487446Y-48965472D01*
X116487443Y-48965471D01*
X116292185Y-48944949D01*
X116292183Y-48944949D01*
X116287369Y-48944443D01*
X116231800Y-48949500D01*
X116087022Y-48962675D01*
X116087017Y-48962676D01*
X116082203Y-48963114D01*
X115884572Y-49021280D01*
X115880288Y-49023519D01*
X115880287Y-49023520D01*
X115869428Y-49029197D01*
X115702002Y-49116726D01*
X115698231Y-49119758D01*
X115545220Y-49242781D01*
X115545217Y-49242783D01*
X115541447Y-49245815D01*
X115538333Y-49249526D01*
X115538332Y-49249527D01*
X115475128Y-49324851D01*
X115409024Y-49403630D01*
X115406689Y-49407878D01*
X115406688Y-49407879D01*
X115399955Y-49420126D01*
X115309776Y-49584162D01*
X115308313Y-49588775D01*
X115308311Y-49588779D01*
X115263699Y-49729415D01*
X115247484Y-49780532D01*
X115246944Y-49785344D01*
X115246944Y-49785345D01*
X115235415Y-49888134D01*
X115224520Y-49985262D01*
X112250500Y-49985262D01*
X112250500Y-49731053D01*
X112765670Y-49731053D01*
X112765751Y-49742570D01*
X112776433Y-49746000D01*
X113470320Y-49746000D01*
X113483005Y-49741878D01*
X113486000Y-49737757D01*
X113486000Y-49730320D01*
X113994000Y-49730320D01*
X113998122Y-49743005D01*
X114002243Y-49746000D01*
X114702708Y-49746000D01*
X114713896Y-49742365D01*
X114714009Y-49731497D01*
X114679709Y-49617889D01*
X114676038Y-49608985D01*
X114587593Y-49442643D01*
X114582260Y-49434617D01*
X114463194Y-49288628D01*
X114456405Y-49281791D01*
X114311245Y-49161704D01*
X114303262Y-49156320D01*
X114137539Y-49066713D01*
X114128668Y-49062984D01*
X114008977Y-49025933D01*
X113997340Y-49026096D01*
X113994000Y-49036624D01*
X113994000Y-49730320D01*
X113486000Y-49730320D01*
X113486000Y-49037555D01*
X113482327Y-49026251D01*
X113471638Y-49026102D01*
X113364464Y-49057645D01*
X113355523Y-49061258D01*
X113188582Y-49148532D01*
X113180506Y-49153817D01*
X113033693Y-49271858D01*
X113026809Y-49278599D01*
X112905720Y-49422907D01*
X112900267Y-49430871D01*
X112809512Y-49595953D01*
X112805718Y-49604805D01*
X112765670Y-49731053D01*
X112250500Y-49731053D01*
X112250500Y-49130252D01*
X112238867Y-49071769D01*
X112194552Y-49005448D01*
X112128231Y-48961133D01*
X112118668Y-48959231D01*
X112118666Y-48959230D01*
X112095995Y-48954721D01*
X112069748Y-48949500D01*
X110330252Y-48949500D01*
X110304005Y-48954721D01*
X110281334Y-48959230D01*
X110281332Y-48959231D01*
X110271769Y-48961133D01*
X110205448Y-49005448D01*
X110161133Y-49071769D01*
X110149500Y-49130252D01*
X110149500Y-50869748D01*
X78671283Y-50869748D01*
X78673167Y-50854835D01*
X78675171Y-50838974D01*
X78675583Y-50809500D01*
X78673667Y-50789954D01*
X78655952Y-50609280D01*
X78655951Y-50609276D01*
X78655480Y-50604470D01*
X78650713Y-50588679D01*
X78598878Y-50416998D01*
X78595935Y-50407249D01*
X78499218Y-50225349D01*
X78369011Y-50065700D01*
X78330590Y-50033915D01*
X78214002Y-49937465D01*
X78214000Y-49937464D01*
X78210275Y-49934382D01*
X78029055Y-49836397D01*
X77965855Y-49816833D01*
X77836875Y-49776907D01*
X77836871Y-49776906D01*
X77832254Y-49775477D01*
X77827446Y-49774972D01*
X77827443Y-49774971D01*
X77632185Y-49754449D01*
X77632183Y-49754449D01*
X77627369Y-49753943D01*
X77567354Y-49759405D01*
X77427022Y-49772175D01*
X77427017Y-49772176D01*
X77422203Y-49772614D01*
X77224572Y-49830780D01*
X77220288Y-49833019D01*
X77220287Y-49833020D01*
X77209428Y-49838697D01*
X77042002Y-49926226D01*
X77038231Y-49929258D01*
X76885220Y-50052281D01*
X76885217Y-50052283D01*
X76881447Y-50055315D01*
X76878333Y-50059026D01*
X76878332Y-50059027D01*
X76808646Y-50142076D01*
X76749024Y-50213130D01*
X76746689Y-50217378D01*
X76746688Y-50217379D01*
X76722024Y-50262243D01*
X76649776Y-50393662D01*
X76648313Y-50398275D01*
X76648311Y-50398279D01*
X76638457Y-50429344D01*
X76587484Y-50590032D01*
X76586944Y-50594844D01*
X76586944Y-50594845D01*
X76566789Y-50774536D01*
X76564520Y-50794762D01*
X63434138Y-50794762D01*
X63433667Y-50789954D01*
X63415952Y-50609280D01*
X63415951Y-50609276D01*
X63415480Y-50604470D01*
X63410713Y-50588679D01*
X63358878Y-50416998D01*
X63355935Y-50407249D01*
X63259218Y-50225349D01*
X63129011Y-50065700D01*
X63090590Y-50033915D01*
X62974002Y-49937465D01*
X62974000Y-49937464D01*
X62970275Y-49934382D01*
X62789055Y-49836397D01*
X62725855Y-49816833D01*
X62596875Y-49776907D01*
X62596871Y-49776906D01*
X62592254Y-49775477D01*
X62587446Y-49774972D01*
X62587443Y-49774971D01*
X62392185Y-49754449D01*
X62392183Y-49754449D01*
X62387369Y-49753943D01*
X62327354Y-49759405D01*
X62187022Y-49772175D01*
X62187017Y-49772176D01*
X62182203Y-49772614D01*
X61984572Y-49830780D01*
X61980288Y-49833019D01*
X61980287Y-49833020D01*
X61969428Y-49838697D01*
X61802002Y-49926226D01*
X61798231Y-49929258D01*
X61645220Y-50052281D01*
X61645217Y-50052283D01*
X61641447Y-50055315D01*
X61638333Y-50059026D01*
X61638332Y-50059027D01*
X61568646Y-50142076D01*
X61509024Y-50213130D01*
X61506689Y-50217378D01*
X61506688Y-50217379D01*
X61482024Y-50262243D01*
X61409776Y-50393662D01*
X61408313Y-50398275D01*
X61408311Y-50398279D01*
X61398457Y-50429344D01*
X61347484Y-50590032D01*
X61346944Y-50594844D01*
X61346944Y-50594845D01*
X61326789Y-50774536D01*
X61324520Y-50794762D01*
X56497580Y-50794762D01*
X56409055Y-50746897D01*
X56283832Y-50708134D01*
X56216875Y-50687407D01*
X56216871Y-50687406D01*
X56212254Y-50685977D01*
X56207446Y-50685472D01*
X56207443Y-50685471D01*
X56012185Y-50664949D01*
X56012183Y-50664949D01*
X56007369Y-50664443D01*
X55947354Y-50669905D01*
X55807022Y-50682675D01*
X55807017Y-50682676D01*
X55802203Y-50683114D01*
X55604572Y-50741280D01*
X55600288Y-50743519D01*
X55600287Y-50743520D01*
X55589428Y-50749197D01*
X55422002Y-50836726D01*
X55418231Y-50839758D01*
X55265220Y-50962781D01*
X55265217Y-50962783D01*
X55261447Y-50965815D01*
X55258333Y-50969526D01*
X55258332Y-50969527D01*
X55190388Y-51050500D01*
X55129024Y-51123630D01*
X55126689Y-51127878D01*
X55126688Y-51127879D01*
X55119955Y-51140126D01*
X55029776Y-51304162D01*
X55028313Y-51308775D01*
X55028311Y-51308779D01*
X54974413Y-51478689D01*
X54967484Y-51500532D01*
X54966944Y-51505344D01*
X54966944Y-51505345D01*
X54945360Y-51697776D01*
X54944520Y-51705262D01*
X53500000Y-51705262D01*
X53500000Y-49448222D01*
X55026164Y-49448222D01*
X55055046Y-49548947D01*
X55058597Y-49557915D01*
X55144705Y-49725463D01*
X55149928Y-49733568D01*
X55266950Y-49881213D01*
X55273633Y-49888134D01*
X55417103Y-50010236D01*
X55425017Y-50015737D01*
X55589467Y-50107644D01*
X55598289Y-50111499D01*
X55731089Y-50154648D01*
X55742479Y-50154648D01*
X55746000Y-50143813D01*
X55746000Y-50142076D01*
X56254000Y-50142076D01*
X56257747Y-50153609D01*
X56268079Y-50153825D01*
X56362343Y-50127506D01*
X56371332Y-50124019D01*
X56539483Y-50039080D01*
X56547621Y-50033915D01*
X56696070Y-49917935D01*
X56703050Y-49911288D01*
X56826146Y-49768679D01*
X56831701Y-49760804D01*
X56924756Y-49596998D01*
X56928672Y-49588203D01*
X56975018Y-49448879D01*
X56975097Y-49437612D01*
X56964112Y-49434000D01*
X56269680Y-49434000D01*
X56256995Y-49438122D01*
X56254000Y-49442243D01*
X56254000Y-50142076D01*
X55746000Y-50142076D01*
X55746000Y-49449680D01*
X55741878Y-49436995D01*
X55737757Y-49434000D01*
X55037766Y-49434000D01*
X55026348Y-49437710D01*
X55026164Y-49448222D01*
X53500000Y-49448222D01*
X53500000Y-48911053D01*
X55025670Y-48911053D01*
X55025751Y-48922570D01*
X55036433Y-48926000D01*
X55730320Y-48926000D01*
X55743005Y-48921878D01*
X55746000Y-48917757D01*
X55746000Y-48910320D01*
X56254000Y-48910320D01*
X56258122Y-48923005D01*
X56262243Y-48926000D01*
X56962708Y-48926000D01*
X56973896Y-48922365D01*
X56974009Y-48911497D01*
X56939709Y-48797889D01*
X56936038Y-48788985D01*
X56847593Y-48622643D01*
X56842260Y-48614617D01*
X56723194Y-48468628D01*
X56716405Y-48461791D01*
X56571245Y-48341704D01*
X56563262Y-48336320D01*
X56412425Y-48254762D01*
X61324520Y-48254762D01*
X61341759Y-48460053D01*
X61343092Y-48464701D01*
X61343092Y-48464702D01*
X61392913Y-48638447D01*
X61398544Y-48658086D01*
X61492712Y-48841318D01*
X61620677Y-49002770D01*
X61624357Y-49005902D01*
X61624359Y-49005904D01*
X61695810Y-49066713D01*
X61777564Y-49136291D01*
X61781787Y-49138651D01*
X61781791Y-49138654D01*
X61825248Y-49162941D01*
X61957398Y-49236797D01*
X61961996Y-49238291D01*
X62148724Y-49298963D01*
X62148726Y-49298964D01*
X62153329Y-49300459D01*
X62357894Y-49324851D01*
X62362716Y-49324480D01*
X62362719Y-49324480D01*
X62430541Y-49319261D01*
X62563300Y-49309046D01*
X62761725Y-49253645D01*
X62766038Y-49251466D01*
X62766044Y-49251464D01*
X62941289Y-49162941D01*
X62941291Y-49162940D01*
X62945610Y-49160758D01*
X62949427Y-49157776D01*
X63104135Y-49036906D01*
X63104139Y-49036902D01*
X63107951Y-49033924D01*
X63112032Y-49029197D01*
X63180823Y-48949500D01*
X63242564Y-48877972D01*
X63261231Y-48845113D01*
X63341934Y-48703050D01*
X63341935Y-48703047D01*
X63344323Y-48698844D01*
X63357882Y-48658086D01*
X63397922Y-48537722D01*
X76646164Y-48537722D01*
X76675046Y-48638447D01*
X76678597Y-48647415D01*
X76764705Y-48814963D01*
X76769928Y-48823068D01*
X76886950Y-48970713D01*
X76893633Y-48977634D01*
X77037103Y-49099736D01*
X77045017Y-49105237D01*
X77209467Y-49197144D01*
X77218289Y-49200999D01*
X77351089Y-49244148D01*
X77362479Y-49244148D01*
X77366000Y-49233313D01*
X77366000Y-49231576D01*
X77874000Y-49231576D01*
X77877747Y-49243109D01*
X77888079Y-49243325D01*
X77982343Y-49217006D01*
X77991332Y-49213519D01*
X78159483Y-49128580D01*
X78167621Y-49123415D01*
X78316070Y-49007435D01*
X78323050Y-49000788D01*
X78446146Y-48858179D01*
X78451701Y-48850304D01*
X78544756Y-48686498D01*
X78548672Y-48677703D01*
X78595018Y-48538379D01*
X78595097Y-48527112D01*
X78584112Y-48523500D01*
X77889680Y-48523500D01*
X77876995Y-48527622D01*
X77874000Y-48531743D01*
X77874000Y-49231576D01*
X77366000Y-49231576D01*
X77366000Y-48539180D01*
X77361878Y-48526495D01*
X77357757Y-48523500D01*
X76657766Y-48523500D01*
X76646348Y-48527210D01*
X76646164Y-48537722D01*
X63397922Y-48537722D01*
X63407824Y-48507954D01*
X63407824Y-48507952D01*
X63409351Y-48503363D01*
X63435171Y-48298974D01*
X63435583Y-48269500D01*
X63430399Y-48216624D01*
X63415952Y-48069280D01*
X63415951Y-48069276D01*
X63415480Y-48064470D01*
X63399660Y-48012070D01*
X63396183Y-48000553D01*
X76645670Y-48000553D01*
X76645751Y-48012070D01*
X76656433Y-48015500D01*
X77350320Y-48015500D01*
X77363005Y-48011378D01*
X77366000Y-48007257D01*
X77366000Y-47999820D01*
X77874000Y-47999820D01*
X77878122Y-48012505D01*
X77882243Y-48015500D01*
X78582708Y-48015500D01*
X78593896Y-48011865D01*
X78594009Y-48000997D01*
X78559709Y-47887389D01*
X78556038Y-47878485D01*
X78467593Y-47712143D01*
X78462260Y-47704117D01*
X78343194Y-47558128D01*
X78336405Y-47551291D01*
X78274405Y-47500000D01*
X132644318Y-47500000D01*
X132664956Y-47656762D01*
X132725464Y-47802841D01*
X132821718Y-47928282D01*
X132947159Y-48024536D01*
X133093238Y-48085044D01*
X133250000Y-48105682D01*
X133406762Y-48085044D01*
X133552841Y-48024536D01*
X133678282Y-47928282D01*
X133774536Y-47802841D01*
X133835044Y-47656762D01*
X133855682Y-47500000D01*
X135144318Y-47500000D01*
X135164956Y-47656762D01*
X135225464Y-47802841D01*
X135321718Y-47928282D01*
X135447159Y-48024536D01*
X135593238Y-48085044D01*
X135750000Y-48105682D01*
X135906762Y-48085044D01*
X136052841Y-48024536D01*
X136178282Y-47928282D01*
X136274536Y-47802841D01*
X136335044Y-47656762D01*
X136355682Y-47500000D01*
X136335044Y-47343238D01*
X136274536Y-47197159D01*
X136178282Y-47071718D01*
X136052841Y-46975464D01*
X135906762Y-46914956D01*
X135750000Y-46894318D01*
X135593238Y-46914956D01*
X135447159Y-46975464D01*
X135321718Y-47071718D01*
X135225464Y-47197159D01*
X135164956Y-47343238D01*
X135144318Y-47500000D01*
X133855682Y-47500000D01*
X133835044Y-47343238D01*
X133774536Y-47197159D01*
X133678282Y-47071718D01*
X133552841Y-46975464D01*
X133406762Y-46914956D01*
X133250000Y-46894318D01*
X133093238Y-46914956D01*
X132947159Y-46975464D01*
X132821718Y-47071718D01*
X132725464Y-47197159D01*
X132664956Y-47343238D01*
X132644318Y-47500000D01*
X78274405Y-47500000D01*
X78191245Y-47431204D01*
X78183262Y-47425820D01*
X78017539Y-47336213D01*
X78008668Y-47332484D01*
X77888977Y-47295433D01*
X77877340Y-47295596D01*
X77874000Y-47306124D01*
X77874000Y-47999820D01*
X77366000Y-47999820D01*
X77366000Y-47307055D01*
X77362327Y-47295751D01*
X77351638Y-47295602D01*
X77244464Y-47327145D01*
X77235523Y-47330758D01*
X77068582Y-47418032D01*
X77060506Y-47423317D01*
X76913693Y-47541358D01*
X76906809Y-47548099D01*
X76785720Y-47692407D01*
X76780267Y-47700371D01*
X76689512Y-47865453D01*
X76685718Y-47874305D01*
X76645670Y-48000553D01*
X63396183Y-48000553D01*
X63357333Y-47871880D01*
X63355935Y-47867249D01*
X63259218Y-47685349D01*
X63129011Y-47525700D01*
X63112790Y-47512281D01*
X62974002Y-47397465D01*
X62974000Y-47397464D01*
X62970275Y-47394382D01*
X62789055Y-47296397D01*
X62725855Y-47276833D01*
X62596875Y-47236907D01*
X62596871Y-47236906D01*
X62592254Y-47235477D01*
X62587446Y-47234972D01*
X62587443Y-47234971D01*
X62392185Y-47214449D01*
X62392183Y-47214449D01*
X62387369Y-47213943D01*
X62327354Y-47219405D01*
X62187022Y-47232175D01*
X62187017Y-47232176D01*
X62182203Y-47232614D01*
X61984572Y-47290780D01*
X61980288Y-47293019D01*
X61980287Y-47293020D01*
X61969428Y-47298697D01*
X61802002Y-47386226D01*
X61798231Y-47389258D01*
X61645220Y-47512281D01*
X61645217Y-47512283D01*
X61641447Y-47515315D01*
X61638333Y-47519026D01*
X61638332Y-47519027D01*
X61629585Y-47529452D01*
X61509024Y-47673130D01*
X61506689Y-47677378D01*
X61506688Y-47677379D01*
X61499955Y-47689626D01*
X61409776Y-47853662D01*
X61408313Y-47858275D01*
X61408311Y-47858279D01*
X61399077Y-47887389D01*
X61347484Y-48050032D01*
X61346944Y-48054844D01*
X61346944Y-48054845D01*
X61326035Y-48241258D01*
X61324520Y-48254762D01*
X56412425Y-48254762D01*
X56397539Y-48246713D01*
X56388668Y-48242984D01*
X56268977Y-48205933D01*
X56257340Y-48206096D01*
X56254000Y-48216624D01*
X56254000Y-48910320D01*
X55746000Y-48910320D01*
X55746000Y-48217555D01*
X55742327Y-48206251D01*
X55731638Y-48206102D01*
X55624464Y-48237645D01*
X55615523Y-48241258D01*
X55448582Y-48328532D01*
X55440506Y-48333817D01*
X55293693Y-48451858D01*
X55286809Y-48458599D01*
X55165720Y-48602907D01*
X55160267Y-48610871D01*
X55069512Y-48775953D01*
X55065718Y-48784805D01*
X55025670Y-48911053D01*
X53500000Y-48911053D01*
X53500000Y-44985262D01*
X54944520Y-44985262D01*
X54950195Y-45052841D01*
X54961061Y-45182236D01*
X54961759Y-45190553D01*
X54963092Y-45195201D01*
X54963092Y-45195202D01*
X54999731Y-45322976D01*
X55018544Y-45388586D01*
X55112712Y-45571818D01*
X55240677Y-45733270D01*
X55244357Y-45736402D01*
X55244359Y-45736404D01*
X55357017Y-45832283D01*
X55397564Y-45866791D01*
X55401787Y-45869151D01*
X55401791Y-45869154D01*
X55441342Y-45891258D01*
X55577398Y-45967297D01*
X55581996Y-45968791D01*
X55768724Y-46029463D01*
X55768726Y-46029464D01*
X55773329Y-46030959D01*
X55977894Y-46055351D01*
X55982716Y-46054980D01*
X55982719Y-46054980D01*
X56050541Y-46049761D01*
X56183300Y-46039546D01*
X56381725Y-45984145D01*
X56386038Y-45981966D01*
X56386044Y-45981964D01*
X56561289Y-45893441D01*
X56561291Y-45893440D01*
X56565610Y-45891258D01*
X56600943Y-45863653D01*
X56724135Y-45767406D01*
X56724139Y-45767402D01*
X56727951Y-45764424D01*
X56732656Y-45758974D01*
X56770817Y-45714762D01*
X61324520Y-45714762D01*
X61328000Y-45756199D01*
X61339091Y-45888276D01*
X61341759Y-45920053D01*
X61343092Y-45924701D01*
X61343092Y-45924702D01*
X61380449Y-46054980D01*
X61398544Y-46118086D01*
X61492712Y-46301318D01*
X61620677Y-46462770D01*
X61624357Y-46465902D01*
X61624359Y-46465904D01*
X61737017Y-46561783D01*
X61777564Y-46596291D01*
X61781787Y-46598651D01*
X61781791Y-46598654D01*
X61821342Y-46620758D01*
X61957398Y-46696797D01*
X61961996Y-46698291D01*
X62148724Y-46758963D01*
X62148726Y-46758964D01*
X62153329Y-46760459D01*
X62357894Y-46784851D01*
X62362716Y-46784480D01*
X62362719Y-46784480D01*
X62430541Y-46779261D01*
X62563300Y-46769046D01*
X62761725Y-46713645D01*
X62766038Y-46711466D01*
X62766044Y-46711464D01*
X62941289Y-46622941D01*
X62941291Y-46622940D01*
X62945610Y-46620758D01*
X62980943Y-46593153D01*
X63104135Y-46496906D01*
X63104139Y-46496902D01*
X63107951Y-46493924D01*
X63242564Y-46337972D01*
X63261231Y-46305113D01*
X63341934Y-46163050D01*
X63341935Y-46163047D01*
X63344323Y-46158844D01*
X63357882Y-46118086D01*
X63407824Y-45967954D01*
X63407824Y-45967952D01*
X63409351Y-45963363D01*
X63435171Y-45758974D01*
X63435583Y-45729500D01*
X63434138Y-45714762D01*
X76564520Y-45714762D01*
X76568000Y-45756199D01*
X76579091Y-45888276D01*
X76581759Y-45920053D01*
X76583092Y-45924701D01*
X76583092Y-45924702D01*
X76620449Y-46054980D01*
X76638544Y-46118086D01*
X76732712Y-46301318D01*
X76860677Y-46462770D01*
X76864357Y-46465902D01*
X76864359Y-46465904D01*
X76977017Y-46561783D01*
X77017564Y-46596291D01*
X77021787Y-46598651D01*
X77021791Y-46598654D01*
X77061342Y-46620758D01*
X77197398Y-46696797D01*
X77201996Y-46698291D01*
X77388724Y-46758963D01*
X77388726Y-46758964D01*
X77393329Y-46760459D01*
X77597894Y-46784851D01*
X77602716Y-46784480D01*
X77602719Y-46784480D01*
X77670541Y-46779261D01*
X77803300Y-46769046D01*
X78001725Y-46713645D01*
X78006038Y-46711466D01*
X78006044Y-46711464D01*
X78181289Y-46622941D01*
X78181291Y-46622940D01*
X78185610Y-46620758D01*
X78220943Y-46593153D01*
X78344135Y-46496906D01*
X78344139Y-46496902D01*
X78347951Y-46493924D01*
X78482564Y-46337972D01*
X78501231Y-46305113D01*
X78581934Y-46163050D01*
X78581935Y-46163047D01*
X78584323Y-46158844D01*
X78597882Y-46118086D01*
X78647824Y-45967954D01*
X78647824Y-45967952D01*
X78649351Y-45963363D01*
X78675171Y-45758974D01*
X78675583Y-45729500D01*
X78664076Y-45612138D01*
X78655952Y-45529280D01*
X78655951Y-45529276D01*
X78655480Y-45524470D01*
X78595935Y-45327249D01*
X78499218Y-45145349D01*
X78369011Y-44985700D01*
X78280841Y-44912759D01*
X78214002Y-44857465D01*
X78214000Y-44857464D01*
X78210275Y-44854382D01*
X78029055Y-44756397D01*
X78008390Y-44750000D01*
X135894318Y-44750000D01*
X135914956Y-44906762D01*
X135975464Y-45052841D01*
X136071718Y-45178282D01*
X136197159Y-45274536D01*
X136343238Y-45335044D01*
X136500000Y-45355682D01*
X136656762Y-45335044D01*
X136802841Y-45274536D01*
X136928282Y-45178282D01*
X137024536Y-45052841D01*
X137085044Y-44906762D01*
X137105682Y-44750000D01*
X137085044Y-44593238D01*
X137024536Y-44447159D01*
X136928282Y-44321718D01*
X136802841Y-44225464D01*
X136656762Y-44164956D01*
X136500000Y-44144318D01*
X136343238Y-44164956D01*
X136197159Y-44225464D01*
X136071718Y-44321718D01*
X135975464Y-44447159D01*
X135914956Y-44593238D01*
X135894318Y-44750000D01*
X78008390Y-44750000D01*
X77965855Y-44736833D01*
X77836875Y-44696907D01*
X77836871Y-44696906D01*
X77832254Y-44695477D01*
X77827446Y-44694972D01*
X77827443Y-44694971D01*
X77632185Y-44674449D01*
X77632183Y-44674449D01*
X77627369Y-44673943D01*
X77567354Y-44679405D01*
X77427022Y-44692175D01*
X77427017Y-44692176D01*
X77422203Y-44692614D01*
X77224572Y-44750780D01*
X77220288Y-44753019D01*
X77220287Y-44753020D01*
X77213757Y-44756434D01*
X77042002Y-44846226D01*
X77038231Y-44849258D01*
X76885220Y-44972281D01*
X76885217Y-44972283D01*
X76881447Y-44975315D01*
X76878333Y-44979026D01*
X76878332Y-44979027D01*
X76816395Y-45052841D01*
X76749024Y-45133130D01*
X76746689Y-45137378D01*
X76746688Y-45137379D01*
X76739955Y-45149626D01*
X76649776Y-45313662D01*
X76648313Y-45318275D01*
X76648311Y-45318279D01*
X76614535Y-45424755D01*
X76587484Y-45510032D01*
X76586944Y-45514844D01*
X76586944Y-45514845D01*
X76576915Y-45604260D01*
X76564520Y-45714762D01*
X63434138Y-45714762D01*
X63424076Y-45612138D01*
X63415952Y-45529280D01*
X63415951Y-45529276D01*
X63415480Y-45524470D01*
X63355935Y-45327249D01*
X63259218Y-45145349D01*
X63129011Y-44985700D01*
X63040841Y-44912759D01*
X62974002Y-44857465D01*
X62974000Y-44857464D01*
X62970275Y-44854382D01*
X62789055Y-44756397D01*
X62725855Y-44736833D01*
X62596875Y-44696907D01*
X62596871Y-44696906D01*
X62592254Y-44695477D01*
X62587446Y-44694972D01*
X62587443Y-44694971D01*
X62392185Y-44674449D01*
X62392183Y-44674449D01*
X62387369Y-44673943D01*
X62327354Y-44679405D01*
X62187022Y-44692175D01*
X62187017Y-44692176D01*
X62182203Y-44692614D01*
X61984572Y-44750780D01*
X61980288Y-44753019D01*
X61980287Y-44753020D01*
X61973757Y-44756434D01*
X61802002Y-44846226D01*
X61798231Y-44849258D01*
X61645220Y-44972281D01*
X61645217Y-44972283D01*
X61641447Y-44975315D01*
X61638333Y-44979026D01*
X61638332Y-44979027D01*
X61576395Y-45052841D01*
X61509024Y-45133130D01*
X61506689Y-45137378D01*
X61506688Y-45137379D01*
X61499955Y-45149626D01*
X61409776Y-45313662D01*
X61408313Y-45318275D01*
X61408311Y-45318279D01*
X61374535Y-45424755D01*
X61347484Y-45510032D01*
X61346944Y-45514844D01*
X61346944Y-45514845D01*
X61336915Y-45604260D01*
X61324520Y-45714762D01*
X56770817Y-45714762D01*
X56787313Y-45695651D01*
X56862564Y-45608472D01*
X56881231Y-45575613D01*
X56961934Y-45433550D01*
X56961935Y-45433547D01*
X56964323Y-45429344D01*
X56977882Y-45388586D01*
X57027824Y-45238454D01*
X57027824Y-45238452D01*
X57029351Y-45233863D01*
X57036373Y-45178282D01*
X57054823Y-45032228D01*
X57055171Y-45029474D01*
X57055583Y-45000000D01*
X57054138Y-44985262D01*
X57035952Y-44799780D01*
X57035951Y-44799776D01*
X57035480Y-44794970D01*
X57024529Y-44758697D01*
X56999072Y-44674382D01*
X56975935Y-44597749D01*
X56879218Y-44415849D01*
X56749011Y-44256200D01*
X56613769Y-44144318D01*
X56594002Y-44127965D01*
X56594000Y-44127964D01*
X56590275Y-44124882D01*
X56468887Y-44059248D01*
X61329500Y-44059248D01*
X61330448Y-44064012D01*
X61338568Y-44104835D01*
X61341133Y-44117731D01*
X61385448Y-44184052D01*
X61451769Y-44228367D01*
X61461332Y-44230269D01*
X61461334Y-44230270D01*
X61484005Y-44234779D01*
X61510252Y-44240000D01*
X63249748Y-44240000D01*
X63275995Y-44234779D01*
X63298666Y-44230270D01*
X63298668Y-44230269D01*
X63308231Y-44228367D01*
X63374552Y-44184052D01*
X63418867Y-44117731D01*
X63421433Y-44104835D01*
X63429552Y-44064012D01*
X63430500Y-44059248D01*
X76569500Y-44059248D01*
X76570448Y-44064012D01*
X76578568Y-44104835D01*
X76581133Y-44117731D01*
X76625448Y-44184052D01*
X76691769Y-44228367D01*
X76701332Y-44230269D01*
X76701334Y-44230270D01*
X76724005Y-44234779D01*
X76750252Y-44240000D01*
X78489748Y-44240000D01*
X78515995Y-44234779D01*
X78538666Y-44230270D01*
X78538668Y-44230269D01*
X78548231Y-44228367D01*
X78614552Y-44184052D01*
X78658867Y-44117731D01*
X78661433Y-44104835D01*
X78669552Y-44064012D01*
X78670500Y-44059248D01*
X78670500Y-43095262D01*
X90134520Y-43095262D01*
X90151759Y-43300553D01*
X90153092Y-43305201D01*
X90153092Y-43305202D01*
X90207105Y-43493566D01*
X90208544Y-43498586D01*
X90302712Y-43681818D01*
X90430677Y-43843270D01*
X90434357Y-43846402D01*
X90434359Y-43846404D01*
X90483559Y-43888276D01*
X90587564Y-43976791D01*
X90591787Y-43979151D01*
X90591791Y-43979154D01*
X90697521Y-44038244D01*
X90767398Y-44077297D01*
X90771996Y-44078791D01*
X90958724Y-44139463D01*
X90958726Y-44139464D01*
X90963329Y-44140959D01*
X91167894Y-44165351D01*
X91172716Y-44164980D01*
X91172719Y-44164980D01*
X91240541Y-44159761D01*
X91373300Y-44149546D01*
X91571725Y-44094145D01*
X91576038Y-44091966D01*
X91576044Y-44091964D01*
X91751289Y-44003441D01*
X91751291Y-44003440D01*
X91755610Y-44001258D01*
X91759427Y-43998276D01*
X91914135Y-43877406D01*
X91914139Y-43877402D01*
X91917951Y-43874424D01*
X91921988Y-43869748D01*
X91984914Y-43796846D01*
X92052564Y-43718472D01*
X92058437Y-43708134D01*
X92151934Y-43543550D01*
X92151935Y-43543547D01*
X92154323Y-43539344D01*
X92163919Y-43510500D01*
X92217824Y-43348454D01*
X92217824Y-43348452D01*
X92219351Y-43343863D01*
X92220533Y-43334512D01*
X92244823Y-43142228D01*
X92245171Y-43139474D01*
X92245583Y-43110000D01*
X92244138Y-43095262D01*
X92674520Y-43095262D01*
X92691759Y-43300553D01*
X92693092Y-43305201D01*
X92693092Y-43305202D01*
X92747105Y-43493566D01*
X92748544Y-43498586D01*
X92842712Y-43681818D01*
X92970677Y-43843270D01*
X92974357Y-43846402D01*
X92974359Y-43846404D01*
X93023559Y-43888276D01*
X93127564Y-43976791D01*
X93131787Y-43979151D01*
X93131791Y-43979154D01*
X93237521Y-44038244D01*
X93307398Y-44077297D01*
X93311996Y-44078791D01*
X93498724Y-44139463D01*
X93498726Y-44139464D01*
X93503329Y-44140959D01*
X93707894Y-44165351D01*
X93712716Y-44164980D01*
X93712719Y-44164980D01*
X93780541Y-44159761D01*
X93913300Y-44149546D01*
X94111725Y-44094145D01*
X94116038Y-44091966D01*
X94116044Y-44091964D01*
X94291289Y-44003441D01*
X94291291Y-44003440D01*
X94295610Y-44001258D01*
X94299427Y-43998276D01*
X94454135Y-43877406D01*
X94454139Y-43877402D01*
X94457951Y-43874424D01*
X94461988Y-43869748D01*
X94524914Y-43796846D01*
X94592564Y-43718472D01*
X94598437Y-43708134D01*
X94691934Y-43543550D01*
X94691935Y-43543547D01*
X94694323Y-43539344D01*
X94703919Y-43510500D01*
X94757824Y-43348454D01*
X94757824Y-43348452D01*
X94759351Y-43343863D01*
X94760533Y-43334512D01*
X94784823Y-43142228D01*
X94785171Y-43139474D01*
X94785583Y-43110000D01*
X94784138Y-43095262D01*
X95214520Y-43095262D01*
X95231759Y-43300553D01*
X95233092Y-43305201D01*
X95233092Y-43305202D01*
X95287105Y-43493566D01*
X95288544Y-43498586D01*
X95382712Y-43681818D01*
X95510677Y-43843270D01*
X95514357Y-43846402D01*
X95514359Y-43846404D01*
X95563559Y-43888276D01*
X95667564Y-43976791D01*
X95671787Y-43979151D01*
X95671791Y-43979154D01*
X95777521Y-44038244D01*
X95847398Y-44077297D01*
X95851996Y-44078791D01*
X96038724Y-44139463D01*
X96038726Y-44139464D01*
X96043329Y-44140959D01*
X96247894Y-44165351D01*
X96252716Y-44164980D01*
X96252719Y-44164980D01*
X96320541Y-44159761D01*
X96453300Y-44149546D01*
X96651725Y-44094145D01*
X96656038Y-44091966D01*
X96656044Y-44091964D01*
X96831289Y-44003441D01*
X96831291Y-44003440D01*
X96835610Y-44001258D01*
X96839427Y-43998276D01*
X96994135Y-43877406D01*
X96994139Y-43877402D01*
X96997951Y-43874424D01*
X97001988Y-43869748D01*
X97064914Y-43796846D01*
X97132564Y-43718472D01*
X97138437Y-43708134D01*
X97231934Y-43543550D01*
X97231935Y-43543547D01*
X97234323Y-43539344D01*
X97243919Y-43510500D01*
X97297824Y-43348454D01*
X97297824Y-43348452D01*
X97299351Y-43343863D01*
X97300533Y-43334512D01*
X97324823Y-43142228D01*
X97325171Y-43139474D01*
X97325583Y-43110000D01*
X97324138Y-43095262D01*
X97754520Y-43095262D01*
X97771759Y-43300553D01*
X97773092Y-43305201D01*
X97773092Y-43305202D01*
X97827105Y-43493566D01*
X97828544Y-43498586D01*
X97922712Y-43681818D01*
X98050677Y-43843270D01*
X98054357Y-43846402D01*
X98054359Y-43846404D01*
X98103559Y-43888276D01*
X98207564Y-43976791D01*
X98211787Y-43979151D01*
X98211791Y-43979154D01*
X98317521Y-44038244D01*
X98387398Y-44077297D01*
X98391996Y-44078791D01*
X98578724Y-44139463D01*
X98578726Y-44139464D01*
X98583329Y-44140959D01*
X98787894Y-44165351D01*
X98792716Y-44164980D01*
X98792719Y-44164980D01*
X98860541Y-44159761D01*
X98993300Y-44149546D01*
X99191725Y-44094145D01*
X99196038Y-44091966D01*
X99196044Y-44091964D01*
X99371289Y-44003441D01*
X99371291Y-44003440D01*
X99375610Y-44001258D01*
X99379427Y-43998276D01*
X99534135Y-43877406D01*
X99534139Y-43877402D01*
X99537951Y-43874424D01*
X99541988Y-43869748D01*
X110069500Y-43869748D01*
X110081133Y-43928231D01*
X110125448Y-43994552D01*
X110191769Y-44038867D01*
X110201332Y-44040769D01*
X110201334Y-44040770D01*
X110224005Y-44045279D01*
X110250252Y-44050500D01*
X111989748Y-44050500D01*
X112015995Y-44045279D01*
X112038666Y-44040770D01*
X112038668Y-44040769D01*
X112048231Y-44038867D01*
X112114552Y-43994552D01*
X112158867Y-43928231D01*
X112170500Y-43869748D01*
X112170500Y-43268222D01*
X112686164Y-43268222D01*
X112715046Y-43368947D01*
X112718597Y-43377915D01*
X112804705Y-43545463D01*
X112809928Y-43553568D01*
X112926950Y-43701213D01*
X112933633Y-43708134D01*
X113077103Y-43830236D01*
X113085017Y-43835737D01*
X113249467Y-43927644D01*
X113258289Y-43931499D01*
X113391089Y-43974648D01*
X113402479Y-43974648D01*
X113406000Y-43963813D01*
X113406000Y-43962076D01*
X113914000Y-43962076D01*
X113917747Y-43973609D01*
X113928079Y-43973825D01*
X114022343Y-43947506D01*
X114031332Y-43944019D01*
X114199483Y-43859080D01*
X114207621Y-43853915D01*
X114356070Y-43737935D01*
X114363050Y-43731288D01*
X114486146Y-43588679D01*
X114491701Y-43580804D01*
X114584756Y-43416998D01*
X114588672Y-43408203D01*
X114635018Y-43268879D01*
X114635097Y-43257612D01*
X114624112Y-43254000D01*
X113929680Y-43254000D01*
X113916995Y-43258122D01*
X113914000Y-43262243D01*
X113914000Y-43962076D01*
X113406000Y-43962076D01*
X113406000Y-43269680D01*
X113401878Y-43256995D01*
X113397757Y-43254000D01*
X112697766Y-43254000D01*
X112686348Y-43257710D01*
X112686164Y-43268222D01*
X112170500Y-43268222D01*
X112170500Y-42985262D01*
X115144520Y-42985262D01*
X115161759Y-43190553D01*
X115163092Y-43195201D01*
X115163092Y-43195202D01*
X115212913Y-43368947D01*
X115218544Y-43388586D01*
X115312712Y-43571818D01*
X115440677Y-43733270D01*
X115444357Y-43736402D01*
X115444359Y-43736404D01*
X115515379Y-43796846D01*
X115597564Y-43866791D01*
X115601787Y-43869151D01*
X115601791Y-43869154D01*
X115641342Y-43891258D01*
X115777398Y-43967297D01*
X115781996Y-43968791D01*
X115968724Y-44029463D01*
X115968726Y-44029464D01*
X115973329Y-44030959D01*
X116177894Y-44055351D01*
X116182716Y-44054980D01*
X116182719Y-44054980D01*
X116253259Y-44049552D01*
X116383300Y-44039546D01*
X116581725Y-43984145D01*
X116586038Y-43981966D01*
X116586044Y-43981964D01*
X116761289Y-43893441D01*
X116761291Y-43893440D01*
X116765610Y-43891258D01*
X116800943Y-43863653D01*
X116924135Y-43767406D01*
X116924139Y-43767402D01*
X116927951Y-43764424D01*
X116950816Y-43737935D01*
X117015705Y-43662759D01*
X117062564Y-43608472D01*
X117081231Y-43575613D01*
X117161934Y-43433550D01*
X117161935Y-43433547D01*
X117164323Y-43429344D01*
X117177882Y-43388586D01*
X117227824Y-43238454D01*
X117227824Y-43238452D01*
X117229351Y-43233863D01*
X117233231Y-43203154D01*
X117254823Y-43032228D01*
X117255171Y-43029474D01*
X117255583Y-43000000D01*
X117254138Y-42985262D01*
X117684520Y-42985262D01*
X117701759Y-43190553D01*
X117703092Y-43195201D01*
X117703092Y-43195202D01*
X117752913Y-43368947D01*
X117758544Y-43388586D01*
X117852712Y-43571818D01*
X117980677Y-43733270D01*
X117984357Y-43736402D01*
X117984359Y-43736404D01*
X118055379Y-43796846D01*
X118137564Y-43866791D01*
X118141787Y-43869151D01*
X118141791Y-43869154D01*
X118181342Y-43891258D01*
X118317398Y-43967297D01*
X118321996Y-43968791D01*
X118508724Y-44029463D01*
X118508726Y-44029464D01*
X118513329Y-44030959D01*
X118717894Y-44055351D01*
X118722716Y-44054980D01*
X118722719Y-44054980D01*
X118793259Y-44049552D01*
X118923300Y-44039546D01*
X119121725Y-43984145D01*
X119126038Y-43981966D01*
X119126044Y-43981964D01*
X119301289Y-43893441D01*
X119301291Y-43893440D01*
X119305610Y-43891258D01*
X119340943Y-43863653D01*
X119464135Y-43767406D01*
X119464139Y-43767402D01*
X119467951Y-43764424D01*
X119490816Y-43737935D01*
X119555705Y-43662759D01*
X119602564Y-43608472D01*
X119621231Y-43575613D01*
X119664185Y-43500000D01*
X138144318Y-43500000D01*
X138145165Y-43506434D01*
X138145700Y-43510500D01*
X138164956Y-43656762D01*
X138225464Y-43802841D01*
X138321718Y-43928282D01*
X138447159Y-44024536D01*
X138593238Y-44085044D01*
X138750000Y-44105682D01*
X138906762Y-44085044D01*
X139052841Y-44024536D01*
X139178282Y-43928282D01*
X139274536Y-43802841D01*
X139335044Y-43656762D01*
X139354300Y-43510500D01*
X139354835Y-43506434D01*
X139355682Y-43500000D01*
X139335044Y-43343238D01*
X139274536Y-43197159D01*
X139178282Y-43071718D01*
X139052841Y-42975464D01*
X138906762Y-42914956D01*
X138750000Y-42894318D01*
X138593238Y-42914956D01*
X138447159Y-42975464D01*
X138321718Y-43071718D01*
X138225464Y-43197159D01*
X138164956Y-43343238D01*
X138144318Y-43500000D01*
X119664185Y-43500000D01*
X119701934Y-43433550D01*
X119701935Y-43433547D01*
X119704323Y-43429344D01*
X119717882Y-43388586D01*
X119767824Y-43238454D01*
X119767824Y-43238452D01*
X119769351Y-43233863D01*
X119773231Y-43203154D01*
X119794823Y-43032228D01*
X119795171Y-43029474D01*
X119795583Y-43000000D01*
X119793565Y-42979415D01*
X119775952Y-42799780D01*
X119775951Y-42799776D01*
X119775480Y-42794970D01*
X119759660Y-42742570D01*
X119717333Y-42602380D01*
X119715935Y-42597749D01*
X119619218Y-42415849D01*
X119489011Y-42256200D01*
X119450673Y-42224484D01*
X119334002Y-42127965D01*
X119334000Y-42127964D01*
X119330275Y-42124882D01*
X119149055Y-42026897D01*
X119079764Y-42005448D01*
X118956875Y-41967407D01*
X118956871Y-41967406D01*
X118952254Y-41965977D01*
X118947446Y-41965472D01*
X118947443Y-41965471D01*
X118752185Y-41944949D01*
X118752183Y-41944949D01*
X118747369Y-41944443D01*
X118691800Y-41949500D01*
X118547022Y-41962675D01*
X118547017Y-41962676D01*
X118542203Y-41963114D01*
X118344572Y-42021280D01*
X118340288Y-42023519D01*
X118340287Y-42023520D01*
X118280298Y-42054882D01*
X118162002Y-42116726D01*
X118158231Y-42119758D01*
X118005220Y-42242781D01*
X118005217Y-42242783D01*
X118001447Y-42245815D01*
X117998333Y-42249526D01*
X117998332Y-42249527D01*
X117900432Y-42366200D01*
X117869024Y-42403630D01*
X117866689Y-42407878D01*
X117866688Y-42407879D01*
X117859955Y-42420126D01*
X117769776Y-42584162D01*
X117768313Y-42588775D01*
X117768311Y-42588779D01*
X117730572Y-42707749D01*
X117707484Y-42780532D01*
X117706944Y-42785344D01*
X117706944Y-42785345D01*
X117685898Y-42972981D01*
X117684520Y-42985262D01*
X117254138Y-42985262D01*
X117253565Y-42979415D01*
X117235952Y-42799780D01*
X117235951Y-42799776D01*
X117235480Y-42794970D01*
X117219660Y-42742570D01*
X117177333Y-42602380D01*
X117175935Y-42597749D01*
X117079218Y-42415849D01*
X116949011Y-42256200D01*
X116910673Y-42224484D01*
X116794002Y-42127965D01*
X116794000Y-42127964D01*
X116790275Y-42124882D01*
X116609055Y-42026897D01*
X116539764Y-42005448D01*
X116416875Y-41967407D01*
X116416871Y-41967406D01*
X116412254Y-41965977D01*
X116407446Y-41965472D01*
X116407443Y-41965471D01*
X116212185Y-41944949D01*
X116212183Y-41944949D01*
X116207369Y-41944443D01*
X116151800Y-41949500D01*
X116007022Y-41962675D01*
X116007017Y-41962676D01*
X116002203Y-41963114D01*
X115804572Y-42021280D01*
X115800288Y-42023519D01*
X115800287Y-42023520D01*
X115740298Y-42054882D01*
X115622002Y-42116726D01*
X115618231Y-42119758D01*
X115465220Y-42242781D01*
X115465217Y-42242783D01*
X115461447Y-42245815D01*
X115458333Y-42249526D01*
X115458332Y-42249527D01*
X115360432Y-42366200D01*
X115329024Y-42403630D01*
X115326689Y-42407878D01*
X115326688Y-42407879D01*
X115319955Y-42420126D01*
X115229776Y-42584162D01*
X115228313Y-42588775D01*
X115228311Y-42588779D01*
X115190572Y-42707749D01*
X115167484Y-42780532D01*
X115166944Y-42785344D01*
X115166944Y-42785345D01*
X115145898Y-42972981D01*
X115144520Y-42985262D01*
X112170500Y-42985262D01*
X112170500Y-42731053D01*
X112685670Y-42731053D01*
X112685751Y-42742570D01*
X112696433Y-42746000D01*
X113390320Y-42746000D01*
X113403005Y-42741878D01*
X113406000Y-42737757D01*
X113406000Y-42730320D01*
X113914000Y-42730320D01*
X113918122Y-42743005D01*
X113922243Y-42746000D01*
X114622708Y-42746000D01*
X114633896Y-42742365D01*
X114634009Y-42731497D01*
X114599709Y-42617889D01*
X114596038Y-42608985D01*
X114507593Y-42442643D01*
X114502260Y-42434617D01*
X114383194Y-42288628D01*
X114376405Y-42281791D01*
X114231245Y-42161704D01*
X114223262Y-42156320D01*
X114057539Y-42066713D01*
X114048668Y-42062984D01*
X113928977Y-42025933D01*
X113917340Y-42026096D01*
X113914000Y-42036624D01*
X113914000Y-42730320D01*
X113406000Y-42730320D01*
X113406000Y-42037555D01*
X113402327Y-42026251D01*
X113391638Y-42026102D01*
X113284464Y-42057645D01*
X113275523Y-42061258D01*
X113108582Y-42148532D01*
X113100506Y-42153817D01*
X112953693Y-42271858D01*
X112946809Y-42278599D01*
X112825720Y-42422907D01*
X112820267Y-42430871D01*
X112729512Y-42595953D01*
X112725718Y-42604805D01*
X112685670Y-42731053D01*
X112170500Y-42731053D01*
X112170500Y-42130252D01*
X112158867Y-42071769D01*
X112114552Y-42005448D01*
X112048231Y-41961133D01*
X112038668Y-41959231D01*
X112038666Y-41959230D01*
X112015995Y-41954721D01*
X111989748Y-41949500D01*
X110250252Y-41949500D01*
X110224005Y-41954721D01*
X110201334Y-41959230D01*
X110201332Y-41959231D01*
X110191769Y-41961133D01*
X110125448Y-42005448D01*
X110081133Y-42071769D01*
X110069500Y-42130252D01*
X110069500Y-43869748D01*
X99541988Y-43869748D01*
X99604914Y-43796846D01*
X99672564Y-43718472D01*
X99678437Y-43708134D01*
X99771934Y-43543550D01*
X99771935Y-43543547D01*
X99774323Y-43539344D01*
X99783919Y-43510500D01*
X99837824Y-43348454D01*
X99837824Y-43348452D01*
X99839351Y-43343863D01*
X99840533Y-43334512D01*
X99864823Y-43142228D01*
X99865171Y-43139474D01*
X99865583Y-43110000D01*
X99862335Y-43076871D01*
X99845952Y-42909780D01*
X99845951Y-42909776D01*
X99845480Y-42904970D01*
X99785935Y-42707749D01*
X99689218Y-42525849D01*
X99559011Y-42366200D01*
X99542790Y-42352781D01*
X99404002Y-42237965D01*
X99404000Y-42237964D01*
X99400275Y-42234882D01*
X99219055Y-42136897D01*
X99146650Y-42114484D01*
X99026875Y-42077407D01*
X99026871Y-42077406D01*
X99022254Y-42075977D01*
X99017446Y-42075472D01*
X99017443Y-42075471D01*
X98822185Y-42054949D01*
X98822183Y-42054949D01*
X98817369Y-42054443D01*
X98757354Y-42059905D01*
X98617022Y-42072675D01*
X98617017Y-42072676D01*
X98612203Y-42073114D01*
X98414572Y-42131280D01*
X98410288Y-42133519D01*
X98410287Y-42133520D01*
X98399805Y-42139000D01*
X98232002Y-42226726D01*
X98228231Y-42229758D01*
X98075220Y-42352781D01*
X98075217Y-42352783D01*
X98071447Y-42355815D01*
X98068333Y-42359526D01*
X98068332Y-42359527D01*
X98034443Y-42399915D01*
X97939024Y-42513630D01*
X97936689Y-42517878D01*
X97936688Y-42517879D01*
X97929955Y-42530126D01*
X97839776Y-42694162D01*
X97838313Y-42698775D01*
X97838311Y-42698779D01*
X97824485Y-42742365D01*
X97777484Y-42890532D01*
X97776944Y-42895344D01*
X97776944Y-42895345D01*
X97762211Y-43026699D01*
X97754520Y-43095262D01*
X97324138Y-43095262D01*
X97322335Y-43076871D01*
X97305952Y-42909780D01*
X97305951Y-42909776D01*
X97305480Y-42904970D01*
X97245935Y-42707749D01*
X97149218Y-42525849D01*
X97019011Y-42366200D01*
X97002790Y-42352781D01*
X96864002Y-42237965D01*
X96864000Y-42237964D01*
X96860275Y-42234882D01*
X96679055Y-42136897D01*
X96606650Y-42114484D01*
X96486875Y-42077407D01*
X96486871Y-42077406D01*
X96482254Y-42075977D01*
X96477446Y-42075472D01*
X96477443Y-42075471D01*
X96282185Y-42054949D01*
X96282183Y-42054949D01*
X96277369Y-42054443D01*
X96217354Y-42059905D01*
X96077022Y-42072675D01*
X96077017Y-42072676D01*
X96072203Y-42073114D01*
X95874572Y-42131280D01*
X95870288Y-42133519D01*
X95870287Y-42133520D01*
X95859805Y-42139000D01*
X95692002Y-42226726D01*
X95688231Y-42229758D01*
X95535220Y-42352781D01*
X95535217Y-42352783D01*
X95531447Y-42355815D01*
X95528333Y-42359526D01*
X95528332Y-42359527D01*
X95494443Y-42399915D01*
X95399024Y-42513630D01*
X95396689Y-42517878D01*
X95396688Y-42517879D01*
X95389955Y-42530126D01*
X95299776Y-42694162D01*
X95298313Y-42698775D01*
X95298311Y-42698779D01*
X95284485Y-42742365D01*
X95237484Y-42890532D01*
X95236944Y-42895344D01*
X95236944Y-42895345D01*
X95222211Y-43026699D01*
X95214520Y-43095262D01*
X94784138Y-43095262D01*
X94782335Y-43076871D01*
X94765952Y-42909780D01*
X94765951Y-42909776D01*
X94765480Y-42904970D01*
X94705935Y-42707749D01*
X94609218Y-42525849D01*
X94479011Y-42366200D01*
X94462790Y-42352781D01*
X94324002Y-42237965D01*
X94324000Y-42237964D01*
X94320275Y-42234882D01*
X94139055Y-42136897D01*
X94066650Y-42114484D01*
X93946875Y-42077407D01*
X93946871Y-42077406D01*
X93942254Y-42075977D01*
X93937446Y-42075472D01*
X93937443Y-42075471D01*
X93742185Y-42054949D01*
X93742183Y-42054949D01*
X93737369Y-42054443D01*
X93677354Y-42059905D01*
X93537022Y-42072675D01*
X93537017Y-42072676D01*
X93532203Y-42073114D01*
X93334572Y-42131280D01*
X93330288Y-42133519D01*
X93330287Y-42133520D01*
X93319805Y-42139000D01*
X93152002Y-42226726D01*
X93148231Y-42229758D01*
X92995220Y-42352781D01*
X92995217Y-42352783D01*
X92991447Y-42355815D01*
X92988333Y-42359526D01*
X92988332Y-42359527D01*
X92954443Y-42399915D01*
X92859024Y-42513630D01*
X92856689Y-42517878D01*
X92856688Y-42517879D01*
X92849955Y-42530126D01*
X92759776Y-42694162D01*
X92758313Y-42698775D01*
X92758311Y-42698779D01*
X92744485Y-42742365D01*
X92697484Y-42890532D01*
X92696944Y-42895344D01*
X92696944Y-42895345D01*
X92682211Y-43026699D01*
X92674520Y-43095262D01*
X92244138Y-43095262D01*
X92242335Y-43076871D01*
X92225952Y-42909780D01*
X92225951Y-42909776D01*
X92225480Y-42904970D01*
X92165935Y-42707749D01*
X92069218Y-42525849D01*
X91939011Y-42366200D01*
X91922790Y-42352781D01*
X91784002Y-42237965D01*
X91784000Y-42237964D01*
X91780275Y-42234882D01*
X91599055Y-42136897D01*
X91526650Y-42114484D01*
X91406875Y-42077407D01*
X91406871Y-42077406D01*
X91402254Y-42075977D01*
X91397446Y-42075472D01*
X91397443Y-42075471D01*
X91202185Y-42054949D01*
X91202183Y-42054949D01*
X91197369Y-42054443D01*
X91137354Y-42059905D01*
X90997022Y-42072675D01*
X90997017Y-42072676D01*
X90992203Y-42073114D01*
X90794572Y-42131280D01*
X90790288Y-42133519D01*
X90790287Y-42133520D01*
X90779805Y-42139000D01*
X90612002Y-42226726D01*
X90608231Y-42229758D01*
X90455220Y-42352781D01*
X90455217Y-42352783D01*
X90451447Y-42355815D01*
X90448333Y-42359526D01*
X90448332Y-42359527D01*
X90414443Y-42399915D01*
X90319024Y-42513630D01*
X90316689Y-42517878D01*
X90316688Y-42517879D01*
X90309955Y-42530126D01*
X90219776Y-42694162D01*
X90218313Y-42698775D01*
X90218311Y-42698779D01*
X90204485Y-42742365D01*
X90157484Y-42890532D01*
X90156944Y-42895344D01*
X90156944Y-42895345D01*
X90142211Y-43026699D01*
X90134520Y-43095262D01*
X78670500Y-43095262D01*
X78670500Y-42319752D01*
X78662314Y-42278599D01*
X78660770Y-42270834D01*
X78660769Y-42270832D01*
X78658867Y-42261269D01*
X78614552Y-42194948D01*
X78548231Y-42150633D01*
X78538668Y-42148731D01*
X78538666Y-42148730D01*
X78515995Y-42144221D01*
X78489748Y-42139000D01*
X76750252Y-42139000D01*
X76724005Y-42144221D01*
X76701334Y-42148730D01*
X76701332Y-42148731D01*
X76691769Y-42150633D01*
X76625448Y-42194948D01*
X76581133Y-42261269D01*
X76579231Y-42270832D01*
X76579230Y-42270834D01*
X76577686Y-42278599D01*
X76569500Y-42319752D01*
X76569500Y-44059248D01*
X63430500Y-44059248D01*
X63430500Y-42319752D01*
X63422314Y-42278599D01*
X63420770Y-42270834D01*
X63420769Y-42270832D01*
X63418867Y-42261269D01*
X63374552Y-42194948D01*
X63308231Y-42150633D01*
X63298668Y-42148731D01*
X63298666Y-42148730D01*
X63275995Y-42144221D01*
X63249748Y-42139000D01*
X61510252Y-42139000D01*
X61484005Y-42144221D01*
X61461334Y-42148730D01*
X61461332Y-42148731D01*
X61451769Y-42150633D01*
X61385448Y-42194948D01*
X61341133Y-42261269D01*
X61339231Y-42270832D01*
X61339230Y-42270834D01*
X61337686Y-42278599D01*
X61329500Y-42319752D01*
X61329500Y-44059248D01*
X56468887Y-44059248D01*
X56409055Y-44026897D01*
X56322071Y-43999971D01*
X56216875Y-43967407D01*
X56216871Y-43967406D01*
X56212254Y-43965977D01*
X56207446Y-43965472D01*
X56207443Y-43965471D01*
X56012185Y-43944949D01*
X56012183Y-43944949D01*
X56007369Y-43944443D01*
X55947354Y-43949905D01*
X55807022Y-43962675D01*
X55807017Y-43962676D01*
X55802203Y-43963114D01*
X55604572Y-44021280D01*
X55600288Y-44023519D01*
X55600287Y-44023520D01*
X55568923Y-44039917D01*
X55422002Y-44116726D01*
X55418231Y-44119758D01*
X55265220Y-44242781D01*
X55265217Y-44242783D01*
X55261447Y-44245815D01*
X55258333Y-44249526D01*
X55258332Y-44249527D01*
X55193433Y-44326871D01*
X55129024Y-44403630D01*
X55126689Y-44407878D01*
X55126688Y-44407879D01*
X55119955Y-44420126D01*
X55029776Y-44584162D01*
X55028313Y-44588775D01*
X55028311Y-44588779D01*
X55001135Y-44674449D01*
X54967484Y-44780532D01*
X54966944Y-44785344D01*
X54966944Y-44785345D01*
X54945636Y-44975315D01*
X54944520Y-44985262D01*
X53500000Y-44985262D01*
X53500000Y-43329748D01*
X54949500Y-43329748D01*
X54961133Y-43388231D01*
X55005448Y-43454552D01*
X55071769Y-43498867D01*
X55081332Y-43500769D01*
X55081334Y-43500770D01*
X55104005Y-43505279D01*
X55130252Y-43510500D01*
X56869748Y-43510500D01*
X56895995Y-43505279D01*
X56918666Y-43500770D01*
X56918668Y-43500769D01*
X56928231Y-43498867D01*
X56994552Y-43454552D01*
X57038867Y-43388231D01*
X57050500Y-43329748D01*
X57050500Y-41590252D01*
X57038867Y-41531769D01*
X56994552Y-41465448D01*
X56928231Y-41421133D01*
X56918668Y-41419231D01*
X56918666Y-41419230D01*
X56895995Y-41414721D01*
X56869748Y-41409500D01*
X55130252Y-41409500D01*
X55104005Y-41414721D01*
X55081334Y-41419230D01*
X55081332Y-41419231D01*
X55071769Y-41421133D01*
X55005448Y-41465448D01*
X54961133Y-41531769D01*
X54949500Y-41590252D01*
X54949500Y-43329748D01*
X53500000Y-43329748D01*
X53500000Y-39599000D01*
X53518907Y-39540809D01*
X53568407Y-39504845D01*
X53599000Y-39500000D01*
X152401000Y-39500000D01*
X152459191Y-39518907D01*
G37*
%TD.AperFunction*%
%TD*%
M02*
